<?xml version="1.0" encoding="utf-8"?>
<!-- Generator: Adobe Illustrator 24.1.2, SVG Export Plug-In . SVG Version: 6.00 Build 0)  -->
<svg version="1.1" xmlns="http://www.w3.org/2000/svg" xmlns:xlink="http://www.w3.org/1999/xlink" x="0px" y="0px"
	 viewBox="0 0 1358.3 688" style="enable-background:new 0 0 1358.3 688;" xml:space="preserve">
<style type="text/css">
	.st0{display:none;}
	.st1{display:inline;}
	.st2{fill:#82A6A2;}
</style>
<g id="Layer_1" class="st0">
	<g id="Layer_1_1_" class="st1">
		<path class="st2" d="M-20,687.9h-1358.3c0.1-46.6,4.8-93,14-138.7c35.6-175.6,138.1-330.4,285.8-431.8
			c228.6-156.8,530.1-156.8,758.7,0C-172.1,218.8-69.7,373.6-34,549.2C-24.7,594.9-20.1,641.3-20,687.9z"/>
	</g>
</g>
<g id="Layer_2">
	<g id="Layer_2_1_">
		<path class="st2" d="M-341.5,118.2c2.9,1.4,6,2.5,9.1,3c5,0.9,10.1,1.5,15.2,1.8l0,0c1.2,0.1,1.8-1.5,0.8-2.1
			c-0.8-0.5-1.5-1-2.3-1.6c-10.9-7.5-22.3-14.7-33.7-21.6c-0.8-0.5-1.9,0.2-1.8,1.2c0.3,2.4,0.9,4.7,1.7,7
			C-350.5,111.3-346.6,115.7-341.5,118.2z"/>
		<path class="st2" d="M-452.2,143.8c3.9-2.2,6.7-5.9,7.7-10.3c0.9-3.6,0.5-7.5-1-10.9c-1.7-3.7-4.4-6.7-7.8-8.9
			c-3.1-2.1-6.6-3.5-10.3-4.1c-4-0.6-8-0.9-12-0.9h-0.1l-2.1,0.2h-0.1c-2.1,0.2-4.7,0.4-7.3,0.7c-5.5,0.5-10.7,2.3-15.2,5.4
			c-5.9,4.4-8.5,9.9-7.8,16.5c1.2,10.1,9,18.2,19.1,19.8c2.8,0.5,5.7,0.8,8.5,0.8c4.9,0,9.8-0.8,14.6-2.2
			C-461.1,148.4-456.5,146.3-452.2,143.8z"/>
		<path class="st2" d="M-163.1,265.6l-9.1-11.8c-0.4-0.5-0.9-1-1.4-1.4c-2.6-1.8-5.6-2.8-8.8-3.1c-18.3-1.4-36.1-6.8-52-15.9
			c-9.3-5.2-19.7-7.9-30.3-7.9c-12.9-0.4-25.7-2.1-38.3-5.2c-8.6-2-16.6-3.6-24.4-4.9c-3.6-0.6-7.2-0.8-10.8-0.8
			c-5.8,0-11.7,0.7-17.4,2c-5.8,1.3-11.4,3-16.9,5.2c-18.7,7.4-38.1,12.8-57.9,16.1c-3.2,0.6-6.4,0.9-9.6,0.9
			c-4.1,0.1-8.2-0.7-12-2.4c-2.2-1-4.2-2.3-5.8-4.1c-3-3.1-4.4-7.5-3.7-11.8c0.4-2.4,1.2-4.6,2.4-6.6c1-1.6,2.1-3.1,3.5-4.4
			c5.4-5.3,12.4-8.6,19.9-9.4c4.8-0.7,9.8-1.1,14.6-1.5l0,0c2.6-0.2,5.3-0.5,7.9-0.7c13.4-1.4,26.1-5.5,38.5-9.6
			c4.7-1.6,10.3-3.3,16-4.6c5.4-1.3,10.9-1.9,16.4-2c2.5,0,5,0.2,7.5,0.5c8.4,1.1,16.8,2.8,24.9,4.6h0.2c1.4,0.3,2.8,0.6,4.2,0.9
			c4.2,0.9,8.5,1.9,12.6,2.8c6.8,1.6,13.8,3.2,20.7,4.4c2.1,0.4,4.2,0.5,6.4,0.5c2.5,0,5-0.3,7.5-1c2.3-0.6,4.4-1.6,6.4-2.9
			c2-1.3,3.8-3,5.3-4.8l0,0c2.8-3.4,2.4-8.5-0.9-11.4c-4.2-3.7-8.4-7.5-12.6-11.1c-2.3-1.9-5.4-2.5-8.2-1.5
			c-0.2,0.1-0.4,0.1-0.6,0.2c-2.6,0.8-5.2,1.3-7.9,1.2c-4,0-8.3-0.8-13.8-2.7c-12.5-4.1-25.3-7.4-38.2-9.8l-0.9-0.2
			c-5.9-1.2-11.9-2.4-18.1-2.4c-1.9,0-3.8,0.1-5.7,0.4c-7,1.2-13.7,3.5-20,6.7c-10.9,5.3-22.8,8.1-34.9,8.1l-0.1,0.1
			c-0.6,0-1.2,0-1.9,0c-8.8,0.1-17.6,1.4-26.1,3.8c-8.4,2.5-16.7,5.5-24.7,9.1c-9.9,4.2-17.3,12.8-19.9,23.2
			c-1,3.6-2.2,7.7-3.5,11.7c-2.9,9.6-10.8,17-20.6,19.2c-2.4,0.7-4.9,1.2-7.4,1.6c-17.4,1.8-35.5,3.7-53.3,5.4
			c-10.5,1.3-21.1,1.3-31.6,0c-3.8-0.6-7.7-1.3-11.4-2c-3.1-0.6-6.3-1.2-9.4-1.7c-2.6-0.4-5.3-0.7-7.9-0.7c-4.6-0.1-9.2,0.9-13.3,3
			c-4.9,2.5-8,6.3-8.8,10.9c-0.8,4.5,0.8,9.2,4.4,13.3c4.5,4.7,10.4,8,16.8,9.3c5.8,1.3,11.7,2,17.6,2c2,0,4-0.1,5.9-0.2l3.6-0.2
			l0,0c14-0.7,28.4-1.5,42.6-2.5c10.8-0.7,20.2-1.8,28.7-3.2c9.5-1.5,18.9-3.9,28-6.9c12.6-4.5,26.4-4.4,38.8,0.5
			c7.9,3,16,5.1,24.4,6.2c8.3,1.1,16.7,1.7,25.1,1.8c1,0,2.1,0.1,3.1,0.1c12.8,0,25.2-3.9,35.7-11.1c5.6-3.9,11.7-7,18.2-9.1
			c6.2-2,12.7-3,19.3-3c6.2,0,12.3,0.8,18.3,2.4l0.6,0.2l0,0c9.9,2.5,20.2,5.1,30.5,6.9c20,3.4,39.7,8.6,58.8,15.5
			c13.9,5.1,28.3,8.5,43,10.2h0.1c11.6,1.3,41.5,16.9,33,3.2"/>
		<path class="st2" d="M-765.8,61L-765.8,61c1.3,0,2.6-0.1,3.9-0.3c4-0.5,7.8-2.2,10.9-4.8c3-2.7,5.2-6.2,6.4-10
			c1.3-4.6,2.3-9.3,3-14v-0.1c-0.3-1.3-0.6-2.7-0.8-4c-0.4-2.9-1.2-5.8-2.3-8.5c-2.8-7.2-9.6-12.1-17.2-12.6
			c-1.1-0.1-2.1-0.2-3.2-0.2l0,0c-7.8,0-15.1,3.9-19.5,10.3c-7.1,10.6-6.9,24.4,0.5,34.8C-780,57.5-773.1,61.1-765.8,61z"/>
		<path class="st2" d="M-704.5,24L-704.5,24c4.2-0.1,8.3-0.7,12.4-1.9c2.8-0.8,5.7-1.7,8.5-2.5h0.1c6.3-1.8,12.8-3.7,19.3-5.3
			c14.3-3.6,58.1-4.9,43.4-7.6l0,0c-25.6-3-50.7-4.5-76.5-4.5c-9.1,0-18.3,0.2-27.5,0.6c-0.6,0-1.1,0.6-1.1,1.2l0.1,2.5
			c0,6.3,3.7,11.9,9.4,14.5"/>
		<path class="st2" d="M-724.5,82.4c2.4,2.1,5.1,3.7,8.1,4.7v0.1c4.7,1.9,9.9,2.5,14.9,1.8c8-1,15.8-2.6,23.6-4.5
			c14-3.8,28.2-6.9,42.6-9.3c14.3-2.3,28.8-3.5,43.4-3.6c3.6,0,7.2,0.1,10.8,0.2c9.9,0.4,17.5,1,24.6,2c8.2,1,16.2,2.8,24.1,5.2
			c12.1,3.9,25,4.8,37.5,2.6c7.1-1.3,14.4-2.1,21.6-2.5c5.4-0.3,10.9-0.5,16.3-0.5c4.3,0,8.6,0.1,12.9,0.3
			c12.4,0.8,20.3,8.3,22.2,21c0.5,3.3,0.7,6.7,0.9,10l0,0c0.1,1.7,0.2,3.5,0.4,5.3c0.9,10.2,6.4,17.6,14.6,19.9c2.3,0.7,4.8,1,7.2,1
			l0,0c4.8,0,9.4-1.3,13.5-3.8c2.1-1.3,4-3,5.5-4.9c1.4-1.8,2.3-3.9,2.8-6.1c0.4-2.2,0.4-4.4-0.1-6.5s-1.4-4.2-2.6-6
			c-0.3-0.4-0.6-0.8-0.9-1.1c-3.7-4.4-7.7-8.5-12.1-12.3c-1.5-1.3-2.8-2.7-3.7-4.4c-0.5-1-1.5-1.9-2.2-3c-1.5-2.3-2.3-5-2.4-7.8
			v-0.1c-0.1-5.4-3.1-10.4-8-12.7c-8.2-3.9-16.4-7.6-24.6-11.2c-3.9-1.7-7.9-3.4-11.9-5c-1.2-0.5-2.4-0.8-3.7-0.9
			c-7-0.8-14.1-1.2-21.2-1.2c-5.5,0-11,0.2-16.4,0.7c-4.1,0.3-8.2,0.4-12.3,0.4c-13.7,0-27.4-1.4-40.8-4.2c-19.8-4-40-6-60.2-6
			c-5.8,0-11.7,0.2-17.6,0.5c-13.9,1.1-27.6,3.6-40.9,7.6c-4.1,1.2-8.8,2.5-13.4,3.4c-4.5,1-9.1,1.5-13.7,1.6c-0.8,0-1.7,0-2.5-0.1
			c-2.1-0.1-4.2-0.3-6.2-0.5l0,0c-2.9-0.3-5.7-0.5-8.6-0.6c-3.1,0.1-6.1,0.3-9.2,0.7c-1.4,0.2-2.8,0.3-4.2,0.5l0,0
			c-2.4,0.8-4.7,1.9-6.7,3.4c-1.8,1.4-3.4,3.1-4.6,5.1c-1.2,1.9-1.9,4-2.2,6.2c-0.3,2.3-0.1,4.6,0.5,6.8
			C-728.5,77.4-726.9,80.2-724.5,82.4z"/>
		<path class="st2" d="M-844.7,51.1c4.8,2.5,10.1,3.8,15.4,3.9l0,0c4.8,0.1,9.5-1.5,13.2-4.5c3.6-3.1,5.8-7.4,6.3-12
			c1.1-10.9-6.1-20.9-16.7-23.2l0,0c-0.9-0.2-1.9-0.2-2.8,0c-1.5,0.3-3,0.6-4.5,0.9c-13.9,2.9-27.8,6.2-41.5,10
			c-6.8,1.9-6.8,11.5-0.1,13.4c1,0.3,2,0.6,3.1,0.9C-862.8,43.2-853.5,46.8-844.7,51.1z"/>
		<path class="st2" d="M-47.5,520.1c7.9-0.6-0.8-13.1-4.3-21.7c-0.8-2-2.5-3.5-4.6-3.9l0,0c-10.2-2.1-20.4-2.4-28.2-2.4
			c-4.2,0.2-8.5,0.2-12.4,0.3h-0.2c-9.9,0.2-19.5,3.2-27.8,8.7c-1.2,0.8-2.5,1.5-3.6,2.3c-1.2,0.7-2.4,1.5-3.6,2.2
			c-14.6,9.6-32.6,12.6-49.5,8.2c-3.4-0.8-6.9-1.7-10.2-2.5l0,0c-10.1-2.4-20.5-4.9-30.8-6.8c-17.1-2.9-33.8-7.2-50.2-12.9
			c-14.5-5.3-29.6-9.1-45-11l-6.6-0.8l0,0c-16-2-32.6-4-48.7-7.5c-11.1-2.5-22.7-0.5-32.3,5.5c-1.6,1-3.2,1.9-4.8,2.7l0,0
			c-1.1,0.6-2.3,1.2-3.4,1.9c-4.8,2.8-10,5-15.4,6.6c-5.1,1.5-10.4,2.2-15.7,2.2c-3.9,0-7.8-0.4-11.7-1.2c-4.1-0.8-8-2-11.9-3.6
			c-5.6-2.2-11.3-4.2-17.1-5.7c-6.4-2-13.2-1.5-19.3,1.3c-2.4,1.1-4.5,2.7-6.2,4.7c-3,3.6-3.7,8.5-2,12.7c1,2.4,2.5,4.6,4.4,6.4
			c3.6,3.4,8.1,5.8,13,6.9c9.9,2.3,19.9,4.4,29.7,6.5l4.9,1c12.6,2.7,25.7,1.9,38-2.2c7.2-2.4,14.6-4.9,21.4-7.3
			c13-4.5,26.9-5.9,40.6-4c13.5,1.8,26.9,3.2,42.8,4.7c13.9,1.1,27.4,4.9,39.8,11.2c3.7,1.9,7.4,3.7,11,5.4h0.1
			c6,3,12.5,4.8,19.1,5.4c2.9,0.2,5.8,0.3,8.7,0.5l0,0c5.1,0.1,10.3,0.5,15.4,1.2c11.5,1.8,23,4.5,34.2,7.1l0,0l0.4,0.1
			c7,1.6,16.3,3.5,25.9,3.5c3.5,0,7-0.3,10.4-0.8c10-1.8,19.8-4.7,29.1-8.7c17.8-6.9,36.3-11.9,55.2-14.8c2.9-0.5,5.9-0.8,8.9-0.8"
			/>
		<path class="st2" d="M-606.5,475.2c5.7-1.5,10.3-2.6,14.7-3.4c4.9-0.9,10-1.3,15-1.4c1.4,0,2.8,0,4.2,0.1
			c4.8,0.3,10.5,0.7,16.3,1.3c12,1.7,24.1-0.9,34.3-7.5c2.5-1.6,5-3.1,7.5-4.6l1-0.6c10.1-6.2,21.8-9.5,33.6-9.5h0.9
			c8.5,0.5,16.9,2.3,24.8,5.5c4.9,1.9,10,3.5,15.1,4.8c5.8,1.6,11.9,1.2,17.4-1c4.5-1.9,8.1-5.6,9.8-10.4c0-0.1,0.1-0.2,0.1-0.4
			c0.3-5-1.6-9.8-4.9-13.3c-3.4-3.4-7.5-6-12.1-7.6c-8.3-3.1-17.1-4.3-25.6-5.4l-1.8-0.2c-7.4-1.1-14.9-1.6-22.3-1.7
			c-5.8,0-11.7,0.5-17.4,1.5c-8.6,1.6-17,4.5-25.1,7.3l-0.2,0.1l-4.8,1.7c-7.7,2.7-15.6,5-23.6,6.9c-5.9,1.3-12,1.9-18.1,1.8
			c-4.6,0-9.4-0.2-13.9-0.5l-3.4-0.2v0.1c-2.4,0-4.8,0-7.1-0.1h-0.2c-2.3,0-4.7-0.1-7.1-0.1c-2.7,0-4.9,0-7.1,0.1
			c-6.2,0.4-12.4,1.2-18.5,2.5c-6.2,1.2-11.8,4.5-15.9,9.3c-0.5,0.6-1,1.1-1.4,1.8c-4.6,6.7-2.9,15.8,3.8,20.4
			c4.1,3.1,9.1,4.8,14.3,5c0.7,0,1.5,0,2.2,0l0,0C-616.9,477.5-611.6,476.7-606.5,475.2z"/>
		<path class="st2" d="M-24.1,618.9c-0.8-8-5.6-6.9-8.2-6.4c-4.1,0.8-7.2,1.4-12.2,2.6c-4.3,0.9-8.4,2.4-12.3,4.5
			c-5.9,3.3-8.8,10.2-7,16.7c0.6,2.3,1.7,4.4,3.2,6.3c4.7,5.7,11,8.5,19.5,8.5h0.1v0.1l0,0l0.8-0.1c1.7-0.1,3.3-0.3,5-0.4l0,0
			c7.9-0.8,13.7-7.8,13.1-15.8"/>
		<path class="st2" d="M-714.6,438.4L-714.6,438.4c1.3,0.6,2.7,1.2,4,1.7l3.5,1.3c3.8,1.4,7.8,3,11.7,4c3.1,0.8,6.3,1.3,9.5,1.3
			c4,0,7.9-0.8,11.6-2.4c3.9-1.7,7.3-4.2,10.2-7.3c3.1-3.2,6.1-6.7,8.8-9.7l0,0c4.5-5.3,9.7-10,15.4-14s12.2-7,19-8.7
			c8.8-1.9,17.9-2.2,26.9-0.9c19.4,2.1,38.9,0.4,57.6-5.1c7.5-2.2,15.2-4.2,22.8-6c22.6-5.8,46.2-6.5,69.1-2.2c5,1,10,2.3,14.8,4.1
			c4.7,1.7,9.2,3.9,13.5,6.4c4.3,2.6,8.3,5.5,12,8.9c3.8,3.5,7.3,7.4,10.4,11.6c1.4,1.9,3,3.7,4.6,5.6l0.4,0.5
			c5.5,6.6,13,11,21.4,12.7c5.9,1.1,12.3,2,20.8,3c14.5,1.5,26.3,3.1,37.4,5c12.4,2,24.7,4.7,36.8,8.1l7.8,2.2l0,0
			c16.6,4.7,33.7,9.5,50.9,12.7c13.4,2.4,26.5,6.1,39.1,10.9c4.2,1.6,8.5,2.8,12.9,3.7c2.2,0.4,4.4,0.7,6.7,0.7l0,0
			c2.4,0,4.7-0.3,7-1c2.4-0.7,4.6-1.8,6.6-3.3c5.9-3.9,7.7-11.8,4-17.9c-2-3.9-5.3-6.9-9.3-8.6c-5.8-2.5-11.8-4.5-17.9-6
			c-9.8-2.3-19.8-4.5-29.4-6.6c-15.2-3.3-30.9-6.8-46.3-10.7l-0.3-0.1l0,0c-15.5-4-31.7-8-47.5-11.5c-15.9-3.5-32-6.2-48.2-8
			c-14.5-1.5-28.2-7.5-39.4-16.9l-12.7-10.6c-5.4-4.6-11.2-8.8-17.2-12.6c-6-3.8-12.5-6.9-19.2-9.1c-7.6-2.5-15.4-4.3-23.3-5.3
			c-7.8-1-15.7-1.5-23.6-1.5c-6.1,0-12.6,0.3-19.8,0.8c-7.3,0.6-14.5,1.6-21.6,3.1c-7,1.4-14.1,3.1-21.3,4.8
			c-17.8,4.5-36.1,6.8-54.4,6.8c-4.4,0-8.9-0.1-13.3-0.4c-6-0.4-13-0.8-19.9-0.9c-0.4,0-0.8,0-1.2,0c-10.7,0-21,4.5-28.2,12.4
			c-1.3,1.3-2.5,2.7-3.7,4c-1.7,2-3.5,4-5.4,5.8c-4.6,4.7-9.5,9.1-14.7,13.1c-5,3.7-11,5.7-17.2,5.8c-6.2,0-12.3-2.1-18.2-6.3
			c-2-1.5-4-3.1-5.9-4.7v-0.6l-0.9-0.7h-0.1l0,0c-0.8-0.6-1.6-1.3-2.4-2c-1.2-1-2.3-2.1-3.5-3.1c-2.1-1.9-4.3-3.9-6.6-5.6
			c-6.2-4.8-14.4-6.2-21.8-3.6c-3.1,1-6,2.8-8.4,5.1c-2.3,2.4-3.9,5.4-4.5,8.7c-0.7,3.2-0.4,6.5,0.9,9.4c1.4,2.9,3.4,5.4,5.9,7.3
			c3.1,2.5,6.5,4.7,10.1,6.4c6.5,3.3,13.3,6.5,19.8,9.6l0,0h0.1l7.9,3.8c0.7,0.3,1.4,0.6,2.1,0.8l1.2,0.5v0.5L-714.6,438.4z"/>
		<path class="st2" d="M-191.6,311.9c-13.2-2.3-26.4-5.3-39.3-8.8c-19.3-5.5-35.5-9.8-50.9-13.4c-14.2-3-28.2-7-41.9-11.8
			c-4.6-1.6-9.3-2.8-14.1-3.4c-5.9-1-12,0.3-17,3.8c-0.2,0.2-0.5,0.3-0.7,0.5c-0.2,0.1-0.3,0.2-0.5,0.4c-5.6,4.5-6.6,12.7-2.2,18.4
			l0,0c1.4,1.9,3,3.6,4.9,5.1c3,2.3,6.3,4.1,9.8,5.3c3.5,1.2,7.1,2.2,10.8,3c8.5,2,17.1,3.8,25.4,5.7c17.4,3.8,35.4,7.8,52.9,12.4
			c29,7.7,60.2,15.2,92.3,18.4c12.2,1,24,5.2,34,12.2c6,4.3,11.8,8.8,17.3,13.7c0.1,0.1,0.1,0.1,0.2,0.2c5.8,5.2,14.5-1.7,10.8-8.6
			c-7.4-14-15.3-27.7-23.6-41.2c-0.9-1.5-2.3-2.6-4-3c-1.1-0.3-2.2-0.6-3.3-0.8c-6.9-1.2-13.9-2-21-2.8
			C-165,316.1-178.4,314.3-191.6,311.9z"/>
		<path class="st2" d="M-1303.1,440c5.9,1.1,12.3,2,20.8,3c14.5,1.5,26.3,3.1,37.4,5c12.4,2,24.7,4.7,36.8,8.1l7.8,2.2l0,0
			c16.6,4.7,33.7,9.5,50.9,12.7c13.4,2.4,26.5,6.1,39.1,10.9c4.2,1.6,8.5,2.8,12.9,3.7c2.2,0.4,4.4,0.7,6.7,0.7c2.4,0,4.7-0.3,7-1
			c2.4-0.7,4.6-1.8,6.5-3.3c5.9-3.9,7.7-11.8,4-17.9c-2-3.9-5.3-6.9-9.3-8.6c-5.8-2.5-11.8-4.5-17.9-6c-9.8-2.3-19.7-4.5-29.4-6.6
			h-0.1c-15.2-3.3-30.9-6.8-46.3-10.7l-0.3-0.1l0,0c-15.5-4-31.6-8-47.5-11.5c-15.9-3.5-32-6.2-48.2-8c-10.5-1.1-20.7-4.6-29.7-10
			c-4.9-3-11.3-0.8-13.6,4.4c-2.1,4.8-4.2,9.6-6.2,14.4c0,0,0,0,0,0.1c-1.7,3.9-0.5,8.6,2.8,11.2
			C-1314.3,436.3-1308.9,438.9-1303.1,440z"/>
		<path class="st2" d="M-1328,508c13-4.5,26.9-5.9,40.6-4c13.5,1.8,26.9,3.2,42.9,4.7c13.9,1.1,27.4,4.9,39.8,11.2
			c3.7,1.9,7.5,3.7,11.1,5.5l0,0c6,3,12.5,4.8,19.1,5.4c2.9,0.2,5.8,0.3,8.7,0.5l0,0c5.1,0.1,10.3,0.5,15.4,1.2
			c11.5,1.8,23,4.5,34.2,7.1l0,0l0.4,0.1c7.1,1.6,16.3,3.5,25.9,3.5c3.5,0,7-0.3,10.4-0.8c10-1.8,19.8-4.7,29.1-8.7
			c17.8-6.9,36.3-11.9,55.2-14.8c2.9-0.5,5.9-0.8,8.9-0.8c4.2-0.1,8.3,0.8,12.2,2.5c3.2,1.4,5.8,3.7,7.6,6.7c1.6,3,2.2,6.5,1.5,9.8
			c-0.8,3.8-2.7,7.2-5.5,9.9c-3,3-6.7,5.4-10.7,6.9s-8.1,2.4-12.4,2.8c-16.2,1.3-32.2,4.2-47.8,8.8c-9.1,2.8-18.2,5.4-26.6,7.8
			c-13.3,3.9-27.3,4.1-40.7,0.5c-4.5-1.2-9-2.4-13.4-3.6l0,0c-6.1-1.7-12.4-3.4-18.6-4.9c-7.2-1.9-14.6-3.8-22.2-3.8h-1.4
			c-4.7,0-9.4,1.3-13.4,3.7c-4,2.6-7.1,6.3-9,10.6c-1.2,2.5-2.3,5.2-3.3,7.8l0,0c-0.8,2-1.5,4-2.4,5.9c-3.3,8.3-10.4,14.4-19.1,16.3
			c-4.7,1.1-9.6,1.8-14.5,2c-10.7,0.5-21.6,0.9-32.4,1h-2.1c-3.6,0-7.4,0.1-11.1,0.1c-8,0-14.2-0.2-19.9-0.6
			c-5.1-0.4-10.3-1.1-15.3-2.1c-3.2-0.5-6.5-1.1-9.7-1.5c-2.2-0.3-4.5-0.5-6.8-0.5c-7.1,0-12.9,1.8-17.7,5.3
			c-6.8,5.1-9.4,10.9-8.1,17.8c0.6,3.4,2.3,6.4,4.9,8.6c2.6,2,5.7,3.4,8.9,4.2c0.5,0.2,1.1,0.3,1.7,0.4c4.4,0.5,8.7,0.7,13.1,0.7
			c3.1-0.1,6.2-0.2,9.3-0.2c7.4,0,14.9,0.4,22.3,1.2c9.7,1.1,19.5,0.9,29.1-0.6c16.8-2.8,29.6-5,41.5-7.2
			c13.2-2.9,27.1,0.4,37.7,8.8c2.3,1.8,4.7,3.5,7.1,5.2l0,0h0.1l2.5,1.8c9.4,7.1,20.4,11.9,32.1,13.9c4,0.6,8.3,1.3,12.5,2.2
			c6.6,1.2,12.6,4.6,17,9.7c1.5,1.8,2.7,3.8,3.5,5.9c1,2.7,3.8,4.4,6.7,4.4h9.3c4.4,0,7.6-3.9,7-8.2V678c-0.4-2.7-0.7-5.5-1-8.2
			c-0.3-3-0.6-6-1.1-9c-1.8-12.1-8.5-19.8-20-22.8c-3.8-1-7.8-1.8-11.2-2.4c-4.6-0.8-9.3-1.6-13.8-2.4c-7.4-1.3-15.1-2.6-22.7-4
			c-6.6-1-12.8-4-17.5-8.8c-0.1-0.1-0.2-0.3-0.4-0.4c-5.7-6.3-5.3-16,1-21.8c3-2.8,6.7-4.7,10.7-5.5c1.8-0.3,3.6-0.5,5.4-0.5
			c2.6,0,5.2,0.4,7.8,1c2.6,0.6,5.1,1.4,7.5,2.3c2.5,1,5.1,2,7.5,2.9l0,0c5,2,10.2,4,15.3,5.7c6.1,2.1,12.3,3.8,18.5,5.2
			c2.6,0.6,5.3,0.8,8,0.9c3.5,0,7.1-0.5,10.5-1.3c3.5-0.9,6.9-2.1,10.2-3.5c10.6-5,22-8.1,33.6-9.3c0.2,0,0.4,0,0.5,0
			c5.9-0.2,11.8-0.8,17.6-2c0.2,0,0.3-0.1,0.5-0.1c17.1-4.4,34.2-9.3,51-14.5c4.6-1.4,8.8-4,12-7.6c3.1-3.7,5.4-8,6.7-12.7
			c0.9-3.2,2-7,2.8-10.9c0.7-3.1,1.8-6,3.3-8.8c1.4-2.5,3.1-4.8,5.2-6.8c2.1-2,4.5-3.6,7.1-4.9c4.1-1.8,8.4-3,12.7-3.7l11.4-1.1h0.1
			c14.1-1.4,28.6-2.8,43-4c4.1-0.4,8.2-0.6,12.3-0.6c7.4,0,14.7,0.7,21.9,2l3.6,0.7l0,0c4.4,0.9,8.9,1.8,13.4,2.3
			c1.9,0.3,3.9,0.4,5.9,0.4c2.8,0,5.7-0.3,8.4-1.1c2.8-0.8,5.5-2.1,7.8-3.9c5.4-3.9,7.1-11.2,4.2-17.1c-2.3-4.6-6.1-8.3-10.8-10.6
			c-6.5-3.4-13.6-5.2-20.9-5.2h-1.5c-19.3,0.4-36.3,1.1-51.8,2c-9.9,0.5-19.8,1.5-29.7,3.1c-9.8,1.5-19.5,3.9-29,7.1
			c-12.5,4.3-26.1,4.1-38.4-0.6c-5.8-2.1-11.8-3.8-17.8-5.1c-10.2-2.1-20.4-2.4-28.2-2.4c-4.1,0-8.3,0.1-12.4,0.2h-0.2
			c-9.9,0.2-19.5,3.2-27.8,8.7c-1.2,0.8-2.4,1.5-3.6,2.3c-1.2,0.7-2.4,1.5-3.6,2.2c-14.6,9.6-32.6,12.6-49.5,8.2
			c-3.4-0.8-6.8-1.6-10.1-2.4h-0.1l0,0c-10.1-2.4-20.5-4.9-30.8-6.9c-17.1-2.9-33.8-7.2-50.2-12.9c-14.5-5.4-29.5-9.1-44.9-11.1
			l-6.6-0.8c-16-2-32.6-4-48.7-7.5c-11.1-2.5-22.7-0.5-32.3,5.5c-1.3,0.8-2.6,1.5-3.9,2.2c-0.7,0.4-1.4,0.6-2.1,0.7
			c-0.8,0.1-1.3,0.3-2.4,1.5c-0.1,0.1-0.3,0.5-0.3,0.6c-7.7,9.7-19.1,36.3-10.2,34.8"/>
		<path class="st2" d="M-1353.6,581.9c4.5-1.8,9.2-3.1,14-4c12.3-2.3,24.9-3.4,37.4-3.3c14.7,0,29.5,1.3,41.9,2.5
			c3.3,0.3,6.5,0.8,9.7,1.2l0,0c4.6,0.6,9.4,1.3,14.2,1.6h0.1h1.2c4.3,0,8.6-0.6,12.7-1.7c3-0.9,5.9-2.4,8.3-4.4
			c2.5-1.9,4.5-4.3,5.8-7.2c1.1-2.5,1.5-5.2,1.2-7.8c-0.4-2.7-1.6-5.2-3.4-7.3c-2.1-2.4-4.8-4.2-7.7-5.3c-5.7-2.1-11.9-2.9-18-2.2
			c-5.3,0.5-10.7,0.7-16,0.7c-8.7,0-17.4-0.6-26-1.8c-15.6-2.6-31.6-2.1-46.9,1.5c-9.7,2.4-19.3,5.2-28.7,8.5l0,0
			c-2.3,0.9-3.9,2.9-4.4,5.3c-2,10-8.9,12.1-10.4,22.3l0,0C-1366.3,595.8-1357.4,583.3-1353.6,581.9z"/>
		<path class="st2" d="M-528.4,120.9c-0.2-2.1-0.8-4.2-1.8-6.1c-2.5-5-7.3-8.5-12.9-9.4c-3.5-0.6-7.1-1-10.6-1
			c-1.6,0-3.2,0.1-4.8,0.2c-10.8,1-21.8,1.5-32.6,1.5c-2.1,0-4.2,0-6.3-0.1h-2.5c-9.6,0-19.3,0.6-28.9,1.6
			c-13.6,1.4-26.9,5.6-39.7,9.6l-2.6,0.8c-10.3,3.2-18.7,4.7-26.6,4.7c-6.5,0-12.9-1.1-19-3.4v-0.1c-9.7-3.7-18.3-9.7-26.6-15.5
			l-0.2-0.1l-2.4-1.7c-17-12.2-37.4-18.8-58.4-18.8h-1.5c-0.1,0-0.3,0-0.4,0c-6.8,0.4-13.6,1.2-20.3,2.3c-2.6,0.3-5.1,0.5-7.7,0.5
			c-4.9,0-9.8-0.5-14.5-1.6c-4.8-1.1-9.5-2.5-14.1-4.2l-5.5-2.1l0,0c-8.6-3.3-17.6-6.7-26.5-9.5c-22.5-7-46.3-8.9-69.6-5.6
			c-4.5,0.6-9.1,1-13.7,1.2c-0.8,0-1.6,0.2-2.3,0.6c-11.8,5.5-23.6,11.5-35.2,17.7c-4.5,2.4-4.1,8.9,0.6,10.8c0,0,0.1,0,0.1,0.1
			c12.1,5,25.4,5.8,38,2.3c17.5-4.6,35.8-5.3,53.6-2c14.1,2.9,27.8,7.2,41,12.9l2.5,1c8.9,3.6,18.2,7.4,27.9,9.4
			c5.3,1,10.7,1.5,16.1,1.5c6.5-0.1,12.9-0.5,19.3-1.3c16.3-2.1,32.9,0.9,47.4,8.6c3.4,1.8,6.9,3.8,10.2,5.6l0,0l0,0
			c4.9,2.8,10,5.6,15.2,8.2c6,3,12.4,5.9,18.7,8.7c2.4,1.1,5.1,2.3,7.8,3.5c0.2,0,0.4,0,0.6,0.1v0.1c9.4,3.7,19.7,4.7,29.6,2.9
			c7.6-1.4,15.2-3.5,22.5-6c28.6-10.4,59.3-13.8,89.4-10c6.4,0.8,14,1.6,21.8,2c0.5,0,1,0,1.5,0c4.8,0,9.6-1.3,13.7-3.7
			c2.1-1.2,3.9-2.8,5.5-4.6c1.4-1.6,2.5-3.5,3.3-5.6C-528.6,125-528.3,123-528.4,120.9z"/>
		<path class="st2" d="M-1186.6,674.3c-5.6-3.2-11.5-5.7-17.6-7.6c-5.9-1.8-12.1-2.8-18.3-2.8c-5.6,0-11.2,0.8-16.5,2.4
			c-8,2.6-15.9,5.6-23.6,9.1c-9.2,4.1-19.4,4.9-29.2,2.4l-3.1-0.8c-5.2-1.3-10.5-2.7-15.8-3.8l-4.9-1h-0.2
			c-12.1-2.5-24.6-5-36.3-9.7c-5.4-2.2-11.1-3.6-16.8-4.1c-3-0.3-5.7,2.1-5.8,5.1c-0.2,5.1-0.3,10.3-0.3,15.5c0,2.9,2.4,5.3,5.3,5.3
			h180.5c5.4,0,7.4-7.1,2.8-9.9C-1186.5,674.4-1186.5,674.3-1186.6,674.3z"/>
		<path class="st2" d="M-20.9,683.8c0-3.4-3-6.1-6.4-5.8c-4.9,0.4-9.8,0.8-14.7,1c-4,0.3-7.9,0.4-11.9,0.4s-7.9-0.1-11.9-0.4
			c-2.5-0.2-4.9-0.9-7.2-1.9c-2.1-1-4-2.3-5.7-3.9c-3.4-3.5-5.7-7.9-6.4-12.7c-0.7-3.5-1-7.2-1.4-10.7l0,0c-0.2-1.7-0.3-3.5-0.5-5.2
			c-0.4-5.6-2.7-11-6.5-15.1c-3.7-3.8-9.4-5.9-15.5-5.9c-4.1,0-8.1,1-11.8,2.8c-5.3,2.8-8.8,7.1-9.7,12.1c-1,5,0.6,10.1,4.5,14.7
			c1.4,1.6,3,3.2,4.6,4.6c0.8,0.7,1.6,1.4,2.4,2.2c3.6,3.1,6.9,6.5,10.1,10.1c3.4,4.1,4.4,9.6,2.8,14.5c-0.3,0.8,0.3,1.6,1.1,1.6
			c11.2,0,73.6,0,83,0c0.7,0,1.2-0.5,1.2-1.2C-20.9,684.5-20.9,684.2-20.9,683.8z"/>
		<path class="st2" d="M-88.6,593.6c0.1,0,0.1,0,0.2,0c17.1-4.4,34.3-9.3,51.2-14.5c0.8-0.2,1.6-0.5,2.3-0.8
			c1.1-0.5,1.8-1.6,1.6-2.8c-1.5-9.2-3.2-18.6-5.1-27.7l0,0c-0.4-2.1-3-2.8-4.4-1.3c-0.2,0.2-0.3,0.3-0.5,0.5c-3,3-6.7,5.4-10.7,6.9
			s-8.2,2.4-12.4,2.8c-16.2,1.3-32.2,4.2-47.8,8.8c-9.1,2.8-18.2,5.4-26.6,7.8c-13.3,3.9-27.3,4.1-40.7,0.5
			c-4.4-1.2-8.9-2.4-13.2-3.6h-0.1l0,0c-6.1-1.7-12.4-3.4-18.6-4.9c-7.2-1.9-14.6-3.8-22.2-3.8c-0.4,0-0.8,0-1.2,0
			c-4.7,0-9.4,1.3-13.5,3.7c-4,2.6-7.1,6.3-9,10.6c-1.2,2.6-2.3,5.2-3.3,7.8c-0.8,2-1.5,4-2.4,5.9c-3.3,8.3-10.4,14.4-19.1,16.3
			c-4.7,1.1-9.6,1.8-14.5,2c-10.7,0.5-21.6,0.9-32.4,0.9h-1.4h-0.7c-3.6,0-7.4,0.1-11.1,0.1c-8,0-14.2-0.2-19.9-0.6
			c-5.1-0.4-10.3-1.1-15.3-2.1l0,0c-3.2-0.6-6.4-1.1-9.7-1.5c-2.2-0.3-4.5-0.5-6.8-0.5c-7.1,0-12.9,1.8-17.7,5.4
			c-6.8,5.1-9.4,10.9-8.1,17.8c0.6,3.4,2.3,6.4,4.9,8.6c2.6,2,5.7,3.4,8.9,4.2c0.5,0.2,1.1,0.3,1.7,0.4c4.4,0.5,8.7,0.7,13.1,0.7
			c3.1-0.1,6.2-0.2,9.3-0.2c7.4,0,14.9,0.4,22.3,1.2c9.7,1.1,19.5,0.9,29.1-0.6c16.8-2.8,29.6-5,41.5-7.2
			c13.2-2.9,27.1,0.4,37.7,8.8c2.3,1.8,4.7,3.5,7.1,5.2l2.5,1.8c9.4,7.1,20.4,11.9,32.1,13.9c4,0.6,8.3,1.3,12.5,2.2
			c6.6,1.2,12.6,4.6,17,9.7c2.1,2.4,3.6,5.2,4.4,8.2c0.3,1.2,1.3,2,2.6,2h18.3c1.8,0,3-1.7,2.5-3.5c-0.5-1.6-0.9-3.2-1.1-4.9
			c-0.4-2.7-0.7-5.5-1-8.2l0,0c-0.3-3-0.6-5.9-1.1-8.9c-1.8-12.1-8.5-19.8-20-22.8c-3.9-1-7.8-1.8-11.2-2.4
			c-4.6-0.8-9.3-1.6-13.8-2.4c-7.4-1.2-15.1-2.6-22.6-4c-6.7-1-12.8-4.1-17.6-8.8c-0.1-0.1-0.2-0.3-0.4-0.4c-5.7-6.3-5.3-16,1-21.8
			c3-2.8,6.7-4.7,10.8-5.5c1.8-0.4,3.6-0.5,5.4-0.5c2.6,0,5.2,0.4,7.8,1c2.6,0.6,5.1,1.4,7.5,2.3c2.5,1,5,2,7.5,2.9
			c5,2,10.2,4,15.3,5.7c6.1,2.1,12.3,3.8,18.5,5.2c2.6,0.6,5.3,0.8,8.1,0.9c3.5,0,7.1-0.5,10.5-1.3c3.5-0.9,6.9-2.1,10.2-3.5
			c10.7-5,22.1-8.1,33.8-9.3c0.1,0,0.1,0,0.2,0C-100.5,595.5-94.5,594.8-88.6,593.6z"/>
		<path class="st2" d="M-251.2,676.5c-5.6-3.2-11.5-5.7-17.6-7.7c-5.9-1.8-12.1-2.8-18.3-2.8c-5.6,0-11.2,0.8-16.6,2.4
			c-8,2.6-15.9,5.6-23.6,9.1c-9.2,4.1-19.5,4.9-29.2,2.4l-3.1-0.8l0,0c-5.2-1.3-10.5-2.7-15.8-3.8l-4.8-1h-0.3
			c-12.1-2.5-24.6-5-36.3-9.7c-12.4-5-26.1-5.8-38.9-2.1c-20.5,5.4-42,5.4-62.5,0c-13.2-3.5-26.1-8.1-38.5-13.7
			c-6.8-3-13.8-5.4-21.1-7.1c-7.1-1.7-14.4-2.5-21.8-2.5c-4.2,0-8.4,0.3-12.5,0.9c-9.1,1.4-18.3,1.5-27.5,0.4
			c-5.9-0.9-11.7-2.6-17.3-4.9c-5.5-2.3-10.9-5-16.2-7.9l-4-2.1l-0.7-0.4l0,0c-8.5-4.6-17.2-9.4-26-13.8c-4.3-1.9-8.6-3.7-13.1-5.2
			v-0.4l-1-0.2l0,0c-0.7-0.2-1.4-0.3-2.1-0.6c-9.9-3.2-20.6-3.7-30.8-1.2c-9,2.3-17.9,5.1-27.1,8.1c-25.6,8.5-52.9,10.8-79.6,6.6
			l-1.5-0.2c-5.2-1-10.5-1.5-15.8-1.6c-1.8,0-3.7,0.1-5.5,0.3c-7.3,0.5-13.9,4.4-18,10.4c-2.9,4.1-3.4,9.5-1.3,14.1
			c2.5,5.9,7.9,10.1,14.2,11c4,0.6,8,0.9,12,0.9c1.2,0,2.5,0,3.7-0.1c4.8-0.1,9.6-0.4,14.3-0.6c6.4-0.3,13.1-0.7,19.6-0.7h1.9h2.9
			c17.6,0,35.2-2.4,52.2-7.2l7.6-2.2c6.6-2,13.4-4,20.2-5.6c11.2-3,23.1-2.3,34,2v0.1c6.9,2.6,13.5,6.1,19.5,10.4
			c1.8,1.2,3.6,2.5,5.4,3.8c3.7,2.9,7.7,5.6,11.8,7.9c4,2.3,8.2,4.3,12.6,6c8.7,3.4,17.8,5.9,27.1,7.3c8.1,1.2,16.4,1,24.5-0.8
			c5.2-1.1,10.4-1.6,15.7-1.6c5.7,0,11.5,0.6,17.1,1.9c5.7,1.3,11.3,3.1,16.7,5.4c6.2,2.7,12.6,5.2,19.1,7.4c0.1,0,0.3,0.1,0.4,0.1
			H-241c1.1,0,1.6-1.4,0.7-2.1C-243.5,681.4-247.3,678.8-251.2,676.5z"/>
		<path class="st2" d="M-716.6,669.1c-4.1-1.3-8.4-1.9-12.7-1.8c-6,0.1-11.9,0.9-17.7,2.5c-6.7,1.7-13.3,3.3-19.9,4.9
			c-18.6,4.5-38.6,9-59,9.6h-0.6c-6.2,0.2-12.5,0.4-18.8,0.4c-12.3,0-22.2-0.8-31.2-2.5c-6.7-1.3-13.3-3.2-19.8-4.9l0,0
			c-2.2-0.6-4.4-1.3-6.6-1.9c-8.6-2.6-17.6-3.4-26.5-2.2c-15.5,2.6-31.1,4.2-46.7,5c-4,0.3-7.9,0.4-11.9,0.4s-7.9-0.1-11.9-0.4
			c-2.5-0.2-4.9-0.9-7.2-1.9c-2.1-1-4-2.3-5.7-3.9c-3.4-3.5-5.7-7.9-6.4-12.7c-0.7-3.5-1-7.2-1.4-10.7l0,0c-0.2-1.7-0.3-3.5-0.5-5.2
			c-0.4-5.6-2.7-11-6.5-15.1c-3.7-3.8-9.3-5.9-15.5-5.9c-4.1,0-8.1,1-11.8,2.8c-5.3,2.8-8.8,7.1-9.7,12.1c-1,5,0.6,10.1,4.5,14.7
			c1.4,1.6,2.9,3.1,4.5,4.5c0.8,0.7,1.6,1.4,2.4,2.2c3.6,3.1,7,6.5,10.1,10.1c2.1,2.5,3.3,5.6,3.5,8.7c0.3,4.1,3.6,7.4,7.7,7.4
			h313.2C-709.5,685.2-707.8,671.6-716.6,669.1"/>
		<path class="st2" d="M-976,651.2l0.8-0.1c1.7-0.1,3.3-0.3,5-0.4l22-2.3c4.2-0.2,8.4-0.6,12.5-1.3h0.1c8.6-1.9,14-6.5,15.9-13.9
			c1-4.2,0.3-8.7-1.8-12.5c-1.1-2-2.4-3.8-4-5.4c-1.6-1.6-3.5-3-5.5-4c-3.7-1.8-7.8-2.8-11.9-2.7c-2.9,0-5.8,0.4-8.6,1
			c-2.9,0.6-5.8,1.1-8.4,1.6l0,0c-6.5,1.3-13.2,2.6-19.8,4.1c-4.3,0.9-8.4,2.4-12.2,4.5c-5.9,3.3-8.8,10.2-7,16.7
			c0.6,2.3,1.7,4.4,3.2,6.3C-991,648.4-984.6,651.1-976,651.2L-976,651.2L-976,651.2L-976,651.2z"/>
		<path class="st2" d="M-82.9,461.7"/>
		<path class="st2" d="M-87.9,461.7c15.7,0.9,28.3-9.6,16.3-26.6c-1.5-2.2-3.9-3.5-6.5-4c-11.5-2-22.5-6.8-31.8-14
			c-5.2-4-10.3-7.8-15.2-11.8c-16.8-14.1-37.1-23.2-58.8-26.4c-11.3-1.7-26.1-4-41-7.3c-9.9-2.2-19.9-4.8-29.7-7.2l0,0
			c-8.6-2.2-17.5-4.5-26.4-6.5c-8.3-1.9-16.8-3.6-25-5.2c-7.1-1.4-14.5-2.9-21.8-4.5c-17.8-4-31.8-10.6-42.7-20.1
			c-3.9-3.6-7.6-7.4-11.1-11.3c-1.5-1.6-3-3.3-4.6-4.9c-5.5-6.1-12.8-10.2-20.9-11.6c-4-0.7-8-1-12.1-1.1
			c-14.1-0.1-28.2-1.5-42.1-4.3c-18-3.8-36.7-3.6-54.6,0.7c-7.6,1.8-15.2,3.2-22.9,4.5c-18.6,3.2-37.7,4.9-56.2,6.4l0,0
			c-4.5,0.4-9.3,0.8-13.9,1.2c-2.1,0.2-4.2,0.3-6.3,0.3c-4.4,0-8.7-0.4-13-1.3c-4.1-0.9-8.2-2.2-12-4c-3.9-1.8-7.6-3.9-11-6.5
			c-3.6-2.7-7-5.6-10.1-8.9c-3.6-3.8-7-8-10.3-12.1v-0.1c-0.7-0.9-1.5-1.8-2.2-2.8c-3-3.8-6.7-7.2-10.8-9.9
			c-4.1-2.6-8.7-4.3-13.6-5.1c-5.5-0.9-11.1-1.4-16.6-2l0,0c-2.3-0.2-4.6-0.4-6.9-0.7v-0.1l0,0v0.1c-2.4-0.5-4.8-1-7.1-1.5
			c-5.3-1.1-10.7-2.2-15.9-3.7c-9.2-2.7-17.7-7.6-25.8-12.3l0,0c-1.5-0.9-3.1-1.8-4.7-2.7c-4.8-2.7-9.8-5.4-14.8-7.9
			c-11.2-5.6-23.6-8.5-36.2-8.5l0,0c-5.5,0-10.9,0.6-16.3,1.7c-4.9,0.9-10.1,1.8-16.4,2.6c-11.4,1.6-23-1-32.6-7.3
			c-4-2.6-8.1-5.4-12-8.1l0,0c-3.1-2.1-6.3-4.4-9.6-6.5c-11-7.3-23.7-11.6-36.8-12.5c-4.1-0.3-8.2-1-12.2-2
			c-2.5-0.7-4.9-1.7-7.1-3.1c-1-0.6-2-1.3-2.9-2.2c-6-5.8-6.2-15.3-0.4-21.3c2.3-2.7,5.2-4.8,8.5-6.2c3.1-1.3,6.5-1.9,9.9-1.8
			c1.9,0,3.9,0.2,5.8,0.5c8.3,1.2,16,4.8,23.4,8.2l0.4,0.2c13,6.1,26.1,12.4,38.7,18.6l0,0l2.3,1.1c11.7,5.8,24.9,8.1,37.9,6.5
			c6.9-0.8,12.7-1.4,18.1-1.8c2-0.2,4-0.2,5.9-0.2c6.7,0,13.3,0.9,19.8,2.6c6.5,1.7,12.8,4.1,18.8,7.1c4,2,7.9,4,11.8,5.9l0,0
			c6.8,3.5,13.8,7.1,20.9,10.3c5.9,2.6,12.1,4.7,18.1,6.8c2.6,0.9,5.3,1.8,8,2.8h0.1c0.7,0.2,1.4,0.3,2.1,0.3v0.4
			c0.1,0,0.1,0.1,0.2,0.1h0.1l18.6,4.2c12.4,3.2,25.5,0.8,36.1-6.4c0.7-0.5,1.4-0.9,2.1-1.3l0,0c0.7-0.4,1.4-0.8,2.1-1.3
			c15.9-10.8,35.3-15.3,54.3-12.6c9.9,1.2,19.8,1.8,29.8,1.7c10.6,0,21.4-0.5,31.8-1l0,0c3.5-0.2,7.5-0.4,11.4-0.5
			c8.3-0.1,16.3-3.6,21.9-9.7c1.9-2,3.3-4.5,4.2-7.1c0.8-2.4,1.1-5,0.8-7.5c-0.6-4.9-3.4-9.3-7.5-11.9c-3.4-2.1-7.3-3.3-11.2-3.3
			c-6,0-11.8,1.4-17.2,4c-9,4.1-18.7,6.2-28.6,6.2c-2.1,0-4.2-0.1-6.3-0.3l-2.4-0.2c-4.5-0.4-9.2-0.9-13.8-1.4c-6-0.7-12-1.1-18-1.1
			c-10.5-0.1-20.9,1.4-31,4.4c-8.7,2.7-18.2,6.2-29.9,11c-14.6,6.3-31,6.8-46,1.4c-0.1,0-0.3,0-0.4-0.1c-0.3,0-0.6-0.1-0.9-0.2
			c-12.7-4.5-25.1-9.9-37-16.3l-5.1-2.6c-4.2-2.1-8.4-4.3-12.7-6.5c-6.5-3.5-13.4-6.1-20.6-7.8c-7-1.7-14.3-2.5-21.5-2.5
			c-4.5,0-8.9,0.3-13.4,0.8c-8.4,1.1-16.9,1.1-25.3,0c-9.8-1.3-18.7-4.9-28.4-9.2c-2.8-1.2-5.7-2.5-8.3-3.6
			c-8.7-3.9-17.8-7.9-26.9-11.1c-16.1-5.7-33.4-7.4-50.4-5.1c-3.3,0.4-6.6,1.2-9.7,2.5c-5.4,2.1-9.8,6.3-12.3,11.5
			c-1.4,3-2.5,6.2-3.1,9.5c-0.3,1.4-0.6,2.8-0.8,4.2l0,0c-0.5,2.8-1.1,5.7-1.8,8.4c-2.1,9.3-9,16.7-18.1,19.4
			c-2.9,1-5.9,1.8-8.9,2.4c-7.5,1.4-15.3,2.5-23.2,3.2c-7.5,0.6-15.3,1-23.3,1c-15-0.1-30-1-44.9-3c-1.7-0.2-3.3-0.5-4.9-0.7
			c-4.5-0.8-9-1.2-13.6-1.3c-2,0-4,0.1-5.9,0.4c-3.5,0.5-7,1.6-10.1,3.2c-3.2,1.7-5.9,4.2-7.9,7.1c-0.1,0.2-0.3,0.4-0.4,0.6
			c-4.3,6.5-2.5,15.2,3.9,19.5l0,0c2.6,1.9,5.6,3.3,8.8,4c3.9,0.8,7.9,1.2,11.9,1.2h2.6h0.1c5.1-0.4,10.3-0.6,15.4-0.6
			c7.8,0,15.5,0.4,23.2,1.3c17.7,2.7,35.8,1.9,53.2-2.4c8.6-2.2,17.2-4.9,25.6-7.5l0,0l6.1-1.9c9.9-3.2,20.6-3,30.4,0.6l6,2.1
			c9.7,3.5,19.7,7,29.6,10.4c12.1,3.9,22.9,11.1,31.3,20.7c2.9,3.4,6.1,6.5,9.6,9.4c6.4,5.2,14.1,7.8,23.5,7.8
			c2.2,0,4.5-0.1,6.7-0.4c8.1-0.9,16.3-2.2,24.2-3.4l0,0c3-0.5,6-0.9,9-1.4c9.1-1.6,18.3-1.6,27.4,0c5.9,1.3,11.6,3.4,16.8,6.3
			c5.3,2.9,10.2,6.3,14.7,10.3c4.4,3.9,9.3,7.2,14.5,9.9c5.2,2.6,10.9,4.3,16.7,4.9c7.7,0.6,15.6,1.5,23.2,2.3l0,0l4.6,0.5l0,0
			l2.7,0.8h0.1c2.1,0.6,4.2,1.2,6.3,1.9c6.4,2.2,12.5,5.2,18.1,9s10.9,7.9,15.9,12.4c4.6,4,9.1,8.3,13.4,12.5l0,0
			c2.5,2.4,5,4.8,7.6,7.2c7.2,6.9,16.7,10.7,26.6,10.7c0.5,0,0.9,0,1.4,0c3.7-0.1,7.5-0.3,11.2-0.6l0,0c3.4-0.2,6.9-0.5,10.4-0.6
			c28.3-0.7,56.6-4.2,84.2-10.4c12.4-3.1,25.2-4.6,38-4.6c3,0,6,0.1,9,0.3c12.5,1,26.1,2.3,41.5,4c14.7,1.6,28.6,7.4,40.2,16.7
			c1.7,1.4,3.5,2.7,5.1,4c3.2,2.5,6.4,5,9.6,7.6c16.3,13.5,36,22.3,56.9,25.4c14.1,2.1,27.8,4.6,40.7,7.5c8.5,1.9,17,4.1,25.3,6.2
			l0,0c7.9,2,16.2,4.2,24.4,6c9.9,2.2,19.9,4.2,29.6,6.1c7.5,1.5,15.2,3,22.7,4.6c7.6,1.6,15.1,3.9,22.3,6.9c3.6,1.5,7,3.3,10.4,5.3
			s6.6,4.3,9.6,6.8c5.9,5.2,11.5,10.8,16.7,16.7c6.9,7.2,13.6,11.1,21.3,12.4"/>
		<path class="st2" d="M-1066.3,149.9c3.9,0.3,7.8,0.8,11.7,1.5l0,0c3.1,0.5,6.3,1,9.5,1.3c1.5,0.1,3,0.2,4.4,0.2l0,0
			c3.6,0,7.1-0.5,10.5-1.7c3.5-1.2,6.6-3.2,9.3-5.7c2.2-2.1,3.9-4.6,5-7.4c1.9-5,0.8-10.7-2.7-14.7c-2-2.3-4.5-4-7.3-5.1
			c-1.3-0.6-2.7-1-4.2-1.2c-5.9-0.5-10.8-0.8-15.3-1c-3.4-0.1-6.8-0.1-10.1-0.1l0,0c-2.8,0-5.6,0-8.5-0.1c-4.2-0.1-8.4,1.1-11.9,3.5
			c0,0,0,0-0.1,0c-10,6.9-20,14.1-29.7,21.5c-3.5,2.7-1.6,8.2,2.8,8.1c1.5,0,3,0,4.5,0C-1089,149.1-1077.7,149.2-1066.3,149.9z"/>
		<path class="st2" d="M-792.8,289.7c-3-3-6.8-5.2-10.9-6.2c-5.5-1.3-11.2-1.4-16.6-0.1c-4.1,0.8-8.2,1.9-12.2,2.8l-4.2,1
			c-6.7,1.6-13.6,2.4-20.5,2.4c-6.1,0-12.2-0.5-18.3-1.3c-13-2.1-26.3,0.9-37.2,8.2c-3.2,2.1-6.5,4-9.9,5.8
			c-4.7,2.5-9.7,4.5-14.8,5.9c-4.9,1.3-10,2-15.1,2c-6.4,0-12.7-1-18.8-3c-3-1-6-2-9-3l0,0c-4-1.4-8.1-2.8-12.2-4.1
			c-6.2-2.1-13-1.9-19.1,0.6c-2.5,1-4.7,2.6-6.5,4.5c-3.2,3.5-4.2,8.6-2.6,13.1c0.9,2.5,2.3,4.8,4.2,6.7c3.5,3.7,8,6.3,12.9,7.7
			c6.2,1.7,12.4,3.1,18.7,4.2c10.5,2,21.2,3,31.9,3h3.3c6.7-0.3,13.3-1.3,19.8-3c6.9-1.7,13.6-4,19.2-6c8.1-3,16.4-5.6,24.8-7.8
			c6.7-1.6,13.6-2.3,20.5-2.2c4.2,0,8.4,0.2,12.6,0.3c1.7,0.1,3.7,0.2,5.5,0.2c2.7,0,5.5,0,8.2,0.1h0.1c2.7,0,5.4,0,8.1,0
			c3.1,0,5.7,0,8.2-0.1c4.5-0.1,9-0.7,13.3-1.8c4.4-1.1,8.5-3,12.2-5.7c2.6-1.8,4.8-4,6.5-6.7c0.8-1.3,1.3-2.7,1.6-4.2
			c0.3-1.6,0.4-3.2,0.2-4.9c-0.2-1.6-0.6-3.2-1.3-4.7C-790.8,292.1-791.7,290.8-792.8,289.7z"/>
		<path class="st2" d="M-1213.3,389.2c8.5,1.9,17,4.1,25.3,6.2l0,0c7.9,2.1,16.2,4.2,24.4,6c9.8,2.2,19.9,4.2,29.7,6.1
			c7.5,1.5,15.2,3,22.7,4.6c7.6,1.6,15.1,3.9,22.3,6.9c3.6,1.5,7,3.3,10.4,5.2c3.4,2,6.6,4.3,9.6,6.8c5.9,5.2,11.5,10.8,16.7,16.7
			c6.9,7.2,13.6,11.1,21.3,12.4c4.1,0.7,8.2,1.1,12.4,1.1h0.2c15.6,0,31.2,1.5,46.6,4.3c12.9,2.6,26.2,3,39.3,1.1
			c6.7-1.1,13.5-2.5,20.1-3.8l0,0l7.6-1.5c20.5-4,41.5-5.7,61.9-7.3l0,0c4.5-0.4,9.2-0.7,13.8-1.1c2-0.2,4-0.3,5.9-0.3
			c4.2,0,8.5,0.4,12.7,1.3c4,0.8,8,2.1,11.7,3.8c3.8,1.7,7.5,3.7,10.9,6.1c3.6,2.5,6.9,5.3,9.9,8.4c3.7,3.7,7.1,7.8,10.3,11.9l0,0
			c1.3,1.6,2.6,3.2,4,4.8c4.7,6,11,10.5,18.1,12.9c8.1,2.6,16.7,3.2,24.9,3.7l4.1,0.3v0.4c2.1,0.4,4.4,0.8,6.3,1.2l0,0
			c4.8,0.9,9.8,1.7,14.5,3.1c9,2.5,17.2,7.1,25.1,11.6c1.9,1.1,3.8,2.2,5.7,3.2c7.8,4.4,15.9,8.4,24.2,12c4.3,1.8,8.7,3.1,13.3,3.9
			c4.5,0.8,9,1.2,13.5,1.2c6.2,0,12.4-0.6,18.5-1.8c5.3-0.9,11.5-2,17.8-2.6c11-1.2,22.1,1.6,31.3,7.9c5.3,3.5,9.9,6.7,14.2,9.8
			c13.4,10.3,29.5,16.3,46.4,17.3c3.9,0.2,7.7,0.9,11.4,2c3.3,0.9,6.3,2.5,8.8,4.7c2.5,2.4,4,5.6,4.3,9c0.8,7-2.3,12.8-9.3,17.2
			c-6.2,3.9-13.7,4.9-20.7,2.7c-8.1-2.4-16-5.3-23.7-8.8c-13.4-6-25.6-11.9-37.1-17.8c-14.1-7.4-30.3-10-46.1-7.4
			c-6.3,1-12.7,1.5-19.2,1.6c-6.4,0.1-12.9-0.7-19.1-2.3c-9.8-2.8-19.3-6.6-28.2-11.5c-2.3-1.2-4.7-2.4-6.9-3.6
			c-10-5.3-20.4-10.7-31.4-14.4c-3.2-1.1-6.4-2-9.5-3h0.1l-4.2-1.3v0.1c-2.6-0.6-5.2-1.2-7.7-1.8h-0.1c-5.4-1.3-11.1-2.6-16.7-3.6
			c-9.6-1.7-19.4,0.3-27.6,5.5l-1.1,0.7l0,0c-2.7,1.6-5.5,3.3-8.2,4.9c-12,7.7-25.9,11.7-40.1,11.7c-2.4,0-4.8-0.1-7.1-0.3
			c-2-0.2-4.1-0.4-6.1-0.6l0,0c-4.4-0.5-9-1-13.5-1c-7.5-0.1-15.2-0.1-23.6-0.1c-8.4,0-17.3,0-27.5,0.1h-0.7c-7,0-13.8,2-19.7,5.7
			c-3.7,2.4-6.6,5.8-8.4,9.9c-1.6,3.8-1.8,8-0.6,11.9c1.2,3.6,3.5,6.7,6.7,8.8c3.4,2.2,7.3,3.4,11.4,3.4c0.7,0,1.4,0,2.1-0.1
			c5-0.7,10-1.8,14.9-3.4c2.3-0.6,4.6-1.3,6.8-2c3.6-1.2,7.2-2.2,10.9-3c3.3-0.6,6.6-0.9,10-0.9c6.2,0.1,12.3,0.7,18.4,1.8
			c20.6,3.2,41.8,1.1,61.3-6.2c2.6-1,5.2-2,7.8-3l0,0c5.4-2.1,11-4.3,16.5-6.3c8.8-3.4,18.4-4.3,27.7-2.8c3.3,0.5,6.6,1.4,9.8,2.2
			l0,0c1.5,0.4,3.1,0.8,4.6,1.1v0.5c1.4,0.5,2.8,1,4.2,1.4c3.3,1,6.4,2.3,9.5,3.7c9.8,4.6,19.6,9.5,29.1,14.2l0,0l0.3,0.1l10.3,5.1
			c9.8,5.2,20.5,8.7,31.5,10.3c3.5,0.3,7.1,0.5,10.6,0.5c5.5,0,11.1-0.4,16.6-1.2c16.3-2,32.8,0.6,47.7,7.5
			c9.4,4.4,19.4,8.9,29.4,13.1c15.1,6.4,31.4,9.7,47.8,9.7c2,0,4.1,0,6.1-0.2c3-0.1,6-0.5,8.9-1c7-1.2,12.3-3.7,16.1-7.5
			s6.3-9,7.5-16.1c0.2-1,0.4-2.1,0.6-3.1l0,0c0.7-3.7,1.3-7.5,2.4-11.2c2-7.9,7.7-14.3,15.3-17.2c4.6-1.8,9.3-3.1,14.1-4
			c12.3-2.3,24.9-3.4,37.4-3.3c14.7,0,29.5,1.3,41.9,2.5c3.3,0.3,6.5,0.8,9.7,1.2l0,0c4.5,0.6,9.2,1.3,13.9,1.5c0.2,0,0.4,0,0.7,0
			h0.9c4.3,0,8.6-0.6,12.7-1.7c3-0.9,5.9-2.4,8.3-4.4c2.5-1.9,4.5-4.3,5.8-7.2c1.1-2.5,1.5-5.2,1.2-7.8c-0.4-2.7-1.6-5.2-3.4-7.3
			c-2.1-2.4-4.8-4.2-7.7-5.3c-5.7-2.1-11.9-2.9-18-2.2c-5.3,0.5-10.7,0.7-16,0.7c-8.7,0-17.4-0.6-26.1-1.9
			c-15.6-2.6-31.6-2.1-46.9,1.6c-9.7,2.3-19.3,5.2-28.7,8.5c-13.1,5-27.6,4.8-40.6-0.5c-5.2-2.1-10.6-3.9-15.8-5.6
			c-4.2-1.4-8.6-2.9-12.9-4.5c-6.2-2.3-12.2-4.9-18-7.9c-7.1-3.7-12.5-9.6-18.3-16.3c-3.9-4.6-8.7-8.3-14.1-10.9
			c-5.3-2.4-11-3.6-16.8-3.5c-2,0-4,0.1-5.9,0.4c-9,1.1-18.2,2.5-27,3.8h-0.3c-3.4,0.5-6.8,1-10.2,1.5c-3.7,0.6-7.4,0.8-11.1,0.8
			c-6.7,0-13.3-1-19.7-3.1c-6.5-2.2-12.6-5.4-18.1-9.5c-3.6-2.7-6.8-5.2-9.7-7.7c-8.6-7.4-19.2-11.8-30.5-12.7
			c-5.8-0.5-11.7-1.2-17.4-1.9h-0.1c-2.4-0.3-4.9-0.6-7.4-0.9v0.1c-13.1-2.8-25.3-8.8-35.5-17.5c-4.6-3.8-9.1-7.9-13.4-11.9
			c-3.3-3-6.8-6.1-10.2-9.1c-4.3-4-8.8-7.6-13.6-10.9c-2.9-1.9-6.2-3.2-9.6-4c-3.4-0.7-6.8-1.1-10.2-1c-1.6,0-3.2,0.1-5.1,0.2
			c-3,0.2-5.9,0.4-8.8,0.6c-5.2,0.4-10.7,0.8-16,0.9c-22.5,0.6-44.9,3.3-66.9,8.1c-13.9,3-28.7,5.9-43.7,5.9c-2.6,0-5.2-0.1-7.7-0.3
			c-14.5-1-30-2.4-47.3-4.3c-13.1-1.5-25.5-6.5-35.9-14.6c-5.2-4-10.3-7.8-15.2-11.8c-16.8-14.1-37.1-23.2-58.8-26.4
			c-11.3-1.7-26.1-4-41-7.3c-9.9-2.2-19.9-4.8-29.7-7.3l0,0c-8.6-2.2-17.6-4.5-26.4-6.5c-8.3-1.9-16.8-3.6-25-5.2
			c-7.2-1.4-14.5-2.9-21.8-4.5c-5.3-1.1-10.6-2.7-15.7-4.5c-4.3-1.6-9.1,0.1-11.4,4.1c-2.1,3.8-4.2,7.6-6.3,11.4
			c-2.5,4.6-0.6,10.5,4.1,12.8c10.5,5.1,21.8,8.6,33.4,10.3C-1239.9,383.8-1226.2,386.3-1213.3,389.2z"/>
		<path class="st2" d="M-1120.7,280.1L-1120.7,280.1c18.3,2,37.1,4,55.5,7.8c2.8,0.6,5.6,0.8,8.4,0.9l0,0c7.6,0,15.1-2.1,21.7-6.1
			c0.8-0.5,1.6-0.9,2.3-1.3c1.2-0.7,2.5-1.4,3.7-2.2c5.3-3.4,11.1-6,17.1-7.9c5.7-1.8,11.5-2.7,17.5-2.7c4.4,0,8.9,0.5,13.2,1.5
			c4.6,1,9.1,2.5,13.4,4.5c4.9,2.1,9.9,3.7,15,4.9c6.6,1.9,13.6,1.1,19.6-2.2c4.3-2.4,7-6.1,7.6-10.2c0.6-4.2-0.9-8.4-4.3-11.9
			c-1.7-1.9-3.8-3.4-6-4.5c-3.6-1.9-7.4-3.3-11.3-4.3c-10.4-2.4-20.6-4.5-31.9-6.8c-12.3-2.5-25.1-1.7-37.1,2.3
			c-5.8,1.9-11.5,3.7-17.1,5.8c-14.5,5.8-30.2,7.7-45.6,5.8l-1.2-0.2c-10.6-1.4-21.6-2.9-32.5-3.4c-20.1-0.6-39.8-6.2-57.3-16.2
			c-0.1,0-0.2-0.1-0.3-0.1c-13.5-7.4-30.4-4.1-40.4,7.6c-1,1.1-1.9,2.3-2.9,3.4c-3.7,4.5-1.4,11.3,4.3,12.5
			c15.5,3.3,30.7,7.7,45.6,13.1C-1149.8,275-1135.4,278.4-1120.7,280.1z"/>
		<path class="st2" d="M-1242.9,316.7L-1242.9,316.7c17.4,3.8,35.4,7.8,52.9,12.4c29,7.7,60.2,15.2,92.3,18.4c12.2,1,24,5.2,34,12.2
			c6,4.3,11.8,8.8,17.3,13.7c20,17.9,45.6,28.2,72.4,29.2c4.2,0.2,8.5,0.3,12.8,0.3l0,0c19.3,0,38.5-2.4,57.3-7
			c10.4-2.6,19.5-4.4,27.9-5.7c9.4-1.5,18.8-2.2,28.3-2.3c1.8,0,3.5,0,5.2,0.1c6.1,0.2,12.2,0.5,18.2,0.8c3.1,0.1,6.6,0.3,10,0.5
			c1,0.1,2,0.1,2.9,0.1c12.1,0,23.6-5.4,31.4-14.7c0.8-0.9,1.6-1.8,2.4-2.7l0,0c2.7-3.1,5.5-6.4,8.6-9.3c3.6-3.6,7.6-6.8,11.9-9.7
			c4.8-3.2,10.4-4.9,16.1-5c5.9,0,11.9,2,17.7,6.1c1.6,1,3.1,2.2,4.5,3.3h0.1l2.2,1.7v1c0.5,0.4,0.9,0.8,1.4,1.2
			c0.9,0.7,1.7,1.5,2.6,2.1c1.3,1,2.6,2.1,3.9,3.1c2.9,2.6,6.1,4.9,9.5,6.8c8.5,4.7,19,3.1,25.7-3.9c5.8-5.5,6.6-14.5,1.7-20.8
			c-2-2.7-4.5-5.1-7.3-7c-4-2.5-8.1-4.7-12.4-6.7c-8-4-16.2-7.8-24.1-11.5l0,0l-0.9-0.4v-0.6l-2.9-1c-2-0.7-4-1.5-5.8-2.3
			c-4.1-1.7-8.3-3.3-12.6-4.5c-3.2-0.9-6.4-1.4-9.7-1.4c-8.7,0-16.5,3.7-23.2,11c-1.6,1.7-3.1,3.5-4.6,5.2v0.1
			c-1.6,1.9-3.3,3.8-5,5.6c-4.5,5-9.7,9.4-15.3,13.1c-2.8,1.8-5.8,3.4-8.8,4.6c-3.2,1.3-6.4,2.4-9.8,3.1c-8.5,1.5-17.2,1.6-25.7,0.5
			c-17.5-2-35.2-0.6-52.1,3.9c-8.8,2.4-18.3,5-27.8,7.2c-23.3,5.8-47.7,6.3-71.2,1.3c-4.3-0.9-8.5-2.2-12.6-3.7
			c-4.1-1.4-8-3.2-11.8-5.3c-7.6-4.3-14.4-9.9-20-16.6c-1-1.1-1.9-2.2-2.9-3.5l0,0c-1.8-2.2-3.8-4.5-5.7-6.8
			c-5.6-6.8-13.3-11.3-21.9-13c-7-1.2-13.9-2-21-2.8c-13.3-1.2-26.8-3-39.9-5.3s-26.4-5.3-39.3-8.8c-19.3-5.5-35.5-9.8-50.8-13.4
			c-0.9-0.2-1.8-0.4-2.7-0.6c-14.9-3.3-30.4,2.8-38.9,15.5c0,0.1-0.1,0.1-0.1,0.2c0,0,0,0,0,0.1c-2.3,3.4-0.4,8,3.6,8.9
			C-1251.3,314.8-1247.1,315.7-1242.9,316.7L-1242.9,316.7z"/>
	</g>
	<g id="Layer_1_2_">
		<path class="st2" d="M1358.3,688H0c0.1-46.6,4.8-93,14-138.7c35.6-175.6,138.1-330.4,285.8-431.8c228.6-156.8,530.1-156.8,758.7,0
			c147.7,101.4,250.1,256.2,285.8,431.8C1353.6,595,1358.2,641.4,1358.3,688z"/>
	</g>
</g>
</svg>
