<svg xmlns="http://www.w3.org/2000/svg" viewBox="0 0 1370.99 694.31">
  <defs>
    <style>
      .fill__extraction {
        fill: #82a6a2;
      }
    </style>
  </defs>
  <path class="fill__extraction" d="M1059.75,124.72a34.85,34.85,0,0,0,9.22,3.07,150.31,150.31,0,0,0,15.41,1.85l4.45.37c-2-1.38-4-2.77-5.95-4.12-11.7-8-23.84-15.77-36.06-23.06a33.85,33.85,0,0,0,1.9,9.44A22.22,22.22,0,0,0,1059.75,124.72Z" transform="translate(-14.51 -7.35)"/>
  <path class="fill__extraction" d="M947.81,150.53a16.31,16.31,0,0,0,7.79-10.37,17,17,0,0,0-1-11,21.13,21.13,0,0,0-7.84-9A27.24,27.24,0,0,0,936.34,116a74.4,74.4,0,0,0-12.2-.93l-2.21.18h-.07c-2.12.16-4.76.36-7.38.7a31.77,31.77,0,0,0-15.37,5.5c-6,4.41-8.64,10-7.84,16.73a23,23,0,0,0,19.29,20,49.12,49.12,0,0,0,8.64.76,50.43,50.43,0,0,0,14.73-2.23A63.14,63.14,0,0,0,947.81,150.53Z" transform="translate(-14.51 -7.35)"/>
  <path class="fill__extraction" d="M992,171.3q-.94,0-1.89,0a97.67,97.67,0,0,0-26.43,3.87,190.87,190.87,0,0,0-25,9.24,34.38,34.38,0,0,0-20.08,23.49c-1,3.6-2.21,7.78-3.54,11.8a28.4,28.4,0,0,1-20.87,19.4,47.62,47.62,0,0,1-7.46,1.59c-17.63,1.86-35.86,3.79-53.9,5.47a135.5,135.5,0,0,1-32,0c-3.88-.56-7.79-1.31-11.57-2-3.11-.6-6.34-1.21-9.52-1.72a51.15,51.15,0,0,0-8-.69,28.37,28.37,0,0,0-13.41,3c-4.91,2.53-8.07,6.42-8.9,11s.76,9.35,4.48,13.46a32.57,32.57,0,0,0,17,9.4,81.06,81.06,0,0,0,17.77,2c2,0,4-.07,6-.22l3.61-.19h0c14.12-.73,28.73-1.5,43.06-2.5,10.92-.74,20.4-1.8,29-3.23a179.65,179.65,0,0,0,28.35-7,55.59,55.59,0,0,1,39.26.55,109.2,109.2,0,0,0,24.64,6.31,207.43,207.43,0,0,0,25.39,1.84c1,.05,2.08.08,3.12.08A63.75,63.75,0,0,0,1027.21,265a69.71,69.71,0,0,1,18.39-9.22,63.47,63.47,0,0,1,19.49-3,75.75,75.75,0,0,1,18.47,2.38l.65.17h0c10,2.51,20.45,5.11,30.8,7A346.63,346.63,0,0,1,1174.43,278a186.21,186.21,0,0,0,43.48,10.31h.09c11.68,1.27,23.77,2.58,35.6,4.33h0c-8.6-11.92-17.7-23.73-27-35.1l-.65,0a124.92,124.92,0,0,1-57.94-16.4,63.21,63.21,0,0,0-30.67-8,185.33,185.33,0,0,1-38.72-5.24c-8.69-2.06-16.75-3.68-24.62-4.93a70,70,0,0,0-10.91-.85,81.19,81.19,0,0,0-17.57,2,117.08,117.08,0,0,0-17.08,5.27,292.4,292.4,0,0,1-58.49,16.3,59.42,59.42,0,0,1-9.69.92,28.72,28.72,0,0,1-12.09-2.41,18.27,18.27,0,0,1-5.87-4.11,14.09,14.09,0,0,1-3.75-11.91,18.21,18.21,0,0,1,2.45-6.72,23.72,23.72,0,0,1,3.49-4.44,33.21,33.21,0,0,1,20.11-9.46c4.89-.67,9.89-1.1,14.72-1.52h0c2.64-.23,5.37-.46,8-.73,13.51-1.38,26.41-5.59,38.89-9.66,4.79-1.57,10.46-3.35,16.2-4.62a75.67,75.67,0,0,1,16.56-2,57.63,57.63,0,0,1,7.54.49c8.47,1.07,17,2.87,25.22,4.61l.25,0c1.4.3,2.84.61,4.26.9,4.27.89,8.58,1.9,12.75,2.88,6.85,1.61,13.94,3.27,20.94,4.42a39.71,39.71,0,0,0,6.44.55,28.41,28.41,0,0,0,7.56-1,22.9,22.9,0,0,0,6.44-2.94,25.64,25.64,0,0,0,5.37-4.87,35.89,35.89,0,0,0,4.37-6.79c-7.19-6.61-14.62-13.15-22.09-19.45a27.53,27.53,0,0,1-4.83,2.09,24.93,24.93,0,0,1-8,1.24c-4.07,0-8.4-.83-14-2.71a302.29,302.29,0,0,0-38.66-9.92l-.93-.19c-5.94-1.17-12.08-2.39-18.25-2.39a42.17,42.17,0,0,0-5.72.38,73.47,73.47,0,0,0-20.25,6.74,80.51,80.51,0,0,1-35.32,8.16Z" transform="translate(-14.51 -7.35)"/>
  <path class="fill__extraction" d="M630.74,66.9h0a22.61,22.61,0,0,0,3.93-.35,20.58,20.58,0,0,0,11-4.86,23.47,23.47,0,0,0,6.48-10.14,125,125,0,0,0,3-14.2v-.08c-.32-1.33-.58-2.72-.83-4.07a39.53,39.53,0,0,0-2.29-8.63,20.17,20.17,0,0,0-17.44-12.7,24.61,24.61,0,0,0-3.21-.22h0a23.86,23.86,0,0,0-19.7,10.41,30.86,30.86,0,0,0,.53,35.15A22.46,22.46,0,0,0,630.74,66.9Z" transform="translate(-14.51 -7.35)"/>
  <path class="fill__extraction" d="M680.64,26.24v.56a27.57,27.57,0,0,0,12.05,2.64h0a46.43,46.43,0,0,0,12.6-2c2.87-.81,5.79-1.67,8.62-2.5l.1,0c6.36-1.86,12.94-3.79,19.48-5.36a299.21,299.21,0,0,1,43.87-7.68l.7-.06A683.44,683.44,0,0,0,700,7.35c-9.46,0-19.06.2-28.54.59a16.35,16.35,0,0,0-.33,3.69A15.85,15.85,0,0,0,680.64,26.24Z" transform="translate(-14.51 -7.35)"/>
  <path class="fill__extraction" d="M672.47,88.46a24.82,24.82,0,0,0,8.18,4.8v.06a30.46,30.46,0,0,0,15.09,1.85,206.29,206.29,0,0,0,23.89-4.59A416.69,416.69,0,0,1,762.7,81.2a278.85,278.85,0,0,1,43.85-3.62c3.64,0,7.3.08,10.89.24,10,.43,17.73,1.05,24.91,2a141.21,141.21,0,0,1,24.37,5.29,79.23,79.23,0,0,0,37.94,2.62,182.2,182.2,0,0,1,21.85-2.5c5.47-.35,11-.53,16.52-.53,4.3,0,8.67.11,13,.32,12.55.8,20.51,8.35,22.42,21.24.49,3.34.71,6.77.92,10.1h0c.11,1.76.23,3.58.38,5.37.91,10.31,6.43,17.82,14.76,20.09a25.64,25.64,0,0,0,7.28,1h0a25.64,25.64,0,0,0,13.6-3.89,19.68,19.68,0,0,0,5.6-5,15.72,15.72,0,0,0,2.82-6.16,15.35,15.35,0,0,0-.1-6.61,19.23,19.23,0,0,0-3.06-6.68,104.6,104.6,0,0,0-9-9.68,85.15,85.15,0,0,1-9.31-10.41,16.11,16.11,0,0,1-2.73-8.3,15.19,15.19,0,0,1,2-8c-11.51-5.73-23.29-11.19-35-16.22-4.57-2-9.22-3.89-13.84-5.75a190.45,190.45,0,0,0-23.38-1.44c-5.52,0-11.1.24-16.59.72-4.11.26-8.28.38-12.39.38a203.42,203.42,0,0,1-41.25-4.23,308.76,308.76,0,0,0-60.87-6.07c-5.89,0-11.87.17-17.77.51a201.63,201.63,0,0,0-41.33,7.64c-4.15,1.18-8.85,2.51-13.56,3.48a68.39,68.39,0,0,1-13.9,1.58c-.85,0-1.7,0-2.53-.06-2.1-.11-4.22-.32-6.28-.53h0a84,84,0,0,0-8.69-.59,78.23,78.23,0,0,0-9.3.74c-1.37.17-2.79.34-4.2.47h0a22.88,22.88,0,0,0-6.79,3.48,18.4,18.4,0,0,0-4.68,5.11,16.15,16.15,0,0,0-2.24,6.23,16.52,16.52,0,0,0,.52,6.85A17.58,17.58,0,0,0,672.47,88.46Z" transform="translate(-14.51 -7.35)"/>
  <path class="fill__extraction" d="M551,56.86a35.59,35.59,0,0,0,15.59,3.92h0a20.41,20.41,0,0,0,13.38-4.6A18.87,18.87,0,0,0,586.39,44a21.72,21.72,0,0,0-16.93-23.49l-1.43-.3c-2,.4-4,.81-6,1.23a672.4,672.4,0,0,0-67.8,17.8A247.38,247.38,0,0,1,523.14,46,177.53,177.53,0,0,1,551,56.86Z" transform="translate(-14.51 -7.35)"/>
  <path class="fill__extraction" d="M1313,503h-.24a52.86,52.86,0,0,0-28.09,8.76c-1.22.79-2.48,1.55-3.69,2.3s-2.43,1.48-3.62,2.24a62.26,62.26,0,0,1-50,8.28c-3.45-.82-7-1.67-10.34-2.49h0c-10.18-2.47-20.7-5-31.17-6.92a318.08,318.08,0,0,1-50.74-13A210.15,210.15,0,0,0,1089.65,491l-6.65-.81h0c-16.21-2-33-4-49.26-7.6a43.3,43.3,0,0,0-32.61,5.54c-1.61,1-3.28,1.88-4.9,2.77l0,0c-1.14.62-2.31,1.26-3.45,1.92a69.66,69.66,0,0,1-15.53,6.65,58.24,58.24,0,0,1-15.86,2.23,59.83,59.83,0,0,1-11.78-1.2,69.72,69.72,0,0,1-12-3.61,153,153,0,0,0-17.24-5.79,27.42,27.42,0,0,0-19.5,1.29,17.7,17.7,0,0,0-6.22,4.76,12.66,12.66,0,0,0-2,12.88,18.07,18.07,0,0,0,4.47,6.49,28.26,28.26,0,0,0,13.1,7c10,2.31,20.13,4.46,30,6.53l4.94,1.05a73.06,73.06,0,0,0,38.4-2.26c7.32-2.39,14.74-5,21.66-7.4a87.26,87.26,0,0,1,41-4c13.67,1.81,27.21,3.2,43.32,4.72a109,109,0,0,1,40.29,11.29c3.71,1.91,7.5,3.74,11.17,5.5l.1,0a53.56,53.56,0,0,0,19.34,5.42c2.93.22,5.9.35,8.77.46h0a132.32,132.32,0,0,1,15.53,1.25c11.59,1.85,23.25,4.56,34.53,7.18h0l.38.09c7.12,1.66,16.53,3.56,26.16,3.56a68.61,68.61,0,0,0,10.52-.79,137.39,137.39,0,0,0,29.43-8.81,272.58,272.58,0,0,1,55.78-15,55,55,0,0,1,9-.83,29.48,29.48,0,0,1,12.32,2.48,19.73,19.73,0,0,1,2.77,1.54c-2.41-9.86-5.06-19.81-7.9-29.58-1.22-.3-2.45-.58-3.67-.83-10.3-2.13-20.64-2.4-28.5-2.4C1321.28,502.85,1317,502.94,1313,503Z" transform="translate(-14.51 -7.35)"/>
  <path class="fill__extraction" d="M791.78,485.62c5.72-1.55,10.45-2.63,14.88-3.4a88.36,88.36,0,0,1,15.14-1.39c1.43,0,2.85,0,4.24.13,4.86.29,10.61.67,16.44,1.32a50.11,50.11,0,0,0,34.65-7.63c2.48-1.64,5.1-3.16,7.63-4.63l1-.59a64.85,64.85,0,0,1,34-9.62h.86a78.77,78.77,0,0,1,25.11,5.58A153.22,153.22,0,0,0,961,470.26a27.12,27.12,0,0,0,17.64-1.06,17.53,17.53,0,0,0,6.41-4.55,13.23,13.23,0,0,0,2.67-13,17.63,17.63,0,0,0-4.11-6.72,32,32,0,0,0-12.22-7.72c-8.36-3.13-17.28-4.32-25.9-5.48l-1.78-.24a167,167,0,0,0-22.57-1.72,99.21,99.21,0,0,0-17.63,1.49c-8.74,1.58-17.19,4.53-25.36,7.39l-.2.07-4.83,1.67a232.12,232.12,0,0,1-23.82,7,81.49,81.49,0,0,1-18.3,1.77c-4.69,0-9.46-.24-14.08-.48l-3.45-.17v.08c-2.39,0-4.83,0-7.19-.07h-.08c-2.36,0-4.79-.07-7.18-.07-2.69,0-5,.05-7.21.15a127,127,0,0,0-18.74,2.48,28.56,28.56,0,0,0-16.1,9.37,15.54,15.54,0,0,0-1.45,1.79,14.84,14.84,0,0,0,3.83,20.63,25.8,25.8,0,0,0,14.41,5.09c.73,0,1.47.05,2.2.05h0A54.18,54.18,0,0,0,791.78,485.62Z" transform="translate(-14.51 -7.35)"/>
  <path class="fill__extraction" d="M1348.19,631.69a14.82,14.82,0,0,0-7.09,16.84,17.49,17.49,0,0,0,3.24,6.37c4.71,5.77,11.17,8.58,19.76,8.58h.11v.08h0l.83-.07c1.73-.14,3.36-.27,5.06-.44l14.19-1.5c-.75-12.85-1.86-25.84-3.3-38.62l-.4.08c-6.57,1.27-13.36,2.58-20,4.11A42.94,42.94,0,0,0,1348.19,631.69Z" transform="translate(-14.51 -7.35)"/>
  <path class="fill__extraction" d="M682.51,448.4l0,0c1.34.6,2.73,1.21,4.09,1.73l3.53,1.33c3.86,1.46,7.84,3,11.78,4a37.26,37.26,0,0,0,9.57,1.33,28.71,28.71,0,0,0,11.69-2.42,32.81,32.81,0,0,0,10.34-7.39c3.13-3.23,6.2-6.74,8.92-9.83h0A84.66,84.66,0,0,1,758,423a57.76,57.76,0,0,1,19.21-8.77,76.71,76.71,0,0,1,27.19-.91,147.76,147.76,0,0,0,58.24-5.2c7.62-2.2,15.38-4.26,23.07-6.11a161.29,161.29,0,0,1,69.85-2.26,96.56,96.56,0,0,1,15,4.16,81.87,81.87,0,0,1,13.63,6.5,76.74,76.74,0,0,1,12.11,9,80.18,80.18,0,0,1,10.48,11.69c1.43,1.88,3,3.79,4.63,5.64l.4.47a37.74,37.74,0,0,0,21.64,12.84c6,1.14,12.43,2.06,21,3,14.61,1.56,26.62,3.17,37.82,5.05a359,359,0,0,1,37.25,8.19l7.91,2.23h0c16.74,4.74,34.06,9.64,51.49,12.85a222.71,222.71,0,0,1,39.57,11,82.63,82.63,0,0,0,13,3.75,35.85,35.85,0,0,0,6.77.71h0a24.55,24.55,0,0,0,7.07-1,22.15,22.15,0,0,0,6.64-3.33,13.29,13.29,0,0,0,4-18.09,19.4,19.4,0,0,0-9.44-8.73,117.83,117.83,0,0,0-18.1-6.11c-9.9-2.31-20-4.51-29.77-6.65-15.38-3.35-31.29-6.83-46.81-10.79l-.29-.08h0c-15.71-4-32-8.12-48-11.59a454.45,454.45,0,0,0-48.77-8.06A73.24,73.24,0,0,1,1025,405.27l-12.88-10.67a151,151,0,0,0-17.36-12.73,90.86,90.86,0,0,0-19.44-9.22,131.11,131.11,0,0,0-23.55-5.39,177,177,0,0,0-23.91-1.53c-6.19,0-12.74.27-20,.81A184.08,184.08,0,0,0,886,369.65c-7.08,1.41-14.21,3.12-21.5,4.89a224.24,224.24,0,0,1-55,6.85c-4.47,0-9-.14-13.46-.41-6.07-.38-13.14-.81-20.15-.89-.4,0-.8,0-1.2,0a38.69,38.69,0,0,0-28.53,12.55c-1.27,1.33-2.51,2.74-3.71,4.09-1.74,2-3.53,4-5.46,5.87a134,134,0,0,1-14.82,13.25,30,30,0,0,1-17.39,5.89c-6.24,0-12.42-2.15-18.39-6.4-2.07-1.49-4.09-3.18-6-4.77V410l-.86-.7-.06,0h0c-.8-.64-1.62-1.31-2.41-2-1.19-1-2.36-2.08-3.5-3.11-2.14-1.93-4.36-3.93-6.68-5.67a23.29,23.29,0,0,0-22-3.67,21.12,21.12,0,0,0-8.45,5.14,17.17,17.17,0,0,0-4.51,8.78,15.47,15.47,0,0,0,.94,9.52,20.36,20.36,0,0,0,6,7.36,56.72,56.72,0,0,0,10.18,6.5c6.62,3.33,13.43,6.56,20,9.69h0l.07,0,8,3.84c.7.32,1.43.59,2.14.85l1.25.47v.54Z" transform="translate(-14.51 -7.35)"/>
  <path class="fill__extraction" d="M1211.31,320.57c-13.31-2.37-26.69-5.37-39.74-8.9-19.53-5.57-35.87-9.86-51.42-13.52a348.05,348.05,0,0,1-42.38-11.94,71.54,71.54,0,0,0-14.27-3.44,22.93,22.93,0,0,0-17.14,3.81c-.33.21-.65.44-1,.68a13.4,13.4,0,0,0-2.44,18.8,26.24,26.24,0,0,0,4.91,5.13,35.58,35.58,0,0,0,9.94,5.37,89.19,89.19,0,0,0,10.89,3c8.56,2,17.25,3.89,25.66,5.76,17.59,3.88,35.77,7.9,53.49,12.58,29.31,7.76,60.9,15.4,93.33,18.65a70.38,70.38,0,0,1,34.4,12.37,216.2,216.2,0,0,1,17.53,13.81,116.51,116.51,0,0,0,23.7,16.4A702.34,702.34,0,0,0,1279,330.38a38.18,38.18,0,0,0-6-1.66c-7-1.24-14.07-2-21.24-2.79C1238.22,324.75,1224.63,322.94,1211.31,320.57Z" transform="translate(-14.51 -7.35)"/>
  <path class="fill__extraction" d="M1186.74,218.88a24,24,0,0,0,8.86,4.08l.64.12h0c-3.92-4.18-8-8.36-12-12.43l-3.92-3.93A14.24,14.24,0,0,0,1186.74,218.88Z" transform="translate(-14.51 -7.35)"/>
  <path class="fill__extraction" d="M87.55,450.05c6,1.14,12.43,2.06,21,3,14.61,1.56,26.62,3.17,37.82,5.05a359,359,0,0,1,37.25,8.19l7.86,2.22h0c16.74,4.75,34.06,9.64,51.5,12.85a223.33,223.33,0,0,1,39.57,11,82.63,82.63,0,0,0,13,3.75,35.85,35.85,0,0,0,6.77.71,24.46,24.46,0,0,0,7.07-1A21.78,21.78,0,0,0,316,492.5a13.29,13.29,0,0,0,4-18.1,19.39,19.39,0,0,0-9.44-8.72,116.65,116.65,0,0,0-18.09-6.11c-9.88-2.3-19.95-4.5-29.69-6.63l-.1,0c-15.38-3.36-31.28-6.83-46.8-10.8l-.29-.07h0c-15.71-4-32-8.12-48-11.59a454.45,454.45,0,0,0-48.77-8.06A73.29,73.29,0,0,1,79.92,406c-3.88,8.34-7.64,16.85-11.18,25.31-.85,2-1.71,4.11-2.56,6.19A37.72,37.72,0,0,0,87.55,450.05Z" transform="translate(-14.51 -7.35)"/>
  <path class="fill__extraction" d="M374.66,608.14c17.34-4.49,34.78-9.43,51.84-14.69a26.14,26.14,0,0,0,12.1-7.7,33.07,33.07,0,0,0,6.75-12.84c.93-3.25,2-7.1,2.81-11a36,36,0,0,1,3.32-8.92,27.93,27.93,0,0,1,5.23-6.9,28.63,28.63,0,0,1,7.14-4.91,50.9,50.9,0,0,1,12.88-3.7l11.54-1.13h.12c14.23-1.39,28.94-2.83,43.51-4.07,4.12-.41,8.31-.62,12.45-.62a125.08,125.08,0,0,1,22.19,2l3.66.72h0c4.42.87,9,1.78,13.53,2.35a47.13,47.13,0,0,0,5.93.4,29.6,29.6,0,0,0,8.48-1.14A23.06,23.06,0,0,0,606,532a13.82,13.82,0,0,0,4.22-17.32A23.33,23.33,0,0,0,599.34,504a45.43,45.43,0,0,0-21.15-5.22l-1.7,0c-19.56.45-36.7,1.12-52.39,2a295.82,295.82,0,0,0-30,3.09A179.91,179.91,0,0,0,464.8,511a57,57,0,0,1-38.84-.61,132,132,0,0,0-18-5.13c-10.3-2.13-20.64-2.4-28.5-2.4-4.18,0-8.41.08-12.51.17h-.24a53,53,0,0,0-28.09,8.77c-1.21.78-2.47,1.55-3.69,2.29s-2.42,1.48-3.62,2.25a62.26,62.26,0,0,1-50,8.27c-3.4-.8-6.86-1.64-10.21-2.45l-.12,0h0c-10.18-2.47-20.71-5-31.19-6.93a317,317,0,0,1-50.74-13A210.15,210.15,0,0,0,143.68,491l-6.67-.81c-16.22-2-33-4-49.27-7.6a43.3,43.3,0,0,0-32.61,5.54c-1.62,1-3.3,1.89-4.93,2.79-1.07.58-2.28,1.25-3.45,1.92l-.5.29c-3.72,11.93-7.16,24.12-10.23,36.25l1.46-.47c6.91-2.26,13.66-4.59,21.66-7.4a87.27,87.27,0,0,1,41-4c13.67,1.81,27.21,3.2,43.33,4.72a109.12,109.12,0,0,1,40.29,11.29c3.72,1.91,7.54,3.75,11.24,5.53l0,0a53.46,53.46,0,0,0,19.33,5.42c2.93.22,5.9.34,8.77.46h0a132.49,132.49,0,0,1,15.54,1.25c11.59,1.85,23.25,4.56,34.53,7.19h0l.36.08c7.13,1.66,16.53,3.56,26.16,3.56a68.61,68.61,0,0,0,10.52-.79,137.37,137.37,0,0,0,29.43-8.8,271.94,271.94,0,0,1,55.78-15,55.14,55.14,0,0,1,9-.83,29.31,29.31,0,0,1,12.31,2.48,16.29,16.29,0,0,1,7.67,6.79,14.68,14.68,0,0,1,1.5,9.92,18.93,18.93,0,0,1-5.56,10,30.71,30.71,0,0,1-10.84,7A46.12,46.12,0,0,1,397,570.61a235.48,235.48,0,0,0-48.33,8.92c-9.2,2.88-18.38,5.51-26.92,7.93a76.6,76.6,0,0,1-41.13.53c-4.5-1.2-9.08-2.44-13.5-3.65h-.05c-6.14-1.67-12.5-3.39-18.79-5-7.25-1.9-14.74-3.87-22.48-3.87l-1.24,0A26.57,26.57,0,0,0,211,579.22a24.9,24.9,0,0,0-9.14,10.71c-1.24,2.57-2.3,5.28-3.32,7.89v0c-.76,2-1.56,4-2.42,5.94a27.19,27.19,0,0,1-19.28,16.51,81.84,81.84,0,0,1-14.61,2c-10.81.54-21.82.86-32.73,1h-2.13c-3.66,0-7.44.07-11.18.07-8.12,0-14.34-.17-20.17-.56a144.35,144.35,0,0,1-15.5-2.13c-3.21-.55-6.53-1.13-9.81-1.56a54.11,54.11,0,0,0-6.85-.47c-7.15,0-13,1.77-17.87,5.4-6.83,5.14-9.5,11-8.15,18a14.25,14.25,0,0,0,5,8.69,23.58,23.58,0,0,0,9,4.23,7.91,7.91,0,0,0,1.67.37,124.71,124.71,0,0,0,13.25.71c3.13-.14,6.31-.22,9.44-.22a201.86,201.86,0,0,1,22.53,1.26,106.19,106.19,0,0,0,29.47-.63c17-2.82,29.93-5.06,42-7.28a45.55,45.55,0,0,1,38.07,8.93c2.33,1.83,4.8,3.58,7.19,5.27h0l.06,0,2.48,1.77a75.07,75.07,0,0,0,32.46,14.08c4.08.63,8.41,1.32,12.61,2.2a29.64,29.64,0,0,1,17.22,9.78A20.77,20.77,0,0,1,285,701.65h24.55a29.1,29.1,0,0,1-2.52-8.4c-.42-2.76-.7-5.58-1-8.31-.29-3-.58-6.05-1.07-9.06-1.78-12.19-8.59-20-20.24-23.09-3.89-1.06-7.9-1.84-11.31-2.46-4.66-.83-9.37-1.63-13.93-2.4-7.52-1.27-15.29-2.58-22.91-4.06A31.62,31.62,0,0,1,218.83,635c-.13-.13-.25-.26-.37-.4a15.59,15.59,0,0,1,1-22A22,22,0,0,1,230.32,607a27.86,27.86,0,0,1,5.47-.52,34.23,34.23,0,0,1,7.87,1,58.69,58.69,0,0,1,7.61,2.36c2.56,1,5.2,2,7.54,2.92h0c5.06,2,10.29,4,15.51,5.74a177.94,177.94,0,0,0,18.73,5.22,39,39,0,0,0,8.13.86,43.43,43.43,0,0,0,10.59-1.36,63.3,63.3,0,0,0,10.29-3.58,105.9,105.9,0,0,1,34.26-9.43A104.66,104.66,0,0,0,374.66,608.14Z" transform="translate(-14.51 -7.35)"/>
  <path class="fill__extraction" d="M31.88,593.5A83,83,0,0,1,46,589.42a196.81,196.81,0,0,1,37.84-3.35c14.88,0,29.78,1.29,42.39,2.56,3.29.33,6.6.78,9.79,1.21h0c4.69.64,9.55,1.3,14.37,1.58h1.21a50.19,50.19,0,0,0,12.85-1.68,23.27,23.27,0,0,0,8.42-4.43,19.17,19.17,0,0,0,5.89-7.26,14.32,14.32,0,0,0,1.17-7.93,14.66,14.66,0,0,0-3.43-7.4,19.66,19.66,0,0,0-7.83-5.38,39.84,39.84,0,0,0-18.2-2.2c-5.34.47-10.77.71-16.14.71A183,183,0,0,1,108.05,554a119.68,119.68,0,0,0-47.46,1.56q-14.7,3.57-29,8.58c-1.21.46-2.44.89-3.67,1.26-2.27,11.52-4.29,23.28-6,34.95h0A24.94,24.94,0,0,1,31.88,593.5Z" transform="translate(-14.51 -7.35)"/>
  <path class="fill__extraction" d="M870.82,127.43a15.41,15.41,0,0,0-1.79-6.18,17.61,17.61,0,0,0-13-9.52,60.65,60.65,0,0,0-10.76-1c-1.63,0-3.27.06-4.89.2-10.91,1-22,1.48-33,1.48-2.12,0-4.27,0-6.38-.06h-2.48A271,271,0,0,0,769.34,114c-13.75,1.43-27.18,5.62-40.16,9.67l-2.63.82c-10.4,3.28-18.94,4.8-26.89,4.8a53.73,53.73,0,0,1-19.19-3.39v-.1c-9.82-3.7-18.48-9.78-26.86-15.65l-.21-.15L651,108.26a101.38,101.38,0,0,0-59-19l-1.74,0a190.33,190.33,0,0,0-20.76,2.38,60,60,0,0,1-7.81.51A69.07,69.07,0,0,1,547,90.58a101.2,101.2,0,0,1-14.26-4.27l-5.57-2.12h0c-8.74-3.33-17.77-6.78-26.82-9.61A162,162,0,0,0,430,68.93c-5,.66-10.05,1.07-15.07,1.23-16.43,7.64-32.79,16.06-48.63,25A132.25,132.25,0,0,1,379,99.59a59.46,59.46,0,0,0,38.4,2.34,123.29,123.29,0,0,1,54.18-2A208.59,208.59,0,0,1,513.07,113l2.53,1c9,3.69,18.38,7.5,28.18,9.48a81.08,81.08,0,0,0,16.3,1.51,181.89,181.89,0,0,0,19.51-1.29,80.66,80.66,0,0,1,47.95,8.74c3.47,1.86,7,3.82,10.33,5.71l0,0h0c5,2.81,10.15,5.7,15.35,8.32,6.06,3,12.57,5.95,18.87,8.76,2.45,1.08,5.18,2.31,7.84,3.52a2.08,2.08,0,0,1,.6.09v-.06a55.54,55.54,0,0,0,29.92,2.91,157,157,0,0,0,22.74-6.11,192.11,192.11,0,0,1,90.42-10.07c6.47.78,14.14,1.62,22,2,.51,0,1,0,1.51,0a27.35,27.35,0,0,0,13.86-3.77,22.55,22.55,0,0,0,5.58-4.63,17.94,17.94,0,0,0,3.32-5.64A15.14,15.14,0,0,0,870.82,127.43Z" transform="translate(-14.51 -7.35)"/>
  <path class="fill__extraction" d="M205.07,691.65a89.77,89.77,0,0,0-17.76-7.73,63.7,63.7,0,0,0-18.49-2.85,59.6,59.6,0,0,0-16.73,2.43,233.86,233.86,0,0,0-23.89,9.17,44.65,44.65,0,0,1-29.48,2.43l-3.17-.82c-5.22-1.35-10.61-2.74-16-3.85l-4.94-1-.21,0c-12.23-2.5-24.87-5.08-36.75-9.77a60.93,60.93,0,0,0-22.63-4.44c-.35,8.78-.53,17.68-.54,26.48H219.14A105.07,105.07,0,0,0,205.07,691.65Z" transform="translate(-14.51 -7.35)"/>
  <path class="fill__extraction" d="M1385.42,692.91c-7,.72-14.19,1.26-21.27,1.63-4,.26-8,.4-12,.4s-8-.13-12-.4a23,23,0,0,1-7.23-1.91,20,20,0,0,1-5.76-3.93,23.75,23.75,0,0,1-6.52-12.87c-.66-3.58-1-7.28-1.37-10.86v0c-.16-1.72-.34-3.49-.54-5.23a24.91,24.91,0,0,0-6.6-15.3c-3.76-3.81-9.46-6-15.66-6a25.72,25.72,0,0,0-11.88,2.88c-5.36,2.82-8.86,7.16-9.83,12.2s.64,10.26,4.52,14.82a45.36,45.36,0,0,0,4.65,4.65c.79.72,1.6,1.46,2.38,2.22a106.32,106.32,0,0,1,10.18,10.18,15.4,15.4,0,0,1,2.16,16.29h86.88C1385.49,698.77,1385.46,695.83,1385.42,692.91Z" transform="translate(-14.51 -7.35)"/>
  <path class="fill__extraction" d="M1320.64,608.14c17.34-4.49,34.78-9.43,51.84-14.69a27.4,27.4,0,0,0,4.29-1.71c-1.59-10-3.42-20.15-5.43-30.06-.38-1.85-.78-3.81-1.21-5.83a18.74,18.74,0,0,1-3.76,4.95,30.85,30.85,0,0,1-10.84,7,46.14,46.14,0,0,1-12.53,2.79,235,235,0,0,0-48.34,8.92c-9.2,2.88-18.37,5.51-26.92,7.93a76.7,76.7,0,0,1-41.13.53c-4.46-1.19-9-2.42-13.39-3.62l-.15,0h0c-6.15-1.67-12.51-3.4-18.78-5-7.25-1.9-14.74-3.87-22.48-3.87-.42,0-.84,0-1.24,0a26.55,26.55,0,0,0-13.62,3.78,24.87,24.87,0,0,0-9.14,10.7c-1.24,2.58-2.3,5.28-3.32,7.9-.77,2-1.56,4-2.43,6a27.21,27.21,0,0,1-19.28,16.51,82.76,82.76,0,0,1-14.61,2c-10.81.54-21.82.86-32.73.95l-1.41,0h-.72c-3.66,0-7.44.08-11.18.08-8.12,0-14.34-.17-20.17-.56a149.58,149.58,0,0,1-15.5-2.13h0c-3.2-.56-6.52-1.13-9.79-1.56a52.33,52.33,0,0,0-6.85-.48c-7.16,0-13,1.77-17.87,5.41-6.83,5.14-9.5,11-8.16,18a14.29,14.29,0,0,0,5,8.68,23.53,23.53,0,0,0,9,4.24,8.58,8.58,0,0,0,1.67.37,130.18,130.18,0,0,0,13.24.71c3.13-.15,6.31-.22,9.45-.22a201.82,201.82,0,0,1,22.52,1.26,107,107,0,0,0,29.47-.63c17-2.82,29.94-5.06,42-7.28a45.51,45.51,0,0,1,38.07,8.93c2.33,1.82,4.79,3.56,7.17,5.25l2.57,1.84a75.07,75.07,0,0,0,32.46,14.08c4.08.63,8.41,1.32,12.62,2.2a29.61,29.61,0,0,1,17.21,9.78,20.67,20.67,0,0,1,4.85,10.36h24.55a29.1,29.1,0,0,1-2.52-8.4c-.42-2.76-.69-5.58-1-8.31h0c-.29-3-.59-6-1.08-9-1.78-12.19-8.59-20-20.23-23.09-3.9-1.06-7.91-1.84-11.31-2.46-4.66-.83-9.38-1.63-14-2.4-7.51-1.26-15.28-2.58-22.9-4.06A31.65,31.65,0,0,1,1164.8,635c-.12-.13-.25-.26-.37-.4a15.59,15.59,0,0,1,1-22A21.93,21.93,0,0,1,1176.3,607a27.09,27.09,0,0,1,5.46-.53,34.23,34.23,0,0,1,7.87,1,60,60,0,0,1,7.62,2.37c2.53,1,5.07,2,7.54,2.91,5.06,2,10.29,4,15.51,5.75a178.44,178.44,0,0,0,18.72,5.22,39.14,39.14,0,0,0,8.14.86,43.5,43.5,0,0,0,10.59-1.36,64.26,64.26,0,0,0,10.29-3.58,106.16,106.16,0,0,1,34.26-9.44A103.7,103.7,0,0,0,1320.64,608.14Z" transform="translate(-14.51 -7.35)"/>
  <path class="fill__extraction" d="M1151,691.65a90.14,90.14,0,0,0-17.76-7.74,63.57,63.57,0,0,0-18.48-2.84,59.67,59.67,0,0,0-16.74,2.43,233.69,233.69,0,0,0-23.88,9.17,44.74,44.74,0,0,1-29.49,2.43l-3.15-.82h0c-5.21-1.35-10.61-2.74-16-3.85l-4.88-1-.27,0c-12.23-2.5-24.87-5.08-36.75-9.77a60.91,60.91,0,0,0-39.35-2.16,123.2,123.2,0,0,1-63.17,0,246.29,246.29,0,0,1-38.92-13.89,121.47,121.47,0,0,0-21.3-7.15,98.27,98.27,0,0,0-22-2.56,95.37,95.37,0,0,0-12.63.86,99.67,99.67,0,0,1-27.76.36A73.75,73.75,0,0,1,741,650.16a160.48,160.48,0,0,1-16.36-8L720.58,640l-.66-.36h0c-8.57-4.67-17.44-9.5-26.27-14a141.93,141.93,0,0,0-13.23-5.22v-.43l-1-.24h0c-.71-.17-1.44-.35-2.15-.56A56.86,56.86,0,0,0,646.17,618c-9.09,2.33-18.12,5.19-27.35,8.15a171.23,171.23,0,0,1-80.44,6.7l-1.49-.23a104.46,104.46,0,0,0-16-1.66,44.36,44.36,0,0,0-5.53.32,24.18,24.18,0,0,0-18.16,10.48,14.3,14.3,0,0,0-1.3,14.27,18.33,18.33,0,0,0,14.4,11.08,85.08,85.08,0,0,0,12.15.87c1.24,0,2.51,0,3.76-.08,4.82-.11,9.7-.36,14.41-.59,6.49-.33,13.2-.66,19.8-.66h1.93l2.94,0a193.19,193.19,0,0,0,52.75-7.33l7.73-2.25c6.67-2,13.58-4,20.45-5.7a54.74,54.74,0,0,1,34.34,2v.08A83.92,83.92,0,0,1,700.3,664c1.8,1.22,3.66,2.48,5.42,3.86a96.43,96.43,0,0,0,11.92,8,104.19,104.19,0,0,0,12.7,6.08,129.39,129.39,0,0,0,27.41,7.36,68.17,68.17,0,0,0,24.74-.81,78.05,78.05,0,0,1,15.91-1.65,80.71,80.71,0,0,1,17.26,1.9,99,99,0,0,1,16.9,5.43c6.35,2.78,12.89,5.3,19.47,7.51h313.08A105.07,105.07,0,0,0,1151,691.65Z" transform="translate(-14.51 -7.35)"/>
  <path class="fill__extraction" d="M680.51,686v-.57a43.13,43.13,0,0,0-12.86-1.86,74.37,74.37,0,0,0-17.93,2.53c-6.73,1.69-13.49,3.36-20.09,5-18.85,4.57-39,9.09-59.67,9.72h-.56c-6.23.2-12.67.39-19,.39-12.45,0-22.46-.8-31.52-2.54-6.73-1.28-13.46-3.19-20-5h0c-2.19-.63-4.45-1.27-6.69-1.88a64.9,64.9,0,0,0-26.79-2.27,425.44,425.44,0,0,1-47.24,5.1c-4,.26-8,.4-12,.4s-8-.14-12-.4a23,23,0,0,1-7.23-1.91,20.44,20.44,0,0,1-5.76-3.93,23.84,23.84,0,0,1-6.51-12.87c-.66-3.58-1-7.27-1.37-10.85h0c-.17-1.73-.34-3.52-.55-5.27a24.75,24.75,0,0,0-6.6-15.29c-3.75-3.82-9.45-6-15.65-6a25.72,25.72,0,0,0-11.88,2.88c-5.37,2.82-8.86,7.16-9.83,12.2s.64,10.26,4.52,14.82A45.26,45.26,0,0,0,337.9,673c.8.72,1.61,1.46,2.38,2.22a104.17,104.17,0,0,1,10.19,10.18,15.4,15.4,0,0,1,2.16,16.29H694.08A18.34,18.34,0,0,0,680.51,686Z" transform="translate(-14.51 -7.35)"/>
  <path class="fill__extraction" d="M418.23,663.56l.82-.07c1.73-.14,3.37-.27,5.07-.45l22.25-2.34a120.42,120.42,0,0,0,12.72-1.28c8.77-1.87,14.2-6.61,16.14-14.08a17.86,17.86,0,0,0-1.81-12.65,22.85,22.85,0,0,0-4.05-5.51,21.33,21.33,0,0,0-5.59-4.07,26.07,26.07,0,0,0-12-2.72,43.81,43.81,0,0,0-8.69,1c-2.89.58-5.86,1.15-8.49,1.66h0c-6.57,1.27-13.36,2.58-20,4.11a42.88,42.88,0,0,0-12.34,4.57,14.79,14.79,0,0,0-7.09,16.84,17.31,17.31,0,0,0,3.23,6.37c4.71,5.77,11.18,8.58,19.77,8.58h.1v.08Z" transform="translate(-14.51 -7.35)"/>
  <path class="fill__extraction" d="M1347.06,472.81c-3.66-10.59-7.62-21.22-11.77-31.6A72.91,72.91,0,0,1,1299,426.49c-5.29-4-10.44-7.88-15.39-11.91a119.54,119.54,0,0,0-59.42-26.71c-11.39-1.67-26.39-4-41.43-7.38-10-2.24-20.16-4.83-30-7.33h0c-8.72-2.23-17.74-4.54-26.65-6.59-8.38-1.94-17-3.63-25.24-5.26-7.22-1.42-14.7-2.89-22-4.53-18-4-32.14-10.68-43.18-20.37a156.07,156.07,0,0,1-11.26-11.46c-1.51-1.64-3.07-3.35-4.63-5a36.53,36.53,0,0,0-21.16-11.69,84.86,84.86,0,0,0-12.22-1.1,225.15,225.15,0,0,1-42.55-4.34,127.27,127.27,0,0,0-55.21.67c-7.69,1.8-15.36,3.19-23.19,4.56-18.82,3.27-38.15,4.91-56.86,6.5h0c-4.6.39-9.36.8-14.09,1.23-2.13.19-4.27.29-6.35.29A63.13,63.13,0,0,1,775,314.71a59.7,59.7,0,0,1-12.13-4,64.3,64.3,0,0,1-11.16-6.54,77.45,77.45,0,0,1-10.19-9c-3.69-3.85-7.1-8.09-10.39-12.19l0-.06c-.74-.92-1.5-1.87-2.25-2.79a46.69,46.69,0,0,0-10.88-10A35.89,35.89,0,0,0,704.29,265c-5.55-.92-11.24-1.46-16.75-2h0c-2.28-.22-4.64-.44-7-.69v-.07h0v.06c-2.4-.53-4.82-1-7.17-1.5-5.31-1.08-10.81-2.19-16.08-3.73-9.35-2.73-17.86-7.67-26.1-12.44h0c-1.56-.9-3.17-1.84-4.75-2.74-4.88-2.77-9.93-5.45-15-8a81.77,81.77,0,0,0-36.55-8.62h0a81.65,81.65,0,0,0-16.43,1.68c-5,.94-10.22,1.77-16.55,2.61A47.61,47.61,0,0,1,509,222.17c-4.09-2.65-8.17-5.47-12.11-8.19l0,0c-3.16-2.17-6.42-4.42-9.66-6.57A77.09,77.09,0,0,0,450,194.76a81,81,0,0,1-12.37-2,24.71,24.71,0,0,1-7.15-3.15,15.75,15.75,0,0,1-2.93-2.21,15.27,15.27,0,0,1-.45-21.58,23.36,23.36,0,0,1,8.58-6.3,25.71,25.71,0,0,1,10-1.87,39.82,39.82,0,0,1,5.87.47c8.38,1.26,16.13,4.85,23.62,8.32l.43.19c13.13,6.12,26.37,12.57,39.17,18.81l0,0,2.31,1.12a67.62,67.62,0,0,0,38.29,6.55c7-.82,12.8-1.39,18.34-1.82,2-.16,4-.24,6-.24a79.3,79.3,0,0,1,20,2.62,102,102,0,0,1,19,7.18c4,2,8,4,11.9,6h0c6.87,3.53,14,7.19,21.15,10.4,6,2.66,12.26,4.79,18.34,6.84,2.67.91,5.44,1.84,8.15,2.82a10.66,10.66,0,0,0,2.17.34v.41a2,2,0,0,1,.22.09l.1,0L699.54,232A44.85,44.85,0,0,0,736,225.53c.67-.46,1.39-.88,2.08-1.29h0c.7-.41,1.41-.83,2.1-1.29a78.17,78.17,0,0,1,54.9-12.7A238.14,238.14,0,0,0,825.18,212c10.72,0,21.63-.51,32.17-1h0c3.56-.17,7.6-.36,11.48-.51A30.36,30.36,0,0,0,891,200.64a19.8,19.8,0,0,0,4.21-7.16,17.29,17.29,0,0,0,.77-7.59,17,17,0,0,0-7.61-12.07A21.38,21.38,0,0,0,877,170.46a40,40,0,0,0-17.39,4.08,69.75,69.75,0,0,1-28.9,6.26c-2.12,0-4.28-.09-6.39-.29l-2.46-.24c-4.57-.44-9.3-.89-14-1.43a157.89,157.89,0,0,0-18.19-1.12,105.16,105.16,0,0,0-31.33,4.44c-8.78,2.74-18.39,6.27-30.24,11.09a63.67,63.67,0,0,1-46.69,1.38,1.52,1.52,0,0,1-.21,0,2,2,0,0,1-.94-.19A269.68,269.68,0,0,1,642.9,178l-5.15-2.63c-4.2-2.14-8.54-4.35-12.82-6.57a89.38,89.38,0,0,0-20.84-7.92,93.19,93.19,0,0,0-21.75-2.51,109.23,109.23,0,0,0-13.53.85,97.64,97.64,0,0,1-25.56,0c-9.91-1.36-18.86-5-28.71-9.29-2.85-1.23-5.81-2.54-8.42-3.69-8.84-3.9-18-7.94-27.2-11.2A108.24,108.24,0,0,0,428,129.91a38.63,38.63,0,0,0-9.8,2.53,23.24,23.24,0,0,0-12.44,11.67,38.76,38.76,0,0,0-3.11,9.56c-.29,1.41-.56,2.85-.82,4.24h0c-.53,2.81-1.07,5.72-1.81,8.53a26.76,26.76,0,0,1-18.34,19.62,67.22,67.22,0,0,1-9,2.43c-7.6,1.43-15.5,2.5-23.49,3.2-7.58.65-15.49,1-23.52,1a365.28,365.28,0,0,1-45.44-3c-1.67-.21-3.36-.46-5-.69a95.68,95.68,0,0,0-13.73-1.32,40.3,40.3,0,0,0-6,.42,30.61,30.61,0,0,0-10.26,3.25,23.08,23.08,0,0,0-8,7.2c-.15.2-.29.4-.42.61a14.25,14.25,0,0,0,4,19.77,24,24,0,0,0,8.86,4.08,62.25,62.25,0,0,0,12,1.17c.87,0,1.75,0,2.62,0,5.17-.4,10.42-.6,15.61-.6a204.85,204.85,0,0,1,23.48,1.35,136.45,136.45,0,0,0,53.77-2.43c8.71-2.26,17.43-5,25.88-7.59h0l6.21-1.92a47.58,47.58,0,0,1,30.71.59l6.05,2.16c9.79,3.5,19.91,7.12,29.94,10.53a70.94,70.94,0,0,1,31.64,20.91,83.16,83.16,0,0,0,9.66,9.48c6.43,5.29,14.21,7.86,23.79,7.86a59.14,59.14,0,0,0,6.78-.39c8.2-.88,16.49-2.18,24.5-3.42h0c3-.47,6.08-.95,9.11-1.4a77.55,77.55,0,0,1,27.68,0,60.84,60.84,0,0,1,17,6.38A85.94,85.94,0,0,1,621,276.08a70.13,70.13,0,0,0,14.65,10A48.16,48.16,0,0,0,652.5,291c7.78.64,15.75,1.49,23.45,2.32h0l4.61.49h0l2.73.78.08,0c2.08.59,4.23,1.19,6.38,1.9A77.55,77.55,0,0,1,708,305.55a143.41,143.41,0,0,1,16.08,12.55c4.63,4.08,9.17,8.41,13.56,12.6l0,0c2.49,2.38,5.07,4.84,7.64,7.23a38.82,38.82,0,0,0,26.92,10.85q.71,0,1.41,0c3.77-.08,7.61-.34,11.31-.59h0c3.45-.23,7-.47,10.53-.57a444.66,444.66,0,0,0,85.16-10.49A160.35,160.35,0,0,1,919,332.48c3,0,6.11.08,9.15.26,12.64,1,26.35,2.32,41.92,4.07a78.93,78.93,0,0,1,40.63,16.87c1.74,1.38,3.49,2.75,5.19,4.07,3.19,2.49,6.49,5.07,9.68,7.67a116.82,116.82,0,0,0,57.53,25.66c14.28,2.11,28.13,4.65,41.17,7.56,8.56,1.91,17.19,4.14,25.54,6.3h0c8,2.07,16.38,4.23,24.63,6.09,10,2.24,20.12,4.25,29.94,6.2,7.57,1.49,15.39,3,23,4.68a122,122,0,0,1,22.57,7,90.35,90.35,0,0,1,10.48,5.31,80.08,80.08,0,0,1,9.75,6.83,197.36,197.36,0,0,1,16.85,16.88c6.93,7.28,13.77,11.26,21.52,12.51a71.6,71.6,0,0,0,12.49,1.1h.17a255.64,255.64,0,0,1,25.81,1.31Z" transform="translate(-14.51 -7.35)"/>
  <path class="fill__extraction" d="M326.89,156.73a118.55,118.55,0,0,1,11.8,1.53h0c3.15.51,6.42,1.05,9.65,1.36,1.54.15,3,.23,4.47.23h0a31.78,31.78,0,0,0,10.59-1.69,26.32,26.32,0,0,0,9.4-5.8,19.78,19.78,0,0,0,5.06-7.52A14.58,14.58,0,0,0,375.1,130a19.64,19.64,0,0,0-7.43-5.2,14.88,14.88,0,0,0-4.24-1.24c-6-.53-10.91-.84-15.44-1-3.41-.11-6.87-.13-10.22-.15h0c-4.89,0-10-.06-14.92-.36-1.91,1.28-3.82,2.58-5.7,3.86-13.84,9.47-27.55,19.62-40.74,30.16,6.54-.1,12.45-.15,18.06-.16C304,155.89,315.41,156,326.89,156.73Z" transform="translate(-14.51 -7.35)"/>
  <path class="fill__extraction" d="M603.5,298.12a23.66,23.66,0,0,0-11.07-6.25,36.67,36.67,0,0,0-16.83-.14c-4.14.85-8.31,1.88-12.34,2.87l-4.21,1A86,86,0,0,1,538.34,298a140.85,140.85,0,0,1-18.46-1.33,52.58,52.58,0,0,0-37.58,8.3,101.41,101.41,0,0,1-10,5.82,71,71,0,0,1-15,6A59.55,59.55,0,0,1,442,318.83,62.08,62.08,0,0,1,423,315.78c-3-1-6.11-2-9.08-3.08h0c-4-1.41-8.22-2.86-12.38-4.1a28,28,0,0,0-19.32.59,18.08,18.08,0,0,0-6.56,4.6A13.2,13.2,0,0,0,373,327a18,18,0,0,0,4.27,6.81,28.51,28.51,0,0,0,13,7.77,185.92,185.92,0,0,0,18.95,4.26,175.17,175.17,0,0,0,32.23,3l3.3,0a99.19,99.19,0,0,0,20-3.06c7-1.76,13.73-4.06,19.38-6.07a259.48,259.48,0,0,1,25.1-7.84A83.74,83.74,0,0,1,530,329.65c4.24,0,8.54.17,12.71.34,1.74.07,3.71.16,5.61.22,2.76,0,5.57,0,8.28.06h.07c2.7,0,5.49.05,8.23.05,3.09,0,5.8,0,8.28-.11a61.32,61.32,0,0,0,13.48-1.86A36.85,36.85,0,0,0,599,322.6a22.38,22.38,0,0,0,6.54-6.78,14.57,14.57,0,0,0,1.66-4.23,15.64,15.64,0,0,0,.24-4.92,14.85,14.85,0,0,0-1.31-4.76A14.68,14.68,0,0,0,603.5,298.12Z" transform="translate(-14.51 -7.35)"/>
  <path class="fill__extraction" d="M178.28,398.64c8.56,1.91,17.19,4.14,25.53,6.3h0c8,2.08,16.39,4.23,24.64,6.09,9.95,2.25,20.12,4.26,30,6.2,7.56,1.5,15.39,3,23,4.68a122.06,122.06,0,0,1,22.57,7,88.71,88.71,0,0,1,10.48,5.3,78.64,78.64,0,0,1,9.75,6.84,197.12,197.12,0,0,1,16.85,16.86c6.93,7.29,13.77,11.26,21.52,12.51a70.64,70.64,0,0,0,12.49,1.1h.17a256.54,256.54,0,0,1,47.09,4.39A115.56,115.56,0,0,0,462.06,477c6.8-1.16,13.68-2.52,20.34-3.84h.05l7.65-1.51c20.69-4,42-5.75,62.58-7.42h0c4.58-.37,9.31-.75,14-1.16,2-.17,4.05-.26,6-.26a62.44,62.44,0,0,1,12.79,1.29,59.61,59.61,0,0,1,11.86,3.8,63.33,63.33,0,0,1,11,6.21,76.29,76.29,0,0,1,10.06,8.5c3.71,3.76,7.14,7.93,10.45,12h0c1.3,1.58,2.65,3.22,4,4.81a39.71,39.71,0,0,0,18.34,13.09c8.21,2.59,16.86,3.19,25.22,3.77l4.19.3V517c2.16.42,4.42.82,6.41,1.17h0c4.87.87,9.9,1.76,14.7,3.09,9.1,2.53,17.38,7.22,25.4,11.76,1.89,1.07,3.86,2.18,5.8,3.25a262,262,0,0,0,24.45,12.12,66,66,0,0,0,13.4,3.93,76.3,76.3,0,0,0,13.66,1.19,104.86,104.86,0,0,0,18.71-1.8c5.35-.94,11.66-2,18-2.64a47.19,47.19,0,0,1,31.61,8c5.36,3.5,10.06,6.75,14.39,9.93A85.63,85.63,0,0,0,914,584.48a48.93,48.93,0,0,1,11.57,2,21.5,21.5,0,0,1,8.91,4.8,14.56,14.56,0,0,1,4.38,9.11c.81,7.07-2.35,12.91-9.41,17.34a25,25,0,0,1-20.89,2.73,186.15,186.15,0,0,1-24-8.85c-13.58-6.07-25.84-12-37.49-18a74.13,74.13,0,0,0-46.57-7.46,131,131,0,0,1-19.38,1.62,76,76,0,0,1-19.34-2.33,142.71,142.71,0,0,1-28.53-11.58c-2.36-1.21-4.72-2.44-7-3.64-10.15-5.31-20.64-10.79-31.72-14.51-3.2-1.08-6.48-2.05-9.65-3l-.07,0-4.27-1.27v.08c-2.61-.57-5.27-1.19-7.83-1.78h-.06c-5.51-1.28-11.21-2.59-16.87-3.61a39.51,39.51,0,0,0-27.9,5.57l-1.15.69h0c-2.72,1.64-5.55,3.33-8.31,5a74.9,74.9,0,0,1-40.51,11.87c-2.4,0-4.82-.11-7.19-.34-2.05-.18-4.14-.4-6.15-.61h-.05c-4.48-.47-9.12-1-13.69-1-7.58-.1-15.39-.14-23.87-.14s-17.45,0-27.83.14h-.69a37,37,0,0,0-19.91,5.77,22.66,22.66,0,0,0-8.51,10,17.2,17.2,0,0,0-.62,12,17,17,0,0,0,6.73,8.91,20.36,20.36,0,0,0,11.53,3.41c.7,0,1.41,0,2.12-.1a92.66,92.66,0,0,0,15.06-3.4c2.32-.62,4.65-1.35,6.9-2.06a108.83,108.83,0,0,1,11-3,51.58,51.58,0,0,1,10.08-.91,131.86,131.86,0,0,1,18.61,1.77,122.53,122.53,0,0,0,62-6.28c2.62-1,5.28-2.05,7.86-3.06h0c5.45-2.14,11.08-4.34,16.7-6.39A54.18,54.18,0,0,1,666,581.16c3.33.55,6.68,1.4,9.91,2.22h0c1.52.39,3.1.79,4.65,1.15V585c1.4.51,2.83,1,4.2,1.46a87.23,87.23,0,0,1,9.65,3.7c9.86,4.66,19.83,9.58,29.46,14.34l0,0,.31.15,10.46,5.15a98.13,98.13,0,0,0,31.89,10.42c3.54.33,7.14.49,10.69.49a117.46,117.46,0,0,0,16.76-1.2,88.52,88.52,0,0,1,48.25,7.6c9.5,4.4,19.62,9,29.68,13.27a123.62,123.62,0,0,0,48.36,9.85c2,0,4.13,0,6.18-.16a72.27,72.27,0,0,0,9-1c7.08-1.25,12.4-3.73,16.23-7.56s6.32-9.15,7.62-16.26c.19-1,.38-2.11.56-3.14v0c.66-3.73,1.35-7.58,2.38-11.28a24.94,24.94,0,0,1,15.51-17.34A83,83,0,0,1,992,589.41a196.7,196.7,0,0,1,37.83-3.35c14.89,0,29.79,1.29,42.4,2.56,3.29.33,6.59.77,9.78,1.21h0c4.7.64,9.55,1.3,14.37,1.58h1.21a49.75,49.75,0,0,0,12.85-1.68,23.12,23.12,0,0,0,8.41-4.42,19.23,19.23,0,0,0,5.9-7.27,14.41,14.41,0,0,0,1.17-7.93,14.62,14.62,0,0,0-3.43-7.39,19.68,19.68,0,0,0-7.83-5.39,39.85,39.85,0,0,0-18.2-2.2c-5.34.48-10.78.72-16.14.72a181.46,181.46,0,0,1-26.35-1.92,119.68,119.68,0,0,0-47.46,1.57,299.34,299.34,0,0,0-29,8.58,55.69,55.69,0,0,1-41.06-.53c-5.25-2.1-10.72-3.91-16-5.68-4.29-1.42-8.72-2.9-13-4.51a165.64,165.64,0,0,1-18.2-8c-7.2-3.76-12.62-9.68-18.46-16.47a41.92,41.92,0,0,0-14.26-11,40.54,40.54,0,0,0-17-3.54,50.57,50.57,0,0,0-6,.36c-9.13,1.07-18.37,2.48-27.3,3.84l-.11,0c-3.39.51-6.9,1-10.36,1.56a76.12,76.12,0,0,1-11.19.85,63.31,63.31,0,0,1-19.88-3.11,64.4,64.4,0,0,1-18.28-9.62c-3.67-2.74-6.9-5.3-9.84-7.81a53.4,53.4,0,0,0-30.85-12.82c-5.86-.52-11.8-1.22-17.55-1.89h-.09c-2.44-.29-5-.59-7.46-.86V485a80.64,80.64,0,0,1-35.85-17.73c-4.62-3.88-9.17-8-13.57-12-3.37-3.05-6.85-6.21-10.35-9.23a116.12,116.12,0,0,0-13.79-11,30,30,0,0,0-9.7-4A47.41,47.41,0,0,0,587,430c-1.58,0-3.28.06-5.18.17-3,.17-6,.39-8.91.61-5.29.38-10.77.78-16.15.92a364.67,364.67,0,0,0-67.62,8.15c-14.06,3-29.05,6-44.17,6-2.64,0-5.26-.09-7.79-.27-14.69-1-30.33-2.41-47.83-4.3a72.91,72.91,0,0,1-36.31-14.73c-5.27-4-10.41-7.85-15.38-11.9a119.46,119.46,0,0,0-59.42-26.71c-11.39-1.68-26.39-4-41.43-7.38-10-2.24-20.16-4.83-30-7.34h0c-8.73-2.23-17.76-4.54-26.7-6.59-8.37-1.94-16.94-3.63-25.23-5.26-7.23-1.42-14.71-2.89-22-4.53a115.57,115.57,0,0,1-23.24-7.61c-5.14,8.82-10.16,17.88-14.92,26.93a116.86,116.86,0,0,0,42.36,15C151.38,393.19,165.23,395.73,178.28,398.64Z" transform="translate(-14.51 -7.35)"/>
  <path class="fill__extraction" d="M271.93,288.33h.1c18.41,2,37.45,4.07,56,7.87a42.24,42.24,0,0,0,8.46.86h0a42.12,42.12,0,0,0,21.91-6.15c.79-.47,1.63-.93,2.37-1.34,1.26-.69,2.56-1.41,3.74-2.19a73.77,73.77,0,0,1,17.25-8,60.08,60.08,0,0,1,17.66-2.7,61.68,61.68,0,0,1,13.33,1.49,74.41,74.41,0,0,1,13.59,4.5,89.33,89.33,0,0,0,15.2,4.94,26.12,26.12,0,0,0,19.83-2.23c4.33-2.47,7.05-6.15,7.66-10.36s-.95-8.46-4.38-12.05a21.83,21.83,0,0,0-6.11-4.6A56.05,56.05,0,0,0,447.07,254c-10.48-2.47-20.81-4.59-32.26-6.91a73.53,73.53,0,0,0-37.46,2.32c-5.89,1.89-11.64,3.76-17.24,5.87A93.23,93.23,0,0,1,314,261.14l-1.2-.16c-10.75-1.43-21.86-2.91-32.83-3.45A124.92,124.92,0,0,1,222,241.13a63.39,63.39,0,0,0-27.56-7.92c-8.51,9.42-16.88,19.22-24.88,29.12A346.59,346.59,0,0,1,228.45,278,186.33,186.33,0,0,0,271.93,288.33Z" transform="translate(-14.51 -7.35)"/>
  <path class="fill__extraction" d="M148.38,325.34h0c17.58,3.88,35.76,7.9,53.47,12.58,29.31,7.76,60.9,15.39,93.33,18.64a70.58,70.58,0,0,1,34.4,12.37,218.55,218.55,0,0,1,17.53,13.82,116.33,116.33,0,0,0,73.18,29.51c4.27.23,8.61.35,12.9.35h0a240.39,240.39,0,0,0,57.89-7.1c10.47-2.58,19.69-4.47,28.17-5.76a187.87,187.87,0,0,1,28.62-2.31c1.77,0,3.56,0,5.3.09,6.15.22,12.37.52,18.39.82,3.15.15,6.72.33,10.14.48,1,.07,2,.1,2.94.1a41.22,41.22,0,0,0,31.71-14.89c.81-.91,1.63-1.86,2.43-2.77l0,0c2.76-3.16,5.61-6.43,8.68-9.41a78.53,78.53,0,0,1,12-9.78A30.42,30.42,0,0,1,655.72,357c6,0,12,2.06,17.91,6.13,1.57,1.06,3.1,2.23,4.58,3.36l.06,0,2.21,1.67v1c.47.39.94.78,1.4,1.18.86.72,1.75,1.48,2.64,2.16,1.33,1,2.65,2.1,3.92,3.15a61.08,61.08,0,0,0,9.6,6.92,21.62,21.62,0,0,0,26-3.92,15.77,15.77,0,0,0,1.76-21.06,30.31,30.31,0,0,0-7.42-7.05,109.44,109.44,0,0,0-12.52-6.77c-8.1-4-16.4-7.85-24.41-11.59h0l-.87-.4v-.58l-2.93-1.05c-2-.74-4-1.53-5.9-2.31a123,123,0,0,0-12.78-4.58,36.81,36.81,0,0,0-9.84-1.43c-8.83,0-16.71,3.75-23.42,11.13-1.59,1.75-3.17,3.55-4.7,5.29l-.05.06c-1.65,1.88-3.35,3.82-5.07,5.69a78.12,78.12,0,0,1-15.47,13.21,57.89,57.89,0,0,1-8.92,4.69,55.55,55.55,0,0,1-9.91,3.1,84.28,84.28,0,0,1-26,.46,142.42,142.42,0,0,0-52.72,3.94c-8.91,2.47-18.48,5.06-28.12,7.33a160.12,160.12,0,0,1-72,1.33,97.74,97.74,0,0,1-12.78-3.7A80.77,80.77,0,0,1,378.08,369a72.14,72.14,0,0,1-20.23-16.77c-1-1.13-1.88-2.26-2.92-3.52h0c-1.87-2.26-3.8-4.6-5.76-6.87A37.94,37.94,0,0,0,327,328.72c-7.05-1.24-14.07-2-21.23-2.79-13.48-1.19-27.06-3-40.38-5.36s-26.69-5.37-39.75-8.91c-19.53-5.56-35.87-9.86-51.41-13.51-9-1.93-18-4.24-26.79-6.87C142.14,298.53,137,306,132,313.4c-1.58,2.37-3.18,4.8-4.75,7.22,7,1.61,14.18,3.19,21.09,4.71Z" transform="translate(-14.51 -7.35)"/>
</svg>
