<svg xmlns="http://www.w3.org/2000/svg" viewBox="0 0 1262.43 642.75">
  <defs>
    <style>
      .fill__substract {
        fill: #82a6a2;
      }
    </style>
  </defs>
  <g>
    <path class="fill__substract" d="M1010.23,123.67a31.7,31.7,0,0,0-8.49-2.8,119.85,119.85,0,0,0-14.17-1.67h0a1.08,1.08,0,0,0-.75,2c.75.47,1.4.94,2.15,1.5,10.16,7,20.79,13.7,31.42,20.14a1.14,1.14,0,0,0,1.68-1.12,31.59,31.59,0,0,0-1.59-6.53A20.69,20.69,0,0,0,1010.23,123.67Z" transform="translate(-34.51 -30.3)"/>
    <path class="fill__substract" d="M797,58.9a75.59,75.59,0,0,0,15.44.78c8.34-.41,16.79-1.18,25.18-2.28h0c2-.23,2.65-2.18.9-2.57-1.4-.33-2.64-.69-4.06-1.14-19.26-5.29-39.27-10.11-59.22-14.6-1.41-.33-3.07.76-2.71,1.85a28.89,28.89,0,0,0,4.12,7.33C780.91,53.74,788.13,57.55,797,58.9Z" transform="translate(-34.51 -30.3)"/>
    <path class="fill__substract" d="M895,162.33a14.8,14.8,0,0,0,7.18-9.6,15.89,15.89,0,0,0-.94-10.17,19.61,19.61,0,0,0-7.27-8.3,24,24,0,0,0-9.6-3.82,75.27,75.27,0,0,0-11.19-.84h-.1l-1.95.19H871c-2,.19-4.38.37-6.8.65a29.61,29.61,0,0,0-14.18,5q-8.25,6.15-7.27,15.38a21.28,21.28,0,0,0,17.81,18.47,46.14,46.14,0,0,0,7.92.74,48.56,48.56,0,0,0,13.62-2A61.48,61.48,0,0,0,895,162.33Z" transform="translate(-34.51 -30.3)"/>
    <path class="fill__substract" d="M1164.55,275.9l-8.49-11a8.41,8.41,0,0,0-1.3-1.3,17,17,0,0,0-8.21-2.89,115.32,115.32,0,0,1-48.48-14.83,57.82,57.82,0,0,0-28.26-7.37,170.6,170.6,0,0,1-35.71-4.85c-8-1.86-15.48-3.35-22.75-4.56a61,61,0,0,0-10.07-.75,73.6,73.6,0,0,0-16.23,1.86,103.67,103.67,0,0,0-15.76,4.85,265.16,265.16,0,0,1-54,15,48.33,48.33,0,0,1-8.95.84,26,26,0,0,1-11.19-2.24,16.06,16.06,0,0,1-5.41-3.83,12.92,12.92,0,0,1-3.45-11,17.45,17.45,0,0,1,2.24-6.15,19.84,19.84,0,0,1,3.27-4.11,31.19,31.19,0,0,1,18.55-8.76c4.48-.65,9.14-1,13.62-1.4h0c2.42-.19,4.94-.47,7.36-.65,12.5-1.31,24.34-5.13,35.9-8.95a149.83,149.83,0,0,1,14.92-4.29,70.66,70.66,0,0,1,15.29-1.87,58.78,58.78,0,0,1,7,.47c7.83,1,15.66,2.61,23.21,4.29h.19l3.92.84c3.91.84,7.92,1.77,11.75,2.61,6.34,1.49,12.86,3,19.3,4.1a31.8,31.8,0,0,0,6,.47,25.47,25.47,0,0,0,7-.94,20.47,20.47,0,0,0,6-2.7,22.68,22.68,0,0,0,4.94-4.48h0a7.71,7.71,0,0,0-.84-10.63c-3.92-3.45-7.83-7-11.75-10.35a7.82,7.82,0,0,0-7.64-1.39c-.19.09-.38.09-.56.18a22.11,22.11,0,0,1-7.37,1.12,39,39,0,0,1-12.87-2.52A277.73,277.73,0,0,0,1010,169.6l-.84-.18c-5.5-1.12-11.09-2.24-16.88-2.24a33.86,33.86,0,0,0-5.31.37,65.83,65.83,0,0,0-18.65,6.25,74.38,74.38,0,0,1-32.54,7.55l-.1.1H934A93.35,93.35,0,0,0,909.62,185a183.27,183.27,0,0,0-23,8.49A32,32,0,0,0,868,215.11c-.93,3.36-2,7.18-3.27,10.91a26.12,26.12,0,0,1-19.2,17.9,56.8,56.8,0,0,1-6.9,1.49c-16.23,1.68-33.11,3.45-49.7,5a120.08,120.08,0,0,1-29.47,0c-3.54-.56-7.18-1.21-10.63-1.87C746,248,743,247.47,740.1,247a49.69,49.69,0,0,0-7.37-.65,26,26,0,0,0-12.4,2.79c-4.57,2.33-7.46,5.88-8.21,10.17s.75,8.58,4.1,12.4a30.13,30.13,0,0,0,15.67,8.67,75.23,75.23,0,0,0,16.41,1.87c1.87,0,3.73-.1,5.5-.19l3.36-.19h0c13.05-.65,26.48-1.4,39.72-2.33,10.07-.65,18.84-1.68,26.76-3a166.5,166.5,0,0,0,26.11-6.44,51.45,51.45,0,0,1,36.18.47,100.24,100.24,0,0,0,22.75,5.78,194.68,194.68,0,0,0,23.41,1.68c.93,0,2,.09,2.89.09a58.77,58.77,0,0,0,33.29-10.35,64.52,64.52,0,0,1,17-8.48,58.37,58.37,0,0,1,18-2.8,66.06,66.06,0,0,1,17.07,2.24l.56.18h0c9.23,2.34,18.83,4.76,28.44,6.44a319,319,0,0,1,54.83,14.45,173.81,173.81,0,0,0,40.09,9.51h.1c10.81,1.21,38.69,15.76,30.77,3" transform="translate(-34.51 -30.3)"/>
    <path class="fill__substract" d="M602.56,85.12h0a23.36,23.36,0,0,0,3.63-.28,19.69,19.69,0,0,0,10.17-4.47,21.13,21.13,0,0,0,6-9.33A104.52,104.52,0,0,0,625.12,58V57.9c-.28-1.22-.56-2.52-.74-3.73a33.36,33.36,0,0,0-2.15-7.93,18.6,18.6,0,0,0-16-11.75c-1-.09-2-.18-3-.18h0A22.11,22.11,0,0,0,585,43.91a28.5,28.5,0,0,0,.46,32.45A20.53,20.53,0,0,0,602.56,85.12Z" transform="translate(-34.51 -30.3)"/>
    <path class="fill__substract" d="M659.72,50.62h0a44.38,44.38,0,0,0,11.56-1.77c2.61-.74,5.32-1.58,7.93-2.33h.09c5.87-1.68,11.93-3.45,18-4.94,13.33-3.36,54.17-4.57,40.46-7.09h0a607,607,0,0,0-71.33-4.19c-8.48,0-17.06.18-25.64.56a1.11,1.11,0,0,0-1,1.11l.1,2.34a14.86,14.86,0,0,0,8.76,13.52" transform="translate(-34.51 -30.3)"/>
    <path class="fill__substract" d="M641.07,105.08a21.89,21.89,0,0,0,7.55,4.38v.09a27.05,27.05,0,0,0,13.9,1.68,194.82,194.82,0,0,0,22-4.19,403.47,403.47,0,0,1,39.72-8.67A265.27,265.27,0,0,1,764.71,95c3.36,0,6.72.09,10.07.18,9.23.38,16.32.94,22.94,1.87a131.53,131.53,0,0,1,22.47,4.85,72.9,72.9,0,0,0,35,2.42A162.35,162.35,0,0,1,875.3,102c5-.28,10.17-.46,15.2-.46q6,0,12,.28c11.56.74,18.93,7.73,20.7,19.58.47,3.07.65,6.24.84,9.32h0c.09,1.59.19,3.27.37,4.94.84,9.51,6,16.41,13.62,18.56a23.39,23.39,0,0,0,6.71.93h0a24,24,0,0,0,12.59-3.54,20,20,0,0,0,5.13-4.57,14.55,14.55,0,0,0,2.61-5.69,14.71,14.71,0,0,0-.1-6.06,17.29,17.29,0,0,0-2.42-5.59,9.31,9.31,0,0,0-.84-1,100.93,100.93,0,0,0-11.28-11.47,14.48,14.48,0,0,1-3.45-4.1c-.47-.93-1.4-1.77-2-2.8a14.13,14.13,0,0,1-2.24-7.27v-.1a13.26,13.26,0,0,0-7.46-11.84C927.61,87.46,920,84,912.32,80.65c-3.64-1.59-7.37-3.17-11.1-4.66a10.77,10.77,0,0,0-3.45-.84A173.21,173.21,0,0,0,878,74c-5.13,0-10.26.18-15.3.65-3.82.28-7.64.37-11.47.37a186.19,186.19,0,0,1-38-3.91,283.67,283.67,0,0,0-56.13-5.6c-5.41,0-10.91.19-16.42.47a181.74,181.74,0,0,0-38.13,7.09c-3.83,1.11-8.21,2.33-12.5,3.17a66.06,66.06,0,0,1-12.77,1.49,18.09,18.09,0,0,1-2.33-.1c-2-.09-3.92-.27-5.78-.46h0c-2.71-.28-5.32-.47-8-.56-2.89.09-5.69.28-8.58.65-1.31.19-2.61.28-3.92.47h0a21.8,21.8,0,0,0-6.25,3.17,17.57,17.57,0,0,0-4.29,4.75A14.52,14.52,0,0,0,636,91.47a16.13,16.13,0,0,0,.47,6.34A16.84,16.84,0,0,0,641.07,105.08Z" transform="translate(-34.51 -30.3)"/>
    <path class="fill__substract" d="M529,75.89a32.42,32.42,0,0,0,14.36,3.64h0a19,19,0,0,0,12.31-4.2,17.23,17.23,0,0,0,5.87-11.19A20,20,0,0,0,546,42.51h0a6,6,0,0,0-2.61,0l-4.2.84c-13,2.7-25.92,5.78-38.7,9.32a6.5,6.5,0,0,0-.09,12.5c.93.28,1.87.56,2.89.84A156.33,156.33,0,0,1,529,75.89Z" transform="translate(-34.51 -30.3)"/>
    <path class="fill__substract" d="M1272.34,513.22c7.37-.56-.74-12.22-4-20.24a5.86,5.86,0,0,0-4.29-3.64h0a132,132,0,0,0-26.29-2.23c-3.92.18-7.93.18-11.56.28H1226a48.54,48.54,0,0,0-25.92,8.11c-1.12.74-2.33,1.4-3.36,2.14s-2.24,1.4-3.36,2.05a57.6,57.6,0,0,1-46.15,7.65c-3.17-.75-6.44-1.58-9.51-2.33h0c-9.42-2.24-19.12-4.57-28.72-6.34a289.73,289.73,0,0,1-46.81-12,190.31,190.31,0,0,0-42-10.26l-6.16-.74h0c-14.92-1.87-30.4-3.73-45.41-7a40.2,40.2,0,0,0-30.12,5.13q-2.24,1.39-4.47,2.52h0c-1,.56-2.15,1.12-3.17,1.77a66,66,0,0,1-14.36,6.16,52.24,52.24,0,0,1-14.64,2A54.53,54.53,0,0,1,891,485.15a58.88,58.88,0,0,1-11.1-3.36,139.82,139.82,0,0,0-15.94-5.31,25,25,0,0,0-18,1.21,16.61,16.61,0,0,0-5.78,4.38,11.68,11.68,0,0,0-1.87,11.84,17.54,17.54,0,0,0,4.11,6,25.86,25.86,0,0,0,12.12,6.43c9.23,2.15,18.55,4.11,27.69,6.07l4.57.93a67.34,67.34,0,0,0,35.43-2c6.72-2.24,13.62-4.57,20-6.81A81.45,81.45,0,0,1,980,500.72c12.58,1.68,25.08,3,39.91,4.38A99.1,99.1,0,0,1,1057,515.55c3.45,1.77,6.9,3.45,10.25,5h.1a49.86,49.86,0,0,0,17.81,5c2.7.18,5.41.28,8.11.46h0a126.22,126.22,0,0,1,14.36,1.12c10.72,1.68,21.45,4.2,31.89,6.62h0l.37.1c6.53,1.49,15.2,3.26,24.15,3.26a66.33,66.33,0,0,0,9.7-.75,124.78,124.78,0,0,0,27.14-8.11,245.18,245.18,0,0,1,51.47-13.8,48.61,48.61,0,0,1,8.3-.75" transform="translate(-34.51 -30.3)"/>
    <path class="fill__substract" d="M751.1,471.35c5.31-1.4,9.6-2.43,13.71-3.17a88.22,88.22,0,0,1,14-1.31c1.31,0,2.61,0,3.92.1,4.47.27,9.79.65,15.2,1.21a46.59,46.59,0,0,0,32-7c2.33-1.49,4.66-2.89,7-4.29l.94-.55a60,60,0,0,1,31.33-8.86H870a72.63,72.63,0,0,1,23.12,5.13,123.78,123.78,0,0,0,14.08,4.47,25.48,25.48,0,0,0,16.23-.93,16.44,16.44,0,0,0,9.13-9.7c0-.09.1-.19.1-.37a16.69,16.69,0,0,0-4.57-12.4,29.69,29.69,0,0,0-11.28-7.09c-7.74-2.89-15.95-4-23.87-5l-1.68-.18a156.6,156.6,0,0,0-20.8-1.59,94.65,94.65,0,0,0-16.22,1.4c-8,1.49-15.85,4.2-23.41,6.81l-.18.09-4.48,1.59a222.93,222.93,0,0,1-22,6.43,73.39,73.39,0,0,1-16.88,1.68c-4.29,0-8.77-.19-13-.47l-3.17-.18v.09c-2.24,0-4.48,0-6.62-.09h-.19c-2.15,0-4.38-.1-6.62-.1-2.52,0-4.57,0-6.62.1a119.75,119.75,0,0,0-17.25,2.33A26,26,0,0,0,719,448.13a11.94,11.94,0,0,0-1.3,1.68,13.65,13.65,0,0,0,3.54,19,23.5,23.5,0,0,0,13.33,4.66h2.06A51.67,51.67,0,0,0,751.1,471.35Z" transform="translate(-34.51 -30.3)"/>
    <path class="fill__substract" d="M1294.16,605.34c-.74-7.46-5.22-6.43-7.65-6-3.82.75-6.71,1.31-11.37,2.43a42.72,42.72,0,0,0-11.47,4.19,13.69,13.69,0,0,0-6.53,15.58,16,16,0,0,0,3,5.87c4.38,5.32,10.25,7.93,18.18,7.93h.09v.09h0l.75-.09c1.58-.1,3.08-.28,4.66-.38h0A13.7,13.7,0,0,0,1296,620.26" transform="translate(-34.51 -30.3)"/>
    <path class="fill__substract" d="M650.3,437h0c1.21.56,2.52,1.12,3.73,1.59l3.26,1.21a115,115,0,0,0,10.91,3.73,35.43,35.43,0,0,0,8.86,1.21,27,27,0,0,0,10.82-2.24,28.76,28.76,0,0,0,9.51-6.8c2.89-3,5.69-6.25,8.2-9.05h0A76.74,76.74,0,0,1,720,413.63a53.65,53.65,0,0,1,17.72-8.11,70.43,70.43,0,0,1,25.08-.84,137.44,137.44,0,0,0,53.71-4.76c7-2.05,14.18-3.91,21.26-5.59a148.79,148.79,0,0,1,64.44-2.05A88.81,88.81,0,0,1,916,396.1a77.06,77.06,0,0,1,12.58,6,68.72,68.72,0,0,1,11.19,8.3,76.16,76.16,0,0,1,9.7,10.81c1.31,1.77,2.8,3.45,4.29,5.22l.37.47a34.82,34.82,0,0,0,20,11.84c5.5,1,11.47,1.87,19.39,2.8,13.52,1.4,24.53,2.89,34.88,4.66a309.61,309.61,0,0,1,34.31,7.55l7.28,2.06h0c15.47,4.38,31.42,8.85,47.46,11.84a203.92,203.92,0,0,1,36.46,10.16,76.91,76.91,0,0,0,12,3.45,34.84,34.84,0,0,0,6.24.65h0a22.18,22.18,0,0,0,6.53-.93,19.09,19.09,0,0,0,6.15-3.07,12.34,12.34,0,0,0,3.73-16.7,17.32,17.32,0,0,0-8.67-8,106.56,106.56,0,0,0-16.69-5.59c-9.14-2.14-18.46-4.2-27.41-6.15-14.18-3.08-28.82-6.34-43.18-10l-.28-.09h0c-14.45-3.73-29.55-7.46-44.29-10.73a431.43,431.43,0,0,0-44.94-7.46,68.19,68.19,0,0,1-36.74-15.76l-11.84-9.88a141.87,141.87,0,0,0-16-11.75,81,81,0,0,0-17.9-8.48,116.27,116.27,0,0,0-21.73-5,173.68,173.68,0,0,0-22-1.4c-5.68,0-11.75.28-18.46.75a160.9,160.9,0,0,0-20.14,2.89c-6.53,1.31-13.15,2.89-19.86,4.48a207.44,207.44,0,0,1-50.73,6.34c-4.1,0-8.3-.1-12.4-.37-5.59-.38-12.12-.75-18.55-.84h-1.12a35.63,35.63,0,0,0-26.3,11.56c-1.21,1.21-2.33,2.52-3.45,3.73a69.55,69.55,0,0,1-5,5.41A131.13,131.13,0,0,1,687,407.1a27.63,27.63,0,0,1-16,5.41c-5.78,0-11.47-2-17-5.87-1.87-1.4-3.73-2.9-5.5-4.39v-.56l-.84-.65h-.09c-.75-.56-1.5-1.21-2.24-1.86-1.12-.94-2.15-2-3.27-2.89-2-1.78-4-3.64-6.15-5.23a21.55,21.55,0,0,0-20.33-3.35,20.64,20.64,0,0,0-7.83,4.75,15.91,15.91,0,0,0-4.2,8.11,14.12,14.12,0,0,0,.84,8.77,18.88,18.88,0,0,0,5.5,6.81,47.53,47.53,0,0,0,9.42,6c6.06,3.08,12.4,6.06,18.47,9h.09l7.36,3.54a16.27,16.27,0,0,0,2,.74l1.12.47v.47Z" transform="translate(-34.51 -30.3)"/>
    <path class="fill__substract" d="M1138,319.08c-12.3-2.15-24.61-4.94-36.64-8.21-18-5.13-33.1-9.14-47.46-12.49a315.16,315.16,0,0,1-39.07-11,64.47,64.47,0,0,0-13.15-3.17,21.34,21.34,0,0,0-15.85,3.55c-.19.18-.47.28-.66.46a1.88,1.88,0,0,0-.46.38,12.34,12.34,0,0,0-2,17.15h0a23.93,23.93,0,0,0,4.57,4.76,32.26,32.26,0,0,0,9.13,4.94,89.63,89.63,0,0,0,10.08,2.8c7.92,1.86,15.94,3.54,23.68,5.31,16.22,3.55,33,7.28,49.33,11.57,27,7.18,56.13,14.17,86.06,17.15a64.66,64.66,0,0,1,31.71,11.38,194.84,194.84,0,0,1,16.13,12.77l.18.19c5.41,4.85,13.52-1.58,10.07-8q-10.35-19.57-22-38.42a6,6,0,0,0-3.73-2.79c-1-.28-2-.56-3.08-.75-6.43-1.12-13-1.86-19.58-2.61C1162.78,323,1150.28,321.32,1138,319.08Z" transform="translate(-34.51 -30.3)"/>
    <path class="fill__substract" d="M101.55,438.53c5.5,1,11.47,1.86,19.39,2.79,13.53,1.4,24.53,2.89,34.88,4.66a309.65,309.65,0,0,1,34.31,7.56l7.28,2h0c15.47,4.38,31.42,8.86,47.46,11.84a203.11,203.11,0,0,1,36.46,10.17,76.91,76.91,0,0,0,12,3.45,34.84,34.84,0,0,0,6.24.65,22.18,22.18,0,0,0,6.53-.93,17.81,17.81,0,0,0,6.06-3.08A12.34,12.34,0,0,0,315.92,461a17.23,17.23,0,0,0-8.67-8,106.6,106.6,0,0,0-16.69-5.6c-9.14-2.14-18.37-4.19-27.42-6.15h-.09c-14.17-3.08-28.81-6.34-43.17-10l-.28-.09h0c-14.45-3.73-29.47-7.46-44.29-10.72A426.38,426.38,0,0,0,130.36,413a67.81,67.81,0,0,1-27.69-9.33A8.89,8.89,0,0,0,90,407.75c-2,4.48-3.92,9-5.78,13.43v.09a8.92,8.92,0,0,0,2.61,10.45A34.44,34.44,0,0,0,101.55,438.53Z" transform="translate(-34.51 -30.3)"/>
    <path class="fill__substract" d="M78.33,501.93a81.58,81.58,0,0,1,37.86-3.73c12.59,1.68,25.08,3,40,4.39A98.9,98.9,0,0,1,193.3,513c3.45,1.77,7,3.45,10.35,5.13h0a50.16,50.16,0,0,0,17.81,5c2.71.19,5.41.28,8.12.47h0a122,122,0,0,1,14.36,1.12c10.72,1.68,21.44,4.19,31.89,6.62h0l.37.09c6.62,1.49,15.2,3.26,24.15,3.26a66.43,66.43,0,0,0,9.7-.74,124.7,124.7,0,0,0,27.13-8.11,244.9,244.9,0,0,1,51.47-13.8,48.7,48.7,0,0,1,8.3-.75,26.9,26.9,0,0,1,11.38,2.33,15.36,15.36,0,0,1,7.08,6.25,13.5,13.5,0,0,1,1.4,9.14,17.78,17.78,0,0,1-5.13,9.23,28.14,28.14,0,0,1-10,6.43,44.17,44.17,0,0,1-11.57,2.61,220.1,220.1,0,0,0-44.57,8.21c-8.48,2.61-17,5-24.8,7.27a70,70,0,0,1-37.95.47c-4.2-1.12-8.39-2.24-12.5-3.36h0c-5.68-1.58-11.56-3.17-17.34-4.57-6.71-1.77-13.61-3.54-20.7-3.54H231a24.43,24.43,0,0,0-12.49,3.45,22.67,22.67,0,0,0-8.39,9.88c-1.12,2.33-2.15,4.85-3.08,7.28h0c-.75,1.86-1.4,3.73-2.24,5.5A24.88,24.88,0,0,1,187,593.13,73.36,73.36,0,0,1,173.44,595c-10,.47-20.14.84-30.21.93h-2c-3.35,0-6.9.1-10.35.1-7.46,0-13.24-.19-18.55-.56a123.93,123.93,0,0,1-14.27-2c-3-.47-6.06-1-9-1.4a47.05,47.05,0,0,0-6.34-.47c-6.62,0-12,1.68-16.5,5-6.34,4.75-8.77,10.16-7.55,16.59a13.44,13.44,0,0,0,4.57,8,22.62,22.62,0,0,0,8.29,3.92,7.56,7.56,0,0,0,1.59.37,106.28,106.28,0,0,0,12.21.66c2.9-.1,5.79-.19,8.68-.19a193.08,193.08,0,0,1,20.79,1.12,101.81,101.81,0,0,0,27.13-.56c15.67-2.61,27.61-4.66,38.7-6.72A42.24,42.24,0,0,1,215.78,628c2.14,1.68,4.38,3.26,6.62,4.85h.09l2.33,1.68a69,69,0,0,0,29.93,13c3.73.56,7.74,1.21,11.66,2a27.36,27.36,0,0,1,15.85,9.05,19.17,19.17,0,0,1,3.26,5.5,6.65,6.65,0,0,0,6.25,4.1h8.67a6.63,6.63,0,0,0,6.53-7.65v-.09c-.37-2.52-.65-5.13-.93-7.65-.28-2.79-.56-5.59-1-8.39-1.68-11.28-7.92-18.46-18.65-21.26-3.54-.93-7.27-1.68-10.44-2.24-4.29-.74-8.67-1.49-12.87-2.23-6.9-1.22-14.08-2.43-21.17-3.73a28.82,28.82,0,0,1-16.31-8.21c-.1-.09-.19-.28-.38-.37a14.43,14.43,0,0,1,.94-20.33,20.5,20.5,0,0,1,10-5.13,30.67,30.67,0,0,1,5-.46,32.34,32.34,0,0,1,7.27.93,54.65,54.65,0,0,1,7,2.14c2.34.93,4.76,1.87,7,2.71h0c4.66,1.86,9.51,3.73,14.26,5.31a164.25,164.25,0,0,0,17.26,4.85,39.36,39.36,0,0,0,7.45.84,43.67,43.67,0,0,0,9.8-1.21,67.12,67.12,0,0,0,9.51-3.27A96.86,96.86,0,0,1,352,584.08h.46a96.36,96.36,0,0,0,16.41-1.86c.19,0,.28-.1.47-.1,15.95-4.1,31.89-8.67,47.56-13.52a24.53,24.53,0,0,0,11.19-7.08,31.43,31.43,0,0,0,6.24-11.85c.84-3,1.87-6.52,2.61-10.16A32.69,32.69,0,0,1,440,531.3a26.84,26.84,0,0,1,4.85-6.34,27.2,27.2,0,0,1,6.62-4.56A48.84,48.84,0,0,1,463.34,517l10.63-1h.1c13.14-1.31,26.66-2.61,40.09-3.73q5.73-.56,11.47-.56a114,114,0,0,1,20.42,1.87l3.36.65h0c4.1.84,8.3,1.68,12.49,2.14a35.53,35.53,0,0,0,5.5.38,27.69,27.69,0,0,0,7.84-1,21.34,21.34,0,0,0,7.27-3.64,12.77,12.77,0,0,0,3.92-15.94,22.07,22.07,0,0,0-10.07-9.89,41.91,41.91,0,0,0-19.49-4.84h-1.4c-18,.37-33.85,1-48.3,1.86a255.3,255.3,0,0,0-27.7,2.89,161.87,161.87,0,0,0-27,6.62,52.49,52.49,0,0,1-35.8-.56,129.1,129.1,0,0,0-16.6-4.75,131.4,131.4,0,0,0-26.3-2.24c-3.82,0-7.74.09-11.56.18H362a48.63,48.63,0,0,0-25.92,8.12c-1.12.74-2.24,1.4-3.35,2.14s-2.24,1.4-3.36,2.05a57.66,57.66,0,0,1-46.16,7.65c-3.17-.75-6.34-1.49-9.42-2.24h-.09c-9.42-2.24-19.11-4.57-28.72-6.43a291,291,0,0,1-46.81-12,189.17,189.17,0,0,0-41.87-10.35l-6.15-.75c-14.92-1.86-30.4-3.73-45.41-7a40.15,40.15,0,0,0-30.12,5.13c-1.21.74-2.42,1.4-3.64,2.05a5.35,5.35,0,0,1-1.95.65c-.75.1-1.22.28-2.24,1.4a1.63,1.63,0,0,0-.28.56c-7.18,9-17.81,33.85-9.51,32.45" transform="translate(-34.51 -30.3)"/>
    <path class="fill__substract" d="M54.46,570.84a69.8,69.8,0,0,1,13.05-3.73A183,183,0,0,1,102.39,564c13.71,0,27.51,1.22,39.07,2.34,3.08.27,6.06.74,9,1.11h0c4.29.56,8.77,1.22,13.24,1.5H165a45.67,45.67,0,0,0,11.84-1.59,22.2,22.2,0,0,0,7.74-4.1,17.33,17.33,0,0,0,5.41-6.72,14.12,14.12,0,0,0,1.12-7.27,13.64,13.64,0,0,0-3.17-6.81,18.24,18.24,0,0,0-7.18-4.94,36.68,36.68,0,0,0-16.79-2c-4.94.47-10,.65-14.92.65a176.93,176.93,0,0,1-24.24-1.67A111.36,111.36,0,0,0,81,535.87c-9.05,2.24-18,4.85-26.77,7.93h0a6.71,6.71,0,0,0-4.1,4.94c-1.86,9.33-8.3,11.28-9.7,20.8h0C42.62,583.8,50.92,572.15,54.46,570.84Z" transform="translate(-34.51 -30.3)"/>
    <path class="fill__substract" d="M823.92,141a15.31,15.31,0,0,0-1.67-5.69,16.3,16.3,0,0,0-12-8.76,59.12,59.12,0,0,0-9.89-.94c-1.49,0-3,.1-4.47.19-10.07.93-20.33,1.4-30.4,1.4-2,0-3.92,0-5.88-.1h-2.33a259.08,259.08,0,0,0-27,1.5c-12.68,1.3-25.08,5.22-37,8.95l-2.43.74c-9.6,3-17.43,4.39-24.8,4.39a50.14,50.14,0,0,1-17.72-3.17v-.1c-9-3.45-17.06-9-24.8-14.45l-.19-.09-2.24-1.59a93.39,93.39,0,0,0-54.45-17.53h-1.77A181.81,181.81,0,0,0,546,107.88a61.94,61.94,0,0,1-7.18.46,59.23,59.23,0,0,1-13.52-1.49,106.32,106.32,0,0,1-13.15-3.92L507,101h0c-8-3.08-16.41-6.25-24.71-8.86a148.41,148.41,0,0,0-64.9-5.22c-4.19.56-8.48.93-12.77,1.12a4.38,4.38,0,0,0-2.15.55c-11,5.13-22,10.73-32.82,16.51a5.56,5.56,0,0,0,.56,10.07.09.09,0,0,1,.09.09,54.39,54.39,0,0,0,35.44,2.15,114.59,114.59,0,0,1,50-1.87,196.69,196.69,0,0,1,38.23,12l2.33.93c8.3,3.36,17,6.9,26,8.77a81.36,81.36,0,0,0,15,1.4,168.06,168.06,0,0,0,18-1.21,74.12,74.12,0,0,1,44.2,8c3.17,1.68,6.44,3.55,9.51,5.23h0c4.57,2.61,9.33,5.22,14.18,7.64,5.59,2.8,11.56,5.5,17.43,8.11,2.24,1,4.76,2.15,7.28,3.27a1.24,1.24,0,0,1,.56.09v.09a50.72,50.72,0,0,0,27.6,2.71,147.81,147.81,0,0,0,21-5.6,178.77,178.77,0,0,1,83.36-9.32c6,.75,13,1.49,20.33,1.86h1.39a25.46,25.46,0,0,0,12.78-3.45A20.49,20.49,0,0,0,820,151.8a17.26,17.26,0,0,0,3.07-5.23A13.8,13.8,0,0,0,823.92,141Z" transform="translate(-34.51 -30.3)"/>
    <path class="fill__substract" d="M210.18,657a82.36,82.36,0,0,0-16.41-7.09,58.62,58.62,0,0,0-17.06-2.61,53.46,53.46,0,0,0-15.39,2.24,207.71,207.71,0,0,0-22,8.49,41.42,41.42,0,0,1-27.22,2.23l-2.89-.74c-4.85-1.21-9.8-2.52-14.74-3.55L89.89,655h-.18c-11.29-2.33-22.94-4.66-33.85-9a54.47,54.47,0,0,0-15.67-3.83,5,5,0,0,0-5.4,4.76c-.19,4.75-.28,9.6-.28,14.45a5,5,0,0,0,4.94,4.94H207.76a5,5,0,0,0,2.61-9.23C210.27,657.09,210.27,657,210.18,657Z" transform="translate(-34.51 -30.3)"/>
    <path class="fill__substract" d="M1296.93,664.08a5.49,5.49,0,0,0-6-5.4c-4.56.37-9.13.74-13.7.93-3.73.28-7.37.37-11.1.37s-7.37-.09-11.1-.37a21.22,21.22,0,0,1-6.71-1.77,20.79,20.79,0,0,1-5.31-3.64,21.49,21.49,0,0,1-6-11.84c-.65-3.27-.93-6.72-1.31-10h0c-.18-1.58-.28-3.26-.46-4.85a23.31,23.31,0,0,0-6.06-14.08c-3.45-3.54-8.77-5.5-14.46-5.5a25.09,25.09,0,0,0-11,2.61c-4.94,2.61-8.21,6.62-9,11.28s.56,9.42,4.2,13.71a48.25,48.25,0,0,0,4.29,4.29c.75.65,1.49,1.31,2.24,2a100.91,100.91,0,0,1,9.42,9.42c3.17,3.82,1.39,6.86,2.61,13.52a2.65,2.65,0,0,0,1,1.49c8.47,6.11,64-1.05,73.85-.33a11.46,11.46,0,0,0,1.16,0,4.18,4.18,0,0,0,3.14-1.44A.93.93,0,0,0,1296.93,664.08Z" transform="translate(-34.51 -30.3)"/>
    <path class="fill__substract" d="M1234,581.75h.18c16-4.1,32-8.67,47.75-13.52a15,15,0,0,0,2.14-.75,2.43,2.43,0,0,0,1.49-2.61c-1.4-8.58-3-17.34-4.75-25.83h0a2.41,2.41,0,0,0-4.11-1.21l-.46.47a28.27,28.27,0,0,1-10,6.43,45,45,0,0,1-11.56,2.61,219.84,219.84,0,0,0-44.57,8.21c-8.49,2.61-17,5-24.81,7.27a70,70,0,0,1-37.95.47c-4.1-1.12-8.3-2.24-12.31-3.36H1135c-5.69-1.58-11.56-3.17-17.34-4.57-6.72-1.77-13.62-3.54-20.7-3.54h-1.12a25,25,0,0,0-12.59,3.45,22.67,22.67,0,0,0-8.39,9.88c-1.12,2.43-2.15,4.85-3.08,7.28-.75,1.86-1.4,3.73-2.24,5.5a24.88,24.88,0,0,1-17.81,15.2A73.36,73.36,0,0,1,1038.2,595c-10,.47-20.14.84-30.21.84h-2c-3.35,0-6.9.09-10.35.09-7.46,0-13.24-.18-18.55-.56a121.76,121.76,0,0,1-14.27-2h0c-3-.56-6-1-9.05-1.4a47.05,47.05,0,0,0-6.34-.47c-6.62,0-12,1.68-16.5,5-6.34,4.75-8.77,10.16-7.55,16.59a13.44,13.44,0,0,0,4.57,8,22.62,22.62,0,0,0,8.29,3.92,7.56,7.56,0,0,0,1.59.37,106.28,106.28,0,0,0,12.21.66c2.9-.1,5.79-.19,8.68-.19a193.08,193.08,0,0,1,20.79,1.12,101.81,101.81,0,0,0,27.13-.56c15.67-2.61,27.61-4.66,38.7-6.72a42.24,42.24,0,0,1,35.16,8.21c2.14,1.68,4.38,3.26,6.62,4.85l2.33,1.68a69,69,0,0,0,29.93,13c3.73.56,7.74,1.21,11.65,2a27.39,27.39,0,0,1,15.86,9.05,19.13,19.13,0,0,1,4.1,7.64,2.42,2.42,0,0,0,2.42,1.87h15.71a4.66,4.66,0,0,0,3.07-1.05,2,2,0,0,0,.62-2.22,24.84,24.84,0,0,1-1-4.57c-.37-2.51-.65-5.12-.93-7.64h0c-.28-2.8-.56-5.5-1-8.3-1.67-11.28-7.92-18.46-18.64-21.26-3.64-.93-7.28-1.68-10.45-2.24-4.29-.75-8.67-1.49-12.87-2.24-6.9-1.12-14.08-2.42-21.07-3.73a29.66,29.66,0,0,1-16.41-8.2,1.45,1.45,0,0,0-.37-.38A14.41,14.41,0,0,1,1091,586a20.39,20.39,0,0,1,10.07-5.13,23.22,23.22,0,0,1,5-.47,32.42,32.42,0,0,1,7.28.93,55.67,55.67,0,0,1,7,2.15c2.33.93,4.66,1.86,7,2.7,4.67,1.87,9.52,3.73,14.27,5.32a164.75,164.75,0,0,0,17.25,4.85,40.4,40.4,0,0,0,7.55.84,43.11,43.11,0,0,0,9.8-1.22,67.07,67.07,0,0,0,9.51-3.26,97.89,97.89,0,0,1,31.51-8.67h.19A145.31,145.31,0,0,0,1234,581.75Z" transform="translate(-34.51 -30.3)"/>
    <path class="fill__substract" d="M1082.4,659.05a89,89,0,0,0-16.41-7.18,58.62,58.62,0,0,0-17.06-2.61,54.53,54.53,0,0,0-15.48,2.24,209.83,209.83,0,0,0-22,8.48,41.44,41.44,0,0,1-27.23,2.24l-2.89-.74h0c-4.85-1.22-9.79-2.52-14.73-3.55l-4.48-.93h-.28c-11.28-2.33-22.93-4.66-33.84-9a55.72,55.72,0,0,0-36.28-2,114.43,114.43,0,0,1-58.28,0,232.89,232.89,0,0,1-35.9-12.78,111,111,0,0,0-19.67-6.62,87.45,87.45,0,0,0-20.33-2.33,80.59,80.59,0,0,0-11.65.84,94.14,94.14,0,0,1-25.65.37,70.34,70.34,0,0,1-16.13-4.57,160.45,160.45,0,0,1-15.1-7.36l-3.73-2-.66-.37h0c-7.92-4.29-16-8.77-24.24-12.87-4-1.77-8-3.45-12.21-4.85v-.37l-.94-.19h0a16.54,16.54,0,0,1-2-.56,52.75,52.75,0,0,0-28.71-1.12c-8.4,2.15-16.7,4.76-25.27,7.55A157.72,157.72,0,0,1,517.05,605l-1.4-.19a86.65,86.65,0,0,0-14.73-1.49,46.41,46.41,0,0,0-5.13.28,22.22,22.22,0,0,0-16.78,9.7,13.27,13.27,0,0,0-1.21,13.15A17.05,17.05,0,0,0,491,636.67a75.27,75.27,0,0,0,11.19.84c1.12,0,2.33,0,3.45-.09,4.47-.09,8.95-.37,13.33-.56,6-.28,12.22-.65,18.28-.65h4.47a179.21,179.21,0,0,0,48.68-6.72l7.08-2c6.16-1.86,12.5-3.73,18.84-5.22a50.6,50.6,0,0,1,31.7,1.86v.1a79.46,79.46,0,0,1,18.19,9.69c1.67,1.12,3.35,2.34,5,3.55a87.12,87.12,0,0,0,11,7.36,85.08,85.08,0,0,0,11.75,5.6,118,118,0,0,0,25.27,6.81,62.79,62.79,0,0,0,22.85-.75A70,70,0,0,1,756.79,655a70.94,70.94,0,0,1,15.94,1.77,91,91,0,0,1,15.57,5c5.78,2.51,11.75,4.84,17.81,6.9.1,0,.28.09.38.09h285.42a1.09,1.09,0,0,0,.65-2A45.12,45.12,0,0,0,1082.4,659.05Z" transform="translate(-34.51 -30.3)"/>
    <path class="fill__substract" d="M450,657.19a382.94,382.94,0,0,1-43.55,4.66c-3.73.28-7.36.37-11.09.37s-7.37-.09-11.1-.37a19.66,19.66,0,0,1-12-5.41,21.56,21.56,0,0,1-6-11.84c-.65-3.27-.93-6.72-1.3-10h0c-.19-1.59-.28-3.26-.47-4.85a23.25,23.25,0,0,0-6.06-14.08c-3.45-3.54-8.67-5.5-14.45-5.5a25.09,25.09,0,0,0-11,2.61c-4.95,2.61-8.21,6.62-9.05,11.28s.56,9.42,4.2,13.71a44.89,44.89,0,0,0,4.19,4.2c.75.65,1.49,1.3,2.24,2a89.13,89.13,0,0,1,9.42,9.42,14.2,14.2,0,0,1,3,6.38,14.44,14.44,0,0,0,1.64,4.64c2.25,3.82,6,7.14,12.9,8.32a20.82,20.82,0,0,0,3.53.25l281.38-4.58c8.58-.1,17.67-11.1-1.14-13.28" transform="translate(-34.51 -30.3)"/>
    <path class="fill__substract" d="M478.94,658.71" transform="translate(-34.51 -30.3)"/>
    <path class="fill__substract" d="M601.53,657.37c-17.34,4.2-16.31,3.57-35.33,4.13l-16.18.76c-5.78.18-15.36,1.26-21.23,1.26-10.77,0-22.66.28-31-1a29.84,29.84,0,0,0-3.53-.3" transform="translate(-34.51 -30.3)"/>
    <path class="fill__substract" d="M646.22,655.76" transform="translate(-34.51 -30.3)"/>
    <path class="fill__substract" d="M406.56,635.46l.74-.09c1.59-.1,3.08-.28,4.66-.38l20.52-2.14a98,98,0,0,0,11.65-1.21h.1c8-1.77,13-6.06,14.82-13A16.37,16.37,0,0,0,457.37,607a22.21,22.21,0,0,0-3.72-5,20.26,20.26,0,0,0-5.13-3.72,24.1,24.1,0,0,0-11.1-2.52,38.45,38.45,0,0,0-8,.93c-2.7.56-5.41,1-7.83,1.49h0c-6.06,1.21-12.31,2.43-18.46,3.82a40.65,40.65,0,0,0-11.38,4.2,13.68,13.68,0,0,0-6.53,15.57,15.92,15.92,0,0,0,3,5.88c4.38,5.22,10.35,7.74,18.37,7.83Z" transform="translate(-34.51 -30.3)"/>
    <path class="fill__substract" d="M1239.33,458.76" transform="translate(-34.51 -30.3)"/>
    <path class="fill__substract" d="M1234.67,458.76c14.64.84,26.39-8.95,15.2-24.8a9.25,9.25,0,0,0-6.06-3.73,67.45,67.45,0,0,1-29.65-13.06c-4.85-3.73-9.61-7.27-14.18-11a110.14,110.14,0,0,0-54.83-24.62c-10.53-1.58-24.33-3.73-38.23-6.8-9.23-2.06-18.55-4.48-27.69-6.72h0c-8-2-16.32-4.19-24.62-6.06-7.74-1.77-15.66-3.36-23.31-4.85-6.62-1.3-13.52-2.7-20.33-4.19-16.59-3.73-29.65-9.89-39.81-18.75-3.64-3.35-7.09-6.9-10.35-10.53-1.4-1.5-2.8-3.08-4.29-4.57A34,34,0,0,0,937,308.26a75.68,75.68,0,0,0-11.28-1,206.78,206.78,0,0,1-39.26-4,115.71,115.71,0,0,0-50.91.65c-7.09,1.68-14.17,3-21.35,4.19-17.35,3-35.16,4.57-52.41,6h0c-4.19.38-8.67.75-13,1.12q-2.94.29-5.87.28a58.72,58.72,0,0,1-12.13-1.21,52.73,52.73,0,0,1-11.19-3.73,54.42,54.42,0,0,1-10.25-6.06,72,72,0,0,1-9.42-8.3c-3.36-3.54-6.53-7.46-9.6-11.28v-.1c-.66-.84-1.4-1.68-2.06-2.61a43,43,0,0,0-10.07-9.23,33.62,33.62,0,0,0-12.68-4.75c-5.13-.84-10.35-1.31-15.48-1.87h0c-2.14-.19-4.29-.37-6.43-.65v-.1h0v.1c-2.24-.47-4.48-.93-6.62-1.4-4.94-1-10-2.05-14.83-3.45-8.58-2.52-16.5-7.09-24.05-11.47h0c-1.4-.84-2.89-1.68-4.39-2.52-4.47-2.52-9.13-5-13.8-7.36a75.33,75.33,0,0,0-33.75-7.93h0a75.43,75.43,0,0,0-15.2,1.59c-4.57.83-9.42,1.67-15.29,2.42a44.22,44.22,0,0,1-30.4-6.81c-3.73-2.42-7.55-5-11.19-7.55h0c-2.89-2-5.88-4.1-9-6.06a70.88,70.88,0,0,0-34.32-11.66,67.57,67.57,0,0,1-11.37-1.86,24.71,24.71,0,0,1-6.62-2.89,13.62,13.62,0,0,1-2.71-2,14,14,0,0,1-.37-19.87,21.35,21.35,0,0,1,7.93-5.78,22.15,22.15,0,0,1,9.23-1.67,35.38,35.38,0,0,1,5.41.46c7.73,1.12,14.91,4.48,21.81,7.65l.38.18c12.12,5.69,24.33,11.57,36.08,17.35h0l2.15,1a62.4,62.4,0,0,0,35.34,6.06c6.43-.74,11.84-1.3,16.88-1.67a54.08,54.08,0,0,1,5.5-.19A73,73,0,0,1,569,202.61a91.07,91.07,0,0,1,17.53,6.62c3.73,1.87,7.37,3.73,11,5.51h0c6.34,3.26,12.87,6.62,19.49,9.6,5.5,2.42,11.28,4.38,16.88,6.34,2.42.84,4.94,1.68,7.46,2.61h.09a7,7,0,0,0,2,.28v.37c.09,0,.09.1.19.1h.09L661,238a41.41,41.41,0,0,0,33.66-6c.66-.47,1.31-.84,2-1.22h0a19.59,19.59,0,0,0,2-1.21,72.2,72.2,0,0,1,50.63-11.75A213.12,213.12,0,0,0,777,219.4c9.88,0,20-.47,29.65-.93h0c3.27-.19,7-.38,10.63-.47A28.23,28.23,0,0,0,837.72,209a18.15,18.15,0,0,0,3.92-6.62,16.11,16.11,0,0,0,.75-7,15.42,15.42,0,0,0-7-11.1A20.08,20.08,0,0,0,825,181.17a36.72,36.72,0,0,0-16,3.73,64.2,64.2,0,0,1-26.67,5.78c-2,0-3.91-.09-5.87-.28l-2.24-.19c-4.2-.37-8.58-.84-12.87-1.3a143.13,143.13,0,0,0-16.78-1,98.43,98.43,0,0,0-28.91,4.1c-8.11,2.52-17,5.79-27.88,10.26a58.27,58.27,0,0,1-42.89,1.31.52.52,0,0,1-.37-.1,2.81,2.81,0,0,1-.84-.18,246.32,246.32,0,0,1-34.5-15.2l-4.76-2.43c-3.92-1.95-7.83-4-11.84-6.06a78.41,78.41,0,0,0-19.21-7.27,85.17,85.17,0,0,0-20-2.33,113.73,113.73,0,0,0-12.49.74,90.43,90.43,0,0,1-23.59,0c-9.14-1.21-17.44-4.57-26.49-8.57-2.61-1.12-5.31-2.34-7.74-3.36-8.11-3.64-16.59-7.37-25.08-10.35a100.46,100.46,0,0,0-47-4.76A34.36,34.36,0,0,0,401.8,146a21.53,21.53,0,0,0-11.47,10.73,36.64,36.64,0,0,0-2.89,8.86c-.28,1.3-.56,2.61-.75,3.91h0c-.46,2.61-1,5.32-1.67,7.83a24.42,24.42,0,0,1-16.88,18.09,63.19,63.19,0,0,1-8.3,2.24c-7,1.31-14.27,2.33-21.63,3-7,.56-14.27.93-21.73.93a331.57,331.57,0,0,1-41.87-2.8c-1.58-.19-3.07-.47-4.57-.65a81.27,81.27,0,0,0-12.68-1.21,35.54,35.54,0,0,0-5.5.37,30.22,30.22,0,0,0-9.42,3,21,21,0,0,0-7.36,6.62c-.1.19-.28.38-.38.56a13.17,13.17,0,0,0,3.64,18.19h0a22.05,22.05,0,0,0,8.21,3.73,55.62,55.62,0,0,0,11.09,1.11h2.52c4.76-.37,9.6-.56,14.36-.56a185.58,185.58,0,0,1,21.63,1.22,127.18,127.18,0,0,0,49.61-2.24c8-2,16-4.57,23.87-7h0l5.69-1.78a43.52,43.52,0,0,1,28.35.56l5.59,2c9,3.27,18.37,6.53,27.6,9.7a65.7,65.7,0,0,1,29.19,19.3,72.08,72.08,0,0,0,8.95,8.77c6,4.84,13.15,7.27,21.91,7.27a46.8,46.8,0,0,0,6.25-.37c7.55-.84,15.2-2.06,22.56-3.17h0c2.8-.47,5.6-.84,8.4-1.31a73.58,73.58,0,0,1,25.55,0,57.43,57.43,0,0,1,15.66,5.88,73.87,73.87,0,0,1,13.71,9.6,66.53,66.53,0,0,0,13.52,9.23,45.55,45.55,0,0,0,15.57,4.57c7.18.56,14.55,1.4,21.63,2.14h0l4.29.47h0l2.52.75h.09c2,.56,3.92,1.12,5.88,1.77a71.51,71.51,0,0,1,16.88,8.39,137.57,137.57,0,0,1,14.82,11.56c4.29,3.73,8.49,7.74,12.5,11.66h0c2.33,2.24,4.66,4.47,7.08,6.71a35.79,35.79,0,0,0,24.81,10h1.3c3.45-.09,7-.28,10.45-.56h0c3.17-.19,6.43-.47,9.69-.56a404.47,404.47,0,0,0,78.52-9.7A146.21,146.21,0,0,1,864,330.45c2.8,0,5.59.1,8.39.28,11.66.94,24.34,2.15,38.7,3.73A72.37,72.37,0,0,1,948.59,350c1.59,1.3,3.27,2.51,4.76,3.72,3,2.34,6,4.67,8.95,7.09a108.11,108.11,0,0,0,53.06,23.69c13.14,1.95,25.92,4.29,37.95,7,7.92,1.77,15.85,3.82,23.59,5.78h0c7.37,1.87,15.1,3.92,22.75,5.6,9.23,2,18.56,3.91,27.6,5.68,7,1.4,14.17,2.8,21.17,4.29a116.29,116.29,0,0,1,20.79,6.44,78.3,78.3,0,0,1,9.7,4.94,67.23,67.23,0,0,1,8.95,6.34,176,176,0,0,1,15.57,15.57c6.44,6.72,12.68,10.35,19.86,11.56" transform="translate(-34.51 -30.3)"/>
    <path class="fill__substract" d="M322.36,168a109.76,109.76,0,0,1,10.9,1.4h0c2.9.46,5.88.93,8.86,1.21,1.4.09,2.8.19,4.11.19h0a29.12,29.12,0,0,0,9.79-1.59,24.56,24.56,0,0,0,8.67-5.31,19.21,19.21,0,0,0,4.66-6.9,13.59,13.59,0,0,0-2.52-13.71,17.4,17.4,0,0,0-6.8-4.76,13.42,13.42,0,0,0-3.92-1.11c-5.5-.47-10.07-.75-14.27-.94-3.17-.09-6.34-.09-9.41-.09h0c-2.62,0-5.23,0-7.93-.09a18.83,18.83,0,0,0-11.1,3.26h-.09c-9.32,6.43-18.65,13.15-27.69,20a4.19,4.19,0,0,0,2.61,7.55h4.19C301.19,167.27,311.73,167.37,322.36,168Z" transform="translate(-34.51 -30.3)"/>
    <path class="fill__substract" d="M577.38,298.38a21.78,21.78,0,0,0-10.16-5.78,33.34,33.34,0,0,0-15.48-.1c-3.82.75-7.65,1.77-11.38,2.61l-3.91.94a82.52,82.52,0,0,1-19.12,2.23,130.47,130.47,0,0,1-17.06-1.21,48.49,48.49,0,0,0-34.69,7.65c-3,2-6.06,3.73-9.23,5.41a68,68,0,0,1-13.8,5.5,55.2,55.2,0,0,1-14.08,1.86,56.19,56.19,0,0,1-17.53-2.79l-8.39-2.8h0c-3.73-1.31-7.56-2.61-11.38-3.83a25.53,25.53,0,0,0-17.81.56,17.41,17.41,0,0,0-6.06,4.2,12.16,12.16,0,0,0-2.42,12.22,16.73,16.73,0,0,0,3.91,6.24,26.51,26.51,0,0,0,12,7.18c5.78,1.59,11.56,2.89,17.44,3.92a159.52,159.52,0,0,0,29.74,2.8h3.08a88.7,88.7,0,0,0,18.46-2.8,186.58,186.58,0,0,0,17.91-5.6c7.55-2.79,15.29-5.22,23.12-7.27a77.76,77.76,0,0,1,19.12-2c3.91,0,7.83.19,11.74.28,1.59.09,3.45.19,5.13.19,2.52,0,5.13,0,7.65.09h7.65c2.89,0,5.31,0,7.64-.09a55.87,55.87,0,0,0,12.4-1.68,32.59,32.59,0,0,0,11.38-5.32,21.71,21.71,0,0,0,6.06-6.24,11.74,11.74,0,0,0,1.49-3.92,15.14,15.14,0,0,0,.19-4.57,14.81,14.81,0,0,0-1.21-4.38A12.11,12.11,0,0,0,577.38,298.38Z" transform="translate(-34.51 -30.3)"/>
    <path class="fill__substract" d="M185.28,391.16c7.93,1.77,15.86,3.82,23.6,5.78h0c7.36,2,15.1,3.91,22.75,5.59,9.14,2.05,18.55,3.92,27.69,5.69,7,1.4,14.17,2.8,21.17,4.29a117.07,117.07,0,0,1,20.79,6.43,94.34,94.34,0,0,1,9.7,4.85,68.16,68.16,0,0,1,8.95,6.34,174.76,174.76,0,0,1,15.57,15.58c6.44,6.71,12.68,10.35,19.86,11.56a68.74,68.74,0,0,0,11.57,1h.18a243.17,243.17,0,0,1,43.46,4,107.33,107.33,0,0,0,36.64,1c6.25-1,12.59-2.33,18.74-3.54h0l7.09-1.4c19.12-3.73,38.7-5.32,57.72-6.81h0c4.2-.37,8.58-.65,12.87-1,1.86-.18,3.73-.28,5.5-.28A56.74,56.74,0,0,1,561,451.49,49.17,49.17,0,0,1,571.88,455,59.88,59.88,0,0,1,582,460.72a62.1,62.1,0,0,1,9.24,7.83,119,119,0,0,1,9.6,11.1h0c1.21,1.49,2.42,3,3.73,4.47a36.24,36.24,0,0,0,16.88,12c7.55,2.43,15.57,3,23.22,3.45l3.82.28v.37c2,.38,4.1.75,5.87,1.12h0a135.44,135.44,0,0,1,13.52,2.89c8.4,2.33,16,6.62,23.41,10.82,1.77,1,3.54,2,5.31,3a239.13,239.13,0,0,0,22.57,11.19,57.5,57.5,0,0,0,12.4,3.64A71.42,71.42,0,0,0,744.2,534a89.34,89.34,0,0,0,17.25-1.68c4.94-.84,10.72-1.86,16.6-2.42a43.36,43.36,0,0,1,29.18,7.36c4.94,3.27,9.23,6.25,13.24,9.14a78.48,78.48,0,0,0,43.27,16.13,45.3,45.3,0,0,1,10.63,1.87,20.54,20.54,0,0,1,8.2,4.38,13.18,13.18,0,0,1,4,8.39c.75,6.53-2.14,11.94-8.67,16a23.08,23.08,0,0,1-19.3,2.52,169.5,169.5,0,0,1-22.1-8.21c-12.49-5.59-23.87-11.09-34.59-16.6a68.62,68.62,0,0,0-43-6.9,126.26,126.26,0,0,1-17.9,1.5,67.71,67.71,0,0,1-17.81-2.15,126.51,126.51,0,0,1-26.3-10.72c-2.14-1.12-4.38-2.24-6.43-3.36-9.33-4.94-19-10-29.28-13.43-3-1-6-1.86-8.86-2.79h.09l-3.91-1.22v.1c-2.43-.56-4.85-1.12-7.18-1.68h-.09c-5-1.21-10.36-2.43-15.58-3.36A36.2,36.2,0,0,0,600,532.05l-1,.65h0c-2.52,1.5-5.13,3.08-7.64,4.57a69.16,69.16,0,0,1-37.4,10.91c-2.23,0-4.47-.09-6.62-.28l-5.68-.56h0a114.42,114.42,0,0,0-12.59-.93c-7-.09-14.18-.09-22-.09s-16.13,0-25.64.09h-.65a34.54,34.54,0,0,0-18.37,5.32,21,21,0,0,0-7.84,9.23,16.29,16.29,0,0,0-.56,11.09,15.68,15.68,0,0,0,6.25,8.21,19.48,19.48,0,0,0,10.63,3.17,14.22,14.22,0,0,0,2-.09,81.53,81.53,0,0,0,13.89-3.17c2.15-.56,4.29-1.22,6.34-1.87a97.52,97.52,0,0,1,10.17-2.8,51.69,51.69,0,0,1,9.32-.84,107.37,107.37,0,0,1,17.16,1.68,113.5,113.5,0,0,0,57.16-5.78l7.27-2.8h0c5-2,10.26-4,15.39-5.87a49.76,49.76,0,0,1,25.83-2.61c3.07.46,6.15,1.3,9.14,2.05h0c1.39.37,2.89.75,4.28,1v.46c1.31.47,2.62.93,3.92,1.31a71.31,71.31,0,0,1,8.86,3.45c9.14,4.29,18.28,8.86,27.13,13.24h0l.28.09,9.61,4.76a90.52,90.52,0,0,0,29.37,9.6c3.26.28,6.62.47,9.88.47a108.93,108.93,0,0,0,15.48-1.12,82,82,0,0,1,44.48,7c8.77,4.1,18.09,8.3,27.42,12.22a114.28,114.28,0,0,0,44.57,9c1.86,0,3.82,0,5.68-.18a61.45,61.45,0,0,0,8.3-.94c6.53-1.12,11.47-3.45,15-7s5.87-8.39,7-15c.19-.94.37-2,.56-2.89h0a102.54,102.54,0,0,1,2.24-10.45,23.27,23.27,0,0,1,14.26-16,72.78,72.78,0,0,1,13.15-3.72,181.43,181.43,0,0,1,34.88-3.08c13.7,0,27.5,1.21,39.07,2.33,3.07.28,6.06.75,9,1.12h0c4.2.56,8.58,1.21,13,1.4h1.49a45.8,45.8,0,0,0,11.85-1.59,22.15,22.15,0,0,0,7.73-4.1,17.2,17.2,0,0,0,5.41-6.71,14.06,14.06,0,0,0,1.12-7.28,13.48,13.48,0,0,0-3.17-6.81,18.17,18.17,0,0,0-7.18-4.94,36.62,36.62,0,0,0-16.78-2c-4.94.47-10,.65-14.92.65a164.73,164.73,0,0,1-24.34-1.77,109.71,109.71,0,0,0-43.73,1.49,266.76,266.76,0,0,0-26.76,7.93,51.53,51.53,0,0,1-37.86-.47c-4.85-1.95-9.88-3.63-14.73-5.22-3.92-1.3-8-2.7-12-4.19A150.79,150.79,0,0,1,841.17,526c-6.62-3.45-11.65-9-17.06-15.2A39.85,39.85,0,0,0,811,500.63a36.34,36.34,0,0,0-15.66-3.27,35.45,35.45,0,0,0-5.5.38c-8.4,1-17,2.33-25.18,3.54h-.28l-9.51,1.4a64.36,64.36,0,0,1-10.35.74,58.6,58.6,0,0,1-18.37-2.89,60.93,60.93,0,0,1-16.88-8.85c-3.36-2.52-6.34-4.85-9-7.18a49.47,49.47,0,0,0-28.44-11.85c-5.41-.46-10.91-1.12-16.23-1.77h-.09l-6.9-.84v.1a75.3,75.3,0,0,1-33.1-16.32c-4.29-3.55-8.49-7.37-12.5-11.1-3.08-2.8-6.34-5.69-9.51-8.48a111,111,0,0,0-12.68-10.17,28.23,28.23,0,0,0-9-3.73,41.46,41.46,0,0,0-9.51-.93c-1.5,0-3,.09-4.76.19-2.8.18-5.5.37-8.2.56-4.85.37-10,.74-14.92.84A333.46,333.46,0,0,0,472,428.55c-13,2.8-26.76,5.5-40.74,5.5-2.43,0-4.85-.09-7.18-.28-13.52-.93-28-2.24-44.11-4a66.72,66.72,0,0,1-33.47-13.61c-4.85-3.73-9.61-7.28-14.18-11a110.12,110.12,0,0,0-54.83-24.61c-10.53-1.59-24.33-3.73-38.23-6.81-9.23-2.05-18.55-4.48-27.69-6.81h0c-8-2.05-16.41-4.19-24.62-6.06-7.74-1.77-15.66-3.35-23.31-4.85-6.71-1.3-13.52-2.7-20.33-4.19a114.78,114.78,0,0,1-14.64-4.2,8.71,8.71,0,0,0-10.63,3.82q-2.92,5.32-5.87,10.63A8.76,8.76,0,0,0,116,374a106.59,106.59,0,0,0,31.15,9.6C160.48,386.12,173.26,388.45,185.28,391.16Z" transform="translate(-34.51 -30.3)"/>
    <path class="fill__substract" d="M271.63,289.43h0c17.06,1.86,34.59,3.73,51.75,7.27a45.28,45.28,0,0,0,7.83.84h0a39.07,39.07,0,0,0,20.24-5.69c.74-.47,1.49-.84,2.14-1.21,1.12-.65,2.33-1.31,3.45-2.05A66.78,66.78,0,0,1,373,281.22a53.65,53.65,0,0,1,16.32-2.52,54.86,54.86,0,0,1,12.3,1.4,59.32,59.32,0,0,1,12.5,4.2,84.36,84.36,0,0,0,14,4.57,24,24,0,0,0,18.27-2.06c4-2.23,6.53-5.68,7.09-9.51a13.11,13.11,0,0,0-4-11.09,18.85,18.85,0,0,0-5.6-4.2,48,48,0,0,0-10.53-4c-9.7-2.24-19.21-4.19-29.75-6.34A67.14,67.14,0,0,0,369,253.81c-5.41,1.77-10.73,3.45-16,5.4a86.08,86.08,0,0,1-42.52,5.41l-1.12-.18c-9.88-1.31-20.14-2.71-30.3-3.17a114.79,114.79,0,0,1-53.43-15.11c-.09,0-.19-.09-.28-.09a30.44,30.44,0,0,0-37.67,7.08c-.93,1-1.77,2.15-2.71,3.17A7.2,7.2,0,0,0,189,268a321.48,321.48,0,0,1,42.52,12.21A189.83,189.83,0,0,0,271.63,289.43Z" transform="translate(-34.51 -30.3)"/>
    <path class="fill__substract" d="M157.68,323.55h0c16.23,3.55,33,7.28,49.33,11.57,27,7.18,56.13,14.17,86.07,17.15a64.66,64.66,0,0,1,31.7,11.38,194.84,194.84,0,0,1,16.13,12.77,107.17,107.17,0,0,0,67.51,27.23c3.92.19,7.93.28,11.94.28h0a224.68,224.68,0,0,0,53.43-6.53c9.69-2.42,18.18-4.1,26-5.31a179.59,179.59,0,0,1,26.39-2.15c1.68,0,3.26,0,4.85.1,5.69.18,11.37.46,17,.74,2.89.1,6.15.28,9.32.47.94.09,1.87.09,2.71.09a38.27,38.27,0,0,0,29.28-13.7l2.24-2.52h0a113.89,113.89,0,0,1,8-8.67,74.93,74.93,0,0,1,11.1-9.05,28,28,0,0,1,15-4.66,28.47,28.47,0,0,1,16.51,5.69,48.67,48.67,0,0,1,4.19,3.07h.1l2,1.59V364c.46.38.84.75,1.3,1.12.84.65,1.59,1.4,2.43,2,1.21.93,2.42,2,3.63,2.89a49.84,49.84,0,0,0,8.86,6.34,19.82,19.82,0,0,0,24-3.64,14.48,14.48,0,0,0,1.58-19.39,28.14,28.14,0,0,0-6.8-6.53,107.28,107.28,0,0,0-11.57-6.25c-7.46-3.73-15.1-7.27-22.47-10.72h0l-.84-.37v-.56l-2.7-.93c-1.87-.66-3.73-1.4-5.41-2.15a102.51,102.51,0,0,0-11.75-4.19,33.1,33.1,0,0,0-9-1.31c-8.12,0-15.39,3.45-21.64,10.26-1.49,1.58-2.89,3.26-4.29,4.85v.09c-1.49,1.77-3.07,3.54-4.66,5.22a74.34,74.34,0,0,1-14.27,12.22,49.72,49.72,0,0,1-8.2,4.29,53,53,0,0,1-9.14,2.89,79.58,79.58,0,0,1-24,.46A131.13,131.13,0,0,0,485,364.21c-8.21,2.24-17.07,4.66-25.93,6.71a147.67,147.67,0,0,1-66.39,1.21,83.76,83.76,0,0,1-11.75-3.45,67.32,67.32,0,0,1-29.65-20.42c-.93-1-1.77-2.05-2.7-3.26h0c-1.68-2.05-3.55-4.2-5.32-6.34a35.07,35.07,0,0,0-20.42-12.12c-6.53-1.12-13-1.87-19.58-2.61-12.4-1.12-25-2.8-37.21-4.95s-24.61-4.94-36.64-8.2c-18-5.13-33.1-9.14-47.37-12.5l-2.52-.56a34.66,34.66,0,0,0-36.27,14.46c0,.09-.09.09-.09.18v.1a5.41,5.41,0,0,0,3.35,8.3c3.36,1,7.28,1.86,11.19,2.79Z" transform="translate(-34.51 -30.3)"/>
  </g>
</svg>
